<svg viewBox="0 0 116 116" fill="none" xmlns="http://www.w3.org/2000/svg">
  <path d="M77.5798 60.9774C77.8991 59.9978 78.5231 59.1459 79.3607 58.546C80.1983 57.9461 81.2057 57.6295 82.2359 57.6425C83.2661 57.6554 84.2652 57.9972 85.0874 58.618C85.9097 59.2388 86.512 60.1061 86.8066 61.0934L90.3688 68.1114C90.7155 68.7936 91.2191 69.3838 91.8384 69.8333C92.4577 70.2829 93.1749 70.5789 93.931 70.6972L101.829 71.9345C102.846 71.9385 103.835 72.2631 104.657 72.8623C105.479 73.4614 106.091 74.3045 106.406 75.2715C106.72 76.2385 106.722 77.2802 106.411 78.2483C106.099 79.2164 105.49 80.0616 104.671 80.6635L99.006 86.3089C98.4636 86.8488 98.0573 87.5098 97.8203 88.2375C97.5833 88.9652 97.5225 89.7388 97.643 90.4945L98.8948 98.2907C99.2392 99.2678 99.2605 100.33 98.9555 101.32C98.6505 102.31 98.0355 103.176 97.201 103.79C96.3665 104.404 95.3568 104.734 94.3208 104.731C93.2847 104.727 92.2771 104.391 91.4466 103.772L84.3658 100.147C83.6837 99.7972 82.9282 99.6149 82.1618 99.6149C81.3954 99.6149 80.6399 99.7972 79.9578 100.147L72.877 103.772C72.0465 104.386 71.0411 104.718 70.0081 104.719C68.9752 104.72 67.969 104.391 67.1372 103.778C66.3053 103.166 65.6915 102.303 65.3858 101.316C65.0801 100.33 65.0986 99.271 65.4385 98.2955L66.6855 90.4994C66.8059 89.7436 66.7451 88.97 66.5081 88.2423C66.2712 87.5147 65.8648 86.8536 65.3225 86.3137L59.7351 80.7409C58.8876 80.1537 58.2501 79.311 57.9157 78.3357C57.5812 77.3604 57.5674 76.3038 57.8762 75.3201C58.185 74.3365 58.8003 73.4773 59.6321 72.8682C60.464 72.2591 61.4688 71.9319 62.4998 71.9345L70.3926 70.6972C71.1487 70.5789 71.8659 70.2829 72.4852 69.8333C73.1045 69.3838 73.6081 68.7936 73.9548 68.1114L77.5798 60.9774Z" stroke="currentColor" stroke-width="6" stroke-linecap="round" stroke-linejoin="round"/>
  <path d="M38.6667 72.5H33.8333C28.7058 72.5 23.7883 74.5369 20.1626 78.1626C16.5369 81.7883 14.5 86.7058 14.5 91.8333V101.5" stroke="currentColor" stroke-width="6" stroke-linecap="round" stroke-linejoin="round"/>
  <path d="M48.3333 53.1667C59.0108 53.1667 67.6667 44.5108 67.6667 33.8333C67.6667 23.1558 59.0108 14.5 48.3333 14.5C37.6558 14.5 29 23.1558 29 33.8333C29 44.5108 37.6558 53.1667 48.3333 53.1667Z" stroke="currentColor" stroke-width="6" stroke-linecap="round" stroke-linejoin="round"/>
</svg>
