<svg viewBox="0 0 54 54" fill="none" xmlns="http://www.w3.org/2000/svg">
  <path d="M27.0001 11.25C27.0028 10.3501 26.8254 9.45868 26.4785 8.62829C26.1317 7.7979 25.6222 7.04525 24.9802 6.41462C24.3382 5.78399 23.5766 5.28811 22.7401 4.95614C21.9036 4.62417 21.0092 4.46281 20.1095 4.48157C19.2097 4.50032 18.3228 4.6988 17.5009 5.06534C16.679 5.43188 15.9387 5.95907 15.3235 6.6159C14.7083 7.27274 14.2307 8.04596 13.9187 8.89008C13.6067 9.73421 13.4667 10.6322 13.5069 11.5312C12.1843 11.8713 10.9565 12.5079 9.91638 13.3927C8.87627 14.2775 8.05114 15.3875 7.5035 16.6384C6.95586 17.8893 6.70007 19.2485 6.75548 20.6129C6.8109 21.9774 7.17607 23.3113 7.82336 24.5137C6.68526 25.4383 5.79032 26.627 5.21637 27.9763C4.64242 29.3257 4.40686 30.7948 4.53017 32.256C4.65349 33.7171 5.13194 35.126 5.92392 36.36C6.71589 37.5941 7.7974 38.616 9.07436 39.3367C8.91667 40.5568 9.01077 41.7962 9.35085 42.9784C9.69093 44.1607 10.2698 45.2606 11.0516 46.2104C11.8335 47.1602 12.8017 47.9396 13.8966 48.5005C14.9915 49.0613 16.1897 49.3918 17.4173 49.4715C18.6449 49.5512 19.8758 49.3783 21.034 48.9636C22.1922 48.5489 23.253 47.9012 24.1511 47.0604C25.0491 46.2197 25.7653 45.2038 26.2553 44.0754C26.7453 42.947 26.9988 41.7302 27.0001 40.5V11.25Z" stroke="currentColor" stroke-width="3" stroke-linecap="round" stroke-linejoin="round"/>
  <path d="M20.25 29.25C22.139 28.5855 23.7885 27.3757 24.99 25.7738C26.1915 24.1718 26.891 22.2495 27 20.25" stroke="currentColor" stroke-width="3" stroke-linecap="round" stroke-linejoin="round"/>
  <path d="M13.5068 11.5312C13.5513 12.6197 13.8586 13.6811 14.4023 14.625" stroke="currentColor" stroke-width="3" stroke-linecap="round" stroke-linejoin="round"/>
  <path d="M7.82324 24.516C8.23486 24.1808 8.67532 23.8826 9.13949 23.625" stroke="currentColor" stroke-width="3" stroke-linecap="round" stroke-linejoin="round"/>
  <path d="M13.5 40.5C11.9493 40.5007 10.4248 40.1008 9.07422 39.339" stroke="currentColor" stroke-width="3" stroke-linecap="round" stroke-linejoin="round"/>
  <path d="M27 29.25H36" stroke="currentColor" stroke-width="3" stroke-linecap="round" stroke-linejoin="round"/>
  <path d="M27 40.5H40.5C41.6935 40.5 42.8381 40.9741 43.682 41.818C44.5259 42.6619 45 43.8065 45 45V47.25" stroke="currentColor" stroke-width="3" stroke-linecap="round" stroke-linejoin="round"/>
  <path d="M27 18H45" stroke="currentColor" stroke-width="3" stroke-linecap="round" stroke-linejoin="round"/>
  <path d="M36 18V11.25C36 10.0565 36.4741 8.91193 37.318 8.06802C38.1619 7.22411 39.3065 6.75 40.5 6.75" stroke="currentColor" stroke-width="3" stroke-linecap="round" stroke-linejoin="round"/>
  <path d="M36 30.375C36.6213 30.375 37.125 29.8713 37.125 29.25C37.125 28.6287 36.6213 28.125 36 28.125C35.3787 28.125 34.875 28.6287 34.875 29.25C34.875 29.8713 35.3787 30.375 36 30.375Z" stroke="currentColor" stroke-width="3" stroke-linecap="round" stroke-linejoin="round"/>
  <path d="M40.5 7.875C41.1213 7.875 41.625 7.37132 41.625 6.75C41.625 6.12868 41.1213 5.625 40.5 5.625C39.8787 5.625 39.375 6.12868 39.375 6.75C39.375 7.37132 39.8787 7.875 40.5 7.875Z" stroke="currentColor" stroke-width="3" stroke-linecap="round" stroke-linejoin="round"/>
  <path d="M45 48.375C45.6213 48.375 46.125 47.8713 46.125 47.25C46.125 46.6287 45.6213 46.125 45 46.125C44.3787 46.125 43.875 46.6287 43.875 47.25C43.875 47.8713 44.3787 48.375 45 48.375Z" stroke="currentColor" stroke-width="3" stroke-linecap="round" stroke-linejoin="round"/>
  <path d="M45 19.125C45.6213 19.125 46.125 18.6213 46.125 18C46.125 17.3787 45.6213 16.875 45 16.875C44.3787 16.875 43.875 17.3787 43.875 18C43.875 18.6213 44.3787 19.125 45 19.125Z" stroke="currentColor" stroke-width="3" stroke-linecap="round" stroke-linejoin="round"/>
</svg>
