<svg viewBox="0 0 124 124" fill="none" xmlns="http://www.w3.org/2000/svg">
  <path d="M15.5 36.1667V25.8333C15.5 23.0928 16.5887 20.4644 18.5266 18.5266C20.4644 16.5887 23.0928 15.5 25.8333 15.5H36.1667" stroke="currentColor" stroke-width="6" stroke-linecap="round" stroke-linejoin="round"/>
  <path d="M87.8335 15.5H98.1668C100.907 15.5 103.536 16.5887 105.474 18.5266C107.411 20.4644 108.5 23.0928 108.5 25.8333V36.1667" stroke="currentColor" stroke-width="6" stroke-linecap="round" stroke-linejoin="round"/>
  <path d="M108.5 87.8334V98.1667C108.5 100.907 107.411 103.536 105.474 105.473C103.536 107.411 100.907 108.5 98.1668 108.5H87.8335" stroke="currentColor" stroke-width="6" stroke-linecap="round" stroke-linejoin="round"/>
  <path d="M36.1667 108.5H25.8333C23.0928 108.5 20.4644 107.411 18.5266 105.473C16.5887 103.536 15.5 100.907 15.5 98.1667V87.8334" stroke="currentColor" stroke-width="6" stroke-linecap="round" stroke-linejoin="round"/>
  <path d="M41.3335 72.3334C41.3335 72.3334 49.0835 82.6667 62.0002 82.6667C74.9168 82.6667 82.6668 72.3334 82.6668 72.3334" stroke="currentColor" stroke-width="6" stroke-linecap="round" stroke-linejoin="round"/>
  <path d="M46.5 46.5H46.5525" stroke="currentColor" stroke-width="6" stroke-linecap="round" stroke-linejoin="round"/>
  <path d="M77.5 46.5H77.5525" stroke="currentColor" stroke-width="6" stroke-linecap="round" stroke-linejoin="round"/>
</svg>
