<svg viewBox="0 0 49 49" fill="none" xmlns="http://www.w3.org/2000/svg">
  <path d="M20.4167 4.08337V20.4167L26.5417 14.2917L32.6667 20.4167V4.08337" stroke="currentColor" stroke-width="3" stroke-linecap="round" stroke-linejoin="round"/>
  <path d="M8.16675 39.8125V9.18754C8.16675 7.83383 8.70451 6.53557 9.66172 5.57835C10.6189 4.62113 11.9172 4.08337 13.2709 4.08337H38.7917C39.3332 4.08337 39.8525 4.29848 40.2354 4.68136C40.6183 5.06425 40.8334 5.58356 40.8334 6.12504V42.875C40.8334 43.4165 40.6183 43.9358 40.2354 44.3187C39.8525 44.7016 39.3332 44.9167 38.7917 44.9167H13.2709C11.9172 44.9167 10.6189 44.3789 9.66172 43.4217C8.70451 42.4645 8.16675 41.1662 8.16675 39.8125ZM8.16675 39.8125C8.16675 38.4588 8.70451 37.1606 9.66172 36.2033C10.6189 35.2461 11.9172 34.7084 13.2709 34.7084H40.8334" stroke="currentColor" stroke-width="3" stroke-linecap="round" stroke-linejoin="round"/>
</svg>
