<svg viewBox="0 0 49 48" fill="none" xmlns="http://www.w3.org/2000/svg">
  <path d="M36.6887 18.608C36.3244 14.4993 34.3546 10.687 31.1903 7.96667C28.026 5.2463 23.9115 3.82793 19.7054 4.0075C15.4993 4.18707 11.5264 5.9507 8.61571 8.93043C5.70498 11.9102 4.08123 15.8758 4.08325 20C4.08325 29.38 14.0609 39.124 18.4198 42.936" stroke="currentColor" stroke-width="3" stroke-linecap="round" stroke-linejoin="round"/>
  <path d="M43.6467 33.2521C44.4601 32.4553 44.917 31.3748 44.917 30.2481C44.917 29.1213 44.4601 28.0408 43.6467 27.2441C42.8334 26.4473 41.7304 25.9998 40.5802 25.9998C39.43 25.9998 38.3269 26.4473 37.5136 27.2441L29.3265 35.2681C28.8411 35.7433 28.4858 36.3307 28.2934 36.9761L26.5845 42.7161C26.5333 42.8881 26.5302 43.0706 26.5756 43.2442C26.6211 43.4179 26.7133 43.5764 26.8427 43.7032C26.9721 43.8299 27.1339 43.9203 27.3112 43.9648C27.4885 44.0093 27.6747 44.0062 27.8504 43.9561L33.71 42.2821C34.3687 42.0936 34.9684 41.7456 35.4535 41.2701L43.6467 33.2521Z" stroke="currentColor" stroke-width="3" stroke-linecap="round" stroke-linejoin="round"/>
  <path d="M20.4167 26C23.7995 26 26.5417 23.3137 26.5417 20C26.5417 16.6863 23.7995 14 20.4167 14C17.034 14 14.2917 16.6863 14.2917 20C14.2917 23.3137 17.034 26 20.4167 26Z" stroke="currentColor" stroke-width="3" stroke-linecap="round" stroke-linejoin="round"/>
</svg>
