<svg viewBox="0 0 119 119" fill="none" xmlns="http://www.w3.org/2000/svg">
  <path d="M79.3333 9.91663V29.75" stroke="currentColor" stroke-width="6" stroke-linecap="round" stroke-linejoin="round"/>
  <path d="M104.125 58.2605V29.75C104.125 27.12 103.08 24.5976 101.22 22.7379C99.3607 20.8782 96.8384 19.8334 94.2083 19.8334H24.7917C22.1616 19.8334 19.6393 20.8782 17.7795 22.7379C15.9198 24.5976 14.875 27.12 14.875 29.75V99.1667C14.875 101.797 15.9198 104.319 17.7795 106.179C19.6393 108.039 22.1616 109.083 24.7917 109.083H60.7396" stroke="currentColor" stroke-width="6" stroke-linecap="round" stroke-linejoin="round"/>
  <path d="M109.083 109.083L99.7864 99.7865" stroke="currentColor" stroke-width="6" stroke-linecap="round" stroke-linejoin="round"/>
  <path d="M14.875 49.5834H104.125" stroke="currentColor" stroke-width="6" stroke-linecap="round" stroke-linejoin="round"/>
  <path d="M39.6667 9.91663V29.75" stroke="currentColor" stroke-width="6" stroke-linecap="round" stroke-linejoin="round"/>
  <path d="M89.25 104.125C97.4652 104.125 104.125 97.4652 104.125 89.25C104.125 81.0348 97.4652 74.375 89.25 74.375C81.0348 74.375 74.375 81.0348 74.375 89.25C74.375 97.4652 81.0348 104.125 89.25 104.125Z" stroke="currentColor" stroke-width="6" stroke-linecap="round" stroke-linejoin="round"/>
</svg>
