<svg width="60" height="60" viewBox="0 0 60 60" fill="none" xmlns="http://www.w3.org/2000/svg">
<g opacity="0.73">
<path d="M30.924 3.56702C30.924 3.56702 30.9684 3.53735 30.9981 3.53735H32.0141C32.0141 3.53735 32.066 3.54477 32.0882 3.56702C32.1105 3.58926 32.1179 3.61151 32.1179 3.64117V9.56634C32.1179 9.56634 32.1179 9.61825 32.0957 9.6405C32.0734 9.66275 32.0511 9.67016 32.0215 9.67016H30.8646C30.8053 9.67016 30.7682 9.6405 30.7534 9.58117L29.6633 6.19219C29.6633 6.19219 29.6485 6.16994 29.6336 6.16994C29.6188 6.16994 29.6114 6.18477 29.6114 6.1996L29.6262 9.56634C29.6262 9.56634 29.6188 9.61825 29.5966 9.6405C29.5743 9.66275 29.552 9.67016 29.5224 9.67016H28.5064C28.5064 9.67016 28.4545 9.66275 28.4323 9.6405C28.41 9.61825 28.4026 9.596 28.4026 9.56634V3.64117C28.4026 3.64117 28.4026 3.58926 28.4249 3.56702C28.4471 3.54477 28.4693 3.53735 28.499 3.53735H29.6485C29.7078 3.53735 29.7448 3.56702 29.7597 3.62634L30.8646 7.01533C30.8646 7.01533 30.8795 7.03758 30.8943 7.03758C30.9091 7.03758 30.9165 7.02275 30.9165 7.00792L30.9017 3.64117C30.9017 3.64117 30.9091 3.58926 30.9314 3.56702H30.924Z" fill="white"/>
<path d="M6.28956 32.5179L5.09559 26.5927V26.5556C5.08818 26.5037 5.11784 26.4741 5.18458 26.4741H6.25245C6.31919 26.4741 6.3637 26.5037 6.3637 26.5705L6.86797 29.7222C6.86797 29.7222 6.88278 29.7592 6.89761 29.7592C6.91244 29.7592 6.91989 29.7444 6.9273 29.7222L7.3945 26.5631C7.3945 26.4963 7.43897 26.4666 7.50571 26.4666H8.38818C8.45492 26.4666 8.49943 26.4963 8.49943 26.5631L9.01854 29.7147C9.01854 29.7147 9.03336 29.7518 9.04819 29.7518C9.06302 29.7518 9.07042 29.737 9.07784 29.7147L9.52281 26.5556C9.52281 26.4889 9.56728 26.4592 9.63402 26.4592H10.6648C10.739 26.4592 10.7761 26.4963 10.7612 26.5705L9.65629 32.4956C9.65629 32.5624 9.61177 32.592 9.54503 32.592H8.59584C8.5291 32.592 8.48459 32.5624 8.48459 32.4956L7.96548 29.255C7.96548 29.255 7.95066 29.2179 7.93583 29.2179C7.921 29.2179 7.9136 29.2327 7.90619 29.255L7.44641 32.4956C7.44641 32.5624 7.4019 32.592 7.33516 32.592H6.40077C6.33403 32.592 6.29698 32.5624 6.28956 32.4956V32.5179Z" fill="white"/>
<path d="M53.3791 27.505C53.3791 27.505 53.3346 27.5346 53.3049 27.5346H51.4733C51.4733 27.5346 51.4288 27.5495 51.4288 27.5791V28.9659C51.4288 28.9659 51.4436 29.0104 51.4733 29.0104H52.5263C52.5263 29.0104 52.5782 29.0178 52.6004 29.04C52.6227 29.0623 52.6301 29.0845 52.6301 29.1142V29.967C52.6301 29.967 52.6227 30.0189 52.6004 30.0411C52.5782 30.0634 52.556 30.0708 52.5263 30.0708H51.4733C51.4733 30.0708 51.4288 30.0856 51.4288 30.1153V31.5095C51.4288 31.5095 51.4436 31.554 51.4733 31.554H53.3049C53.3049 31.554 53.3569 31.554 53.3791 31.5836C53.4014 31.6059 53.4088 31.6281 53.4088 31.6578V32.5106C53.4088 32.5106 53.4014 32.5625 53.3791 32.5848C53.3569 32.607 53.3346 32.6144 53.3049 32.6144H50.3016C50.3016 32.6144 50.2497 32.6144 50.2274 32.5922C50.2052 32.5699 50.1978 32.5477 50.1978 32.518V26.5928C50.1978 26.5928 50.1978 26.5409 50.22 26.5187C50.2423 26.4964 50.2645 26.489 50.2942 26.489H53.2975C53.2975 26.489 53.3495 26.489 53.3717 26.5113C53.394 26.5335 53.4014 26.5558 53.4014 26.5854V27.4382C53.4014 27.4382 53.394 27.4901 53.3717 27.5124L53.3791 27.505Z" fill="white"/>
<path d="M29.3745 55.4028C29.115 55.2693 28.9147 55.084 28.7738 54.8392C28.6329 54.5945 28.5662 54.3201 28.5588 54.0013V53.7491C28.5588 53.7491 28.5662 53.6972 28.5884 53.675C28.6107 53.6527 28.633 53.6453 28.6626 53.6453H29.6712C29.6712 53.6453 29.723 53.6527 29.7453 53.675C29.7675 53.6972 29.775 53.7195 29.775 53.7491V53.9419C29.775 54.1199 29.8195 54.2682 29.9159 54.3795C30.0123 54.4907 30.1235 54.5426 30.2644 54.5426C30.4053 54.5426 30.524 54.4907 30.613 54.3869C30.7094 54.2831 30.7539 54.1422 30.7539 53.9716C30.7539 53.7936 30.6946 53.6453 30.5759 53.5192C30.4572 53.3932 30.2273 53.2078 29.8936 52.9631C29.6044 52.7554 29.3671 52.57 29.1817 52.4069C29.0038 52.2437 28.848 52.0435 28.7145 51.8062C28.5885 51.5689 28.5217 51.2871 28.5217 50.9756C28.5217 50.4788 28.6775 50.0783 28.9815 49.7817C29.293 49.4851 29.7008 49.3368 30.2051 49.3293C30.7168 49.3293 31.1321 49.4851 31.4435 49.7891C31.755 50.1006 31.9107 50.501 31.9181 51.0053V51.2129C31.9181 51.2129 31.9107 51.2649 31.8885 51.2871C31.8662 51.3094 31.844 51.3168 31.8143 51.3168H30.8058C30.8058 51.3168 30.7538 51.3094 30.7316 51.2871C30.7094 51.2649 30.702 51.2426 30.702 51.2129V50.9756C30.702 50.7977 30.6575 50.6494 30.5685 50.5455C30.4795 50.4343 30.3608 50.3824 30.2125 50.3824C30.0716 50.3824 29.9604 50.4343 29.8714 50.5381C29.7824 50.6419 29.7379 50.7828 29.7379 50.9608C29.7379 51.1388 29.7972 51.2945 29.9085 51.428C30.0197 51.5615 30.2422 51.7469 30.5685 51.9842C30.9318 52.2511 31.2062 52.4662 31.3916 52.6368C31.577 52.7999 31.7179 52.9853 31.8217 53.1855C31.9256 53.3858 31.9774 53.6305 31.9774 53.9049C31.9774 54.4165 31.8217 54.8318 31.5029 55.1359C31.184 55.4399 30.7761 55.5956 30.257 55.5956C29.9159 55.5956 29.6193 55.5289 29.3597 55.3954L29.3745 55.4028Z" fill="white"/>
<path d="M18.265 30.0562C19.1846 30.5827 19.9261 30.16 19.9261 29.1144C19.9261 28.0688 19.192 26.8007 18.2724 26.2742C17.3529 25.7476 16.6113 26.1703 16.6113 27.216C16.6113 28.2616 17.3455 29.5297 18.265 30.0562Z" fill="white"/>
<path d="M25.1173 41.81C26.0369 42.3365 26.7784 41.9138 26.7784 40.8682C26.7784 39.8226 26.0443 38.5545 25.1247 38.0279C24.2052 37.5014 23.4636 37.9241 23.4636 38.9697C23.4636 40.0154 24.1978 41.2834 25.1173 41.81Z" fill="white"/>
<path d="M41.3505 26.2815C40.4309 26.808 39.6968 28.0761 39.6968 29.1217C39.6968 30.1674 40.4458 30.5826 41.3579 30.0635C42.2774 29.537 43.0116 28.2689 43.0116 27.2233C43.0116 26.1777 42.2626 25.7624 41.3505 26.2815Z" fill="white"/>
<path d="M34.4979 38.0356C33.5784 38.5621 32.8442 39.8302 32.8442 40.8758C32.8442 41.9214 33.5932 42.3367 34.5054 41.8176C35.4249 41.2911 36.159 40.023 36.159 38.9774C36.159 37.9317 35.4101 37.5164 34.4979 38.0356Z" fill="white"/>
<path d="M37.924 32.0213C37.0044 32.5478 36.2703 33.8159 36.2703 34.8615C36.2703 35.9071 37.0192 36.3224 37.9314 35.8033C38.8509 35.2768 39.5851 34.0087 39.5851 32.9631C39.5851 31.9175 38.8361 31.5022 37.924 32.0213Z" fill="white"/>
<path d="M28.1429 21.261C29.0625 21.7875 30.5382 21.7875 31.4503 21.261C32.3625 20.7345 32.355 19.8891 31.4429 19.3625C30.5234 18.836 29.0476 18.836 28.1355 19.3625C27.2233 19.8891 27.2308 20.7345 28.1429 21.261Z" fill="white"/>
<path d="M46.4896 23.2484C46.4896 23.2484 46.4896 23.2484 46.4896 23.241V22.618C46.4896 21.7652 46.2597 20.9272 45.837 20.1857C45.4069 19.4441 44.7914 18.8286 44.0424 18.4059L32.2811 11.6279C30.7534 10.7454 28.855 10.7454 27.3347 11.6279L15.5734 18.4059C14.8318 18.836 14.2089 19.4515 13.7788 20.1857C13.3487 20.9272 13.1262 21.7652 13.1262 22.618V23.241C13.1262 23.241 13.1262 23.241 13.1262 23.2484V36.2407C13.1262 37.0861 13.3561 37.9167 13.7788 38.6508C14.2015 39.385 14.817 39.9931 15.5512 40.4232L15.566 40.4306L27.3274 47.2086C28.0912 47.6461 28.944 47.8686 29.8042 47.8686C30.6644 47.8686 31.5172 47.6461 32.2811 47.2086L44.0424 40.4306H44.0572V40.4232C44.7914 39.9931 45.4069 39.385 45.8296 38.6508C46.2523 37.9167 46.4822 37.0861 46.4822 36.2407V23.2484H46.4896ZM28.1134 12.9479C28.6399 12.6439 29.2258 12.4956 29.8116 12.4956C30.3975 12.4956 30.9833 12.6439 31.5098 12.9479L43.2341 19.7037C43.5455 19.8816 43.5752 20.1708 43.5752 20.2895C43.5752 20.4081 43.5455 20.6974 43.2341 20.8753L34.3871 25.9699L31.5024 27.6311C30.4568 28.2317 29.159 28.2317 28.1134 27.6311L18.2653 21.958L16.3892 20.8753C16.0777 20.6974 16.048 20.4081 16.048 20.2895C16.048 20.1708 16.0777 19.8816 16.3892 19.7037L28.1134 12.9479ZM14.6761 23.241C14.6761 22.7663 15.0024 22.5365 15.1359 22.4549C15.2768 22.3733 15.6402 22.2176 16.0554 22.4549L17.101 23.0556L27.3274 28.9511L28.5658 29.663C28.8476 29.8261 29.0255 30.1302 29.0255 30.449V44.8207C29.0255 45.2953 28.6993 45.5326 28.5658 45.6142C28.4249 45.6958 28.0615 45.8515 27.6462 45.6142L16.3447 39.1032C15.3139 38.5025 14.6687 37.3976 14.6687 36.2111V23.2261L14.6761 23.241ZM43.2712 39.118L31.9696 45.629C31.5543 45.8663 31.1835 45.7106 31.05 45.629C30.9091 45.5475 30.5903 45.3176 30.5903 44.8356V30.4639C30.5903 30.1376 30.7682 29.8409 31.05 29.6778L32.2885 28.9659L35.062 27.3641L43.5604 22.4623C43.9756 22.225 44.3465 22.3807 44.4799 22.4623C44.6208 22.5439 44.9397 22.7738 44.9397 23.2484V36.2333C44.9397 37.4198 44.2945 38.5248 43.2638 39.1254L43.2712 39.118Z" fill="white"/>
<path d="M12.3994 40.3267L5.65104 52.1623C5.21352 52.9335 6.07374 53.7863 6.85239 53.3488L21.0906 45.3843L12.3994 40.3193V40.3267Z" fill="white"/>
<path d="M36.9831 14.3199L36.9683 14.3274L38.4811 15.195L36.9831 14.3199Z" fill="white"/>
<path d="M52.7707 5.49504L38.5474 13.4521L47.2312 18.5097L53.9721 6.68156C54.4096 5.91032 53.5494 5.05751 52.7707 5.49504Z" fill="white"/>
<path d="M21.0834 13.4521L6.85263 5.49501C6.07398 5.05749 5.21376 5.91771 5.65129 6.68153L12.3922 18.5096L21.076 13.4447L21.0834 13.4521Z" fill="white"/>
<path d="M21.647 14.9132L22.6555 14.3274H22.6481L21.647 14.9132Z" fill="white"/>
<path d="M53.9718 52.1623L47.2234 40.3193L38.5322 45.3843L52.7704 53.3488C53.5491 53.7863 54.4093 52.9261 53.9718 52.1623Z" fill="white"/>
<path d="M13.2968 7.05235C18.0058 3.6337 23.6491 1.77977 29.5817 1.77977C35.5143 1.77977 41.3208 3.6782 46.0669 7.19325L47.7651 6.24404C42.5889 2.19505 36.2559 0 29.5817 0C22.9076 0 16.7228 2.14314 11.5837 6.10314L13.2894 7.05977L13.2968 7.05235Z" fill="white"/>
<path d="M53.1635 11.7096L52.1995 13.4078C55.5662 18.0945 57.3831 23.6934 57.3831 29.574C57.3831 35.4547 55.6033 40.9498 52.2959 45.6069L53.2673 47.3051C57.1013 42.2179 59.1703 36.048 59.1703 29.5666C59.1703 23.0853 57.0642 16.819 53.1709 11.7021L53.1635 11.7096Z" fill="white"/>
<path d="M7.13393 45.9477C3.67078 41.2239 1.79464 35.536 1.79464 29.5664C1.79464 23.5967 3.70044 17.805 7.22291 13.0515L6.25888 11.3682C2.20247 16.5443 0 22.8848 0 29.5664C0 36.2479 2.16539 42.4846 6.16247 47.6385L7.1265 45.9477H7.13393Z" fill="white"/>
<path d="M46.2969 51.7767C41.5063 55.3956 35.6998 57.3533 29.5893 57.3533C23.4787 57.3533 17.8279 55.4475 13.0744 51.9176L11.3762 52.8668C16.5598 56.9306 22.9077 59.1405 29.5967 59.1405C36.2857 59.1405 42.7818 56.8787 47.9951 52.7185L46.3043 51.7693L46.2969 51.7767Z" fill="white"/>
</g>
</svg>
