<svg width="45" height="41" viewBox="0 0 45 41" fill="none" xmlns="http://www.w3.org/2000/svg">
<path d="M0.0131456 33.14V30.9184C0.124226 30.0298 0.346387 29.0301 0.568548 28.1414C1.79043 23.8093 5.12286 20.1435 9.34392 18.5884C10.2326 19.0327 11.0101 19.588 11.8988 19.9213C14.8979 20.921 18.0082 20.4769 20.6741 18.6996C23.1179 19.4771 25.3395 21.2543 26.8946 23.2537C28.4497 25.2532 28.4498 25.3645 28.4498 25.6977C28.4498 26.0309 27.5611 26.5863 27.339 26.8085C24.2287 30.1409 24.1176 35.5839 27.1168 39.0273C26.3392 39.6938 25.3395 39.9159 24.3398 40.027C18.2304 39.6937 11.6766 40.4713 5.56717 40.027C-0.542257 39.5826 0.0131456 36.5835 0.0131456 33.3621V33.14Z" fill="#FED700"/>
<path d="M14.4534 2.25968C21.1182 1.70428 25.6725 8.92446 22.3401 14.7006C19.0077 20.4768 11.7875 20.2547 8.34398 15.256C4.67833 9.92418 8.12183 2.704 14.5645 2.25968H14.4534Z" fill="#FED700"/>
<path d="M42.1127 28.5854C40.2243 24.6976 35.5589 22.9203 31.4489 24.1422C27.339 25.3641 30.3381 24.6977 29.6716 24.8088C28.2276 21.8096 25.6728 19.3658 22.6736 17.8107C23.4511 16.1445 25.1173 14.5893 26.6725 13.5896C28.2276 12.5898 27.8944 12.9232 28.1165 12.9232C28.5608 12.9232 29.0052 13.3676 29.4495 13.4787C31.3379 14.3673 33.4484 14.4782 35.4478 13.8117C37.4473 13.1452 37.2251 12.9232 37.4473 12.9232C37.8916 12.9232 39.4467 13.8117 39.8911 14.145C43.4456 16.6998 45.4451 21.4763 44.3343 25.8084C43.2235 30.1406 43.3345 28.1411 42.3348 28.5854H42.1127Z" fill="#FED700"/>
<path d="M33.6704 25.253C39.7799 24.8087 43.8898 31.4737 40.7796 36.8056C37.6693 42.1374 32.7818 41.915 29.1161 38.8048C23.7843 34.2505 26.6724 25.6973 33.6704 25.253ZM35.1145 32.029V28.8075C35.1145 28.4743 34.448 28.1412 34.1148 28.1412C33.7815 28.1412 33.2261 28.4743 33.2261 28.8075V31.8069H33.115C33.115 31.918 30.0048 31.9179 30.0048 31.9179C30.0048 31.9179 29.5605 32.3622 29.4494 32.4733C29.2272 33.0287 29.5605 33.9174 30.1159 33.9174H33.2261V37.1386C33.2261 37.1386 33.5594 37.5829 33.6704 37.694C34.2259 38.0272 35.1145 37.694 35.1145 37.1386V34.0285H38.2248C38.4469 34.0285 38.8912 33.4729 39.0023 33.2508C39.1134 33.0286 38.6691 32.14 38.3358 32.14H35.1145V32.029Z" fill="#FED700"/>
<path d="M32.1154 0.0378719C37.4472 -0.517531 41.0018 5.14752 38.3359 9.70182C35.6699 14.2561 30.1159 13.8117 27.5611 9.92393C25.0062 6.03611 27.5611 0.482194 32.2264 0.0378719H32.1154Z" fill="#FED700"/>
</svg>
