<svg width="45" height="45" viewBox="0 0 45 45" fill="none" xmlns="http://www.w3.org/2000/svg">
<path d="M0 21.4386V0.999616C0.222161 0.444213 0.555409 0.11108 1.22189 0H25.2153C25.8817 0 26.4372 0.55524 26.4372 1.22172V21.2162C26.4372 21.8827 25.7707 22.3271 25.2153 22.4382H0.888647C0.444325 22.216 0.222161 21.8829 0 21.4386ZM9.664 4.99862C8.88643 4.99862 8.5532 5.77608 8.44212 6.55364C8.66428 9.55281 8.21996 12.8854 8.44212 15.8846C8.66428 18.8837 8.5532 16.9952 9.21968 17.3284C9.88617 17.6616 10.2194 17.3284 10.8859 17.1063C13.5518 15.7733 16.1067 13.885 18.7726 12.441C19.6613 11.9966 19.7723 10.997 19.1058 10.3305C16.3288 8.88649 13.5518 6.7758 10.7748 5.44283C7.99779 4.10987 10.1083 5.10954 9.77509 5.10954L9.664 4.99862Z" fill="#FED700"/>
<path d="M43.5436 44.4324H24.5488C24.4377 44.2102 24.1045 44.2102 23.9934 44.0991C23.8823 43.988 23.6602 43.5437 23.6602 43.5437V24.9933H25.8818C25.9928 24.9933 26.6593 24.7711 26.8815 24.66C27.9923 24.2157 28.7699 23.216 29.1031 22.2163H43.7657C44.099 22.4385 44.3211 22.6606 44.5433 22.9938V43.3216C44.5433 43.9881 44.21 44.2101 43.6546 44.5433L43.5436 44.4324ZM35.9901 28.9921H39.2114C39.3225 28.9921 39.7668 28.6589 39.8779 28.5478C40.5444 27.7703 40.2111 26.5485 39.2114 26.4374C38.2117 26.3263 35.4347 26.3263 34.6571 26.4374C33.8796 26.5485 34.1017 26.5483 33.8796 26.7704C33.6574 26.9926 33.4352 27.2148 33.4352 27.3258V32.2136C31.658 31.7692 29.8807 32.1024 28.6588 33.5465C26.1039 36.6567 29.2142 41.1 33.102 39.9892C36.9898 38.8784 35.9901 37.7676 35.9901 36.1014V28.9921Z" fill="#FED700"/>
<path d="M41.6554 19.5501H29.1033V15.3292H34.9905C34.9905 15.3292 35.4348 15.1069 35.5459 15.1069C36.2124 14.6625 36.3235 13.7741 35.7681 13.1076C35.2127 12.4412 35.2127 12.6632 35.1016 12.6632H29.1033V9.77522H29.2143C29.2143 9.66414 35.2127 9.66404 35.2127 9.66404C35.2127 9.66404 35.7681 9.3309 35.7681 9.21982C36.3235 8.55334 36.1013 7.66464 35.3238 7.22032C34.5462 6.776 34.8795 6.99821 34.7684 6.99821H28.9922V2.7771H40.5446C40.8778 2.7771 41.6554 3.55466 41.6554 3.8879V19.5501Z" fill="#FED700"/>
<path d="M20.9942 41.6553H3.8878C3.8878 41.6553 3.44348 41.4331 3.3324 41.4331C2.66591 40.9888 2.66591 40.1 2.77699 39.3225L8.21995 33.8796C9.21967 34.6572 10.3305 36.8787 11.8856 35.7679C13.4407 34.6571 14.8848 32.4354 16.4399 31.2135C17.995 29.9916 16.4399 31.1026 16.6621 31.1026L20.8831 35.3237V41.6553H20.9942Z" fill="#FED700"/>
<path d="M20.9943 24.9932V31.658L17.5508 28.3256C16.8843 27.8813 16.3289 27.8811 15.6624 28.4365L11.1081 32.9909C10.1084 32.2133 9.10869 30.2138 7.66465 30.9914L2.88818 35.6567V24.9932H20.9943Z" fill="#FED700"/>
<path d="M10.9968 8.66455L15.5511 11.1083L10.9968 13.7741V8.66455Z" fill="#FED700"/>
<path d="M31.8801 34.6572C33.7685 34.6572 33.7685 37.6563 31.8801 37.6563C29.9917 37.6563 29.8807 34.6572 31.8801 34.6572Z" fill="#FED700"/>
</svg>
