<svg width="81" height="81" viewBox="0 0 81 81" fill="none" xmlns="http://www.w3.org/2000/svg">
<path d="M40.05 80.1C62.169 80.1 80.1 62.169 80.1 40.05C80.1 17.931 62.169 0 40.05 0C17.931 0 0 17.931 0 40.05C0 62.169 17.931 80.1 40.05 80.1Z" fill="white"/>
<path d="M41.54 10.9599C41.54 10.9599 41.59 10.9299 41.62 10.9299H42.76C42.76 10.9299 42.82 10.9299 42.84 10.9599C42.86 10.9799 42.87 11.0099 42.87 11.0399V17.6699C42.87 17.6699 42.87 17.7299 42.85 17.7499C42.83 17.7699 42.8 17.7799 42.77 17.7799H41.48C41.41 17.7799 41.37 17.7499 41.35 17.6799L40.13 13.8899C40.13 13.8899 40.11 13.8599 40.1 13.8699C40.08 13.8699 40.08 13.8799 40.08 13.8999L40.1 17.6699C40.1 17.6699 40.09 17.7299 40.07 17.7499C40.05 17.7699 40.02 17.7799 39.99 17.7799H38.85C38.85 17.7799 38.79 17.7799 38.77 17.7499C38.75 17.7299 38.74 17.6999 38.74 17.6699V11.0399C38.74 11.0399 38.74 10.9799 38.76 10.9599C38.78 10.9399 38.81 10.9299 38.84 10.9299H40.12C40.19 10.9299 40.23 10.9599 40.25 11.0299L41.48 14.8199C41.48 14.8199 41.5 14.8499 41.51 14.8399C41.53 14.8399 41.53 14.8299 41.53 14.8099L41.51 11.0399C41.51 11.0399 41.52 10.9799 41.54 10.9599Z" fill="#1C2B35"/>
<path d="M13.99 43.3499L12.65 36.7198V36.6798C12.64 36.6198 12.68 36.5898 12.75 36.5898H13.95C14.03 36.5898 14.07 36.6199 14.08 36.6999L14.65 40.2299C14.65 40.2299 14.67 40.2698 14.68 40.2698C14.69 40.2698 14.7 40.2599 14.71 40.2299L15.23 36.6999C15.23 36.6299 15.28 36.5898 15.36 36.5898H16.35C16.43 36.5898 16.47 36.6199 16.48 36.6999L17.06 40.2299C17.06 40.2299 17.08 40.2698 17.09 40.2698C17.1 40.2698 17.11 40.2599 17.12 40.2299L17.61 36.6999C17.61 36.6299 17.66 36.5898 17.74 36.5898H18.9C18.98 36.5898 19.02 36.6298 19.01 36.7198L17.78 43.3499C17.78 43.4199 17.73 43.4598 17.65 43.4598H16.59C16.51 43.4598 16.47 43.4299 16.46 43.3499L15.88 39.7198C15.88 39.7198 15.86 39.6798 15.85 39.6798C15.84 39.6798 15.83 39.6898 15.82 39.7198L15.31 43.3499C15.31 43.4199 15.26 43.4598 15.18 43.4598H14.13C14.06 43.4598 14.02 43.4299 14 43.3499H13.99Z" fill="#1C2B35"/>
<path d="M66.6699 37.7398C66.6699 37.7398 66.6199 37.7698 66.5899 37.7698H64.5399C64.5399 37.7698 64.4899 37.7898 64.4899 37.8198V39.3698C64.4899 39.3698 64.5099 39.4198 64.5399 39.4198H65.7199C65.7199 39.4198 65.7799 39.4198 65.7999 39.4498C65.8199 39.4698 65.8299 39.4998 65.8299 39.5298V40.4798C65.8299 40.4798 65.8299 40.5398 65.7999 40.5598C65.7799 40.5798 65.7499 40.5898 65.7199 40.5898H64.5399C64.5399 40.5898 64.4899 40.6098 64.4899 40.6398V42.1998C64.4899 42.1998 64.5099 42.2498 64.5399 42.2498H66.5899C66.5899 42.2498 66.6499 42.2498 66.6699 42.2798C66.6899 42.2998 66.6999 42.3298 66.6999 42.3598V43.3098C66.6999 43.3098 66.6999 43.3698 66.6699 43.3898C66.6499 43.4098 66.6199 43.4198 66.5899 43.4198H63.2299C63.2299 43.4198 63.1699 43.4198 63.1499 43.3898C63.1299 43.3698 63.1199 43.3398 63.1199 43.3098V36.6798C63.1199 36.6798 63.1199 36.6198 63.1399 36.5998C63.1599 36.5798 63.1899 36.5698 63.2199 36.5698H66.5799C66.5799 36.5698 66.6399 36.5698 66.6599 36.5998C66.6799 36.6198 66.6899 36.6498 66.6899 36.6798V37.6298C66.6899 37.6298 66.6899 37.6898 66.6599 37.7098L66.6699 37.7398Z" fill="#1C2B35"/>
<path d="M39.8101 68.9499C39.5201 68.7999 39.3001 68.5899 39.1401 68.3199C38.9801 68.0499 38.9001 67.7399 38.9001 67.3799V67.0999C38.9001 67.0999 38.9101 67.0399 38.9301 67.0199C38.9501 66.9999 38.9801 66.9899 39.0101 66.9899H40.1401C40.1401 66.9899 40.2001 66.9899 40.2201 67.0199C40.2401 67.0499 40.2501 67.0699 40.2501 67.0999V67.3199C40.2501 67.5199 40.3001 67.6899 40.4101 67.8099C40.5101 67.9299 40.6501 67.9999 40.8001 67.9999C40.9601 67.9999 41.0901 67.9399 41.1901 67.8199C41.2901 67.6999 41.3501 67.5499 41.3501 67.3599C41.3501 67.1599 41.2801 66.9999 41.1501 66.8599C41.0201 66.7199 40.7601 66.5099 40.3801 66.2399C40.0501 66.0099 39.7901 65.7999 39.5801 65.6099C39.3801 65.4299 39.2001 65.1999 39.0601 64.9299C38.9201 64.6599 38.8401 64.3499 38.8401 63.9999C38.8401 63.4399 39.0101 62.9999 39.3601 62.6699C39.7101 62.3399 40.1601 62.1699 40.7301 62.1699C41.3101 62.1699 41.7701 62.3399 42.1201 62.6899C42.4701 63.0399 42.6501 63.4899 42.6501 64.0499V64.2899C42.6501 64.2899 42.6401 64.3499 42.6201 64.3699C42.6001 64.3899 42.5701 64.3999 42.5401 64.3999H41.4101C41.4101 64.3999 41.3501 64.3999 41.3301 64.3699C41.3101 64.3499 41.3001 64.3199 41.3001 64.2899V64.0299C41.3001 63.8299 41.2501 63.6699 41.1501 63.5399C41.0501 63.4199 40.9201 63.3599 40.7501 63.3599C40.5901 63.3599 40.4701 63.4199 40.3701 63.5299C40.2701 63.6399 40.2201 63.7999 40.2201 64.0099C40.2201 64.2099 40.2801 64.3799 40.4101 64.5299C40.5301 64.6799 40.7801 64.8899 41.1501 65.1599C41.5601 65.4599 41.8601 65.6999 42.0701 65.8899C42.2801 66.0799 42.4401 66.2799 42.5501 66.5099C42.6601 66.7399 42.7201 66.9999 42.7201 67.3199C42.7201 67.8999 42.5501 68.3499 42.1901 68.6899C41.8301 69.0299 41.3701 69.1999 40.8001 69.1999C40.4201 69.1999 40.0901 69.1299 39.8001 68.9799L39.8101 68.9499Z" fill="#1C2B35"/>
<path d="M27.38 40.5899C28.41 41.1799 29.24 40.7099 29.24 39.5399C29.24 38.3699 28.41 36.9499 27.39 36.3699C26.36 35.7799 25.53 36.2499 25.53 37.4199C25.53 38.5899 26.36 40.0099 27.38 40.5899Z" fill="#1C2B35"/>
<path d="M35.0502 53.7398C36.0802 54.3298 36.9102 53.8598 36.9102 52.6898C36.9102 51.5198 36.0802 50.0998 35.0602 49.5198C34.0302 48.9298 33.2002 49.3998 33.2002 50.5698C33.2002 51.7398 34.0202 53.1598 35.0502 53.7398Z" fill="#1C2B35"/>
<path d="M53.2101 36.3699C52.1801 36.9599 51.3601 38.3799 51.3601 39.5399C51.3601 40.7099 52.2001 41.1799 53.2201 40.5899C54.2501 39.9999 55.0701 38.5799 55.0701 37.4199C55.0701 36.2499 54.2301 35.7799 53.2101 36.3699Z" fill="#1C2B35"/>
<path d="M45.5502 49.5199C44.5202 50.1099 43.7002 51.53 43.7002 52.69C43.7002 53.86 44.5402 54.3299 45.5602 53.7399C46.5902 53.1499 47.4102 51.73 47.4102 50.57C47.4102 49.41 46.5702 48.9299 45.5502 49.5199Z" fill="#1C2B35"/>
<path d="M49.38 42.7898C48.35 43.3798 47.53 44.7998 47.53 45.9598C47.53 47.1298 48.37 47.5998 49.39 47.0098C50.42 46.4198 51.24 44.9998 51.24 43.8398C51.24 42.6698 50.4 42.1998 49.38 42.7898Z" fill="#1C2B35"/>
<path d="M38.4402 30.7598C39.4702 31.3498 41.1202 31.3498 42.1402 30.7598C43.1602 30.1698 43.1502 29.2198 42.1302 28.6398C41.1002 28.0498 39.4502 28.0498 38.4302 28.6398C37.4102 29.2298 37.4202 30.1798 38.4402 30.7598Z" fill="#1C2B35"/>
<path d="M58.9702 32.9799V32.2799C58.9702 31.3299 58.7201 30.3899 58.2401 29.5599C57.7601 28.7299 57.0701 28.0399 56.2401 27.5699L43.0802 19.9899C41.3702 19.0099 39.2501 19.0099 37.5401 19.9899L24.3801 27.5699C23.5501 28.0499 22.8601 28.7399 22.3801 29.5599C21.9001 30.3899 21.6501 31.3299 21.6501 32.2799V32.9799V47.5199C21.6501 48.4699 21.9101 49.3999 22.3801 50.2199C22.8601 51.0399 23.5401 51.7299 24.3701 52.1999H24.3902L37.5502 59.7799C38.4002 60.2699 39.3601 60.5199 40.3201 60.5199C41.2801 60.5199 42.2301 60.2699 43.0901 59.7799L56.2502 52.1999H56.2701C57.0901 51.7199 57.7802 51.0399 58.2602 50.2199C58.7402 49.3999 58.9901 48.4699 58.9901 47.5199V32.9799H58.9702ZM38.4001 21.4599C38.9901 21.1199 39.6402 20.9499 40.3002 20.9499C40.9602 20.9499 41.6101 21.1199 42.2001 21.4599L55.3102 29.0199C55.6502 29.2199 55.6902 29.5499 55.6902 29.6799C55.6902 29.8099 55.6502 30.1399 55.3102 30.3299L45.4102 36.0299L42.1801 37.8899C41.0101 38.5599 39.5602 38.5599 38.3902 37.8899L27.3701 31.5399L25.2701 30.3299C24.9301 30.1299 24.8902 29.7999 24.8902 29.6699C24.8902 29.5399 24.9301 29.2099 25.2701 29.0099L38.3902 21.4499L38.4001 21.4599ZM23.3701 32.9699C23.3701 32.4399 23.7302 32.1799 23.8902 32.0899C24.0502 31.9999 24.4602 31.8199 24.9202 32.0899L26.0901 32.7599L37.5302 39.3499L38.9202 40.1499C39.2402 40.3299 39.4301 40.6699 39.4301 41.0299V57.1099C39.4301 57.6399 39.0702 57.9099 38.9102 57.9999C38.7502 58.0899 38.3401 58.2699 37.8801 57.9999L25.2401 50.7099C24.0801 50.0399 23.3602 48.7999 23.3602 47.4799V32.9599L23.3701 32.9699ZM55.3601 50.7299L42.7202 58.0199C42.2502 58.2899 41.8402 58.1099 41.6902 58.0199C41.5302 57.9299 41.1702 57.6699 41.1702 57.1299V41.0499C41.1702 40.6899 41.3701 40.3499 41.6801 40.1699L43.0701 39.3699L46.1702 37.5799L55.6801 32.0999C56.1501 31.8299 56.5601 32.0099 56.7101 32.0999C56.8601 32.1899 57.2202 32.4499 57.2302 32.9799V47.4999C57.2302 48.8299 56.5102 50.0699 55.3502 50.7299H55.3601Z" fill="#1C2B35"/>
<path d="M20.8201 52.0801L13.2701 65.3201C12.7801 66.1801 13.7401 67.1401 14.6101 66.6501L30.5401 57.7401L20.8201 52.0701V52.0801Z" fill="#1C2B35"/>
<path d="M48.3201 22.99L48.3101 23L50.0001 23.97L48.3201 22.99Z" fill="#1C2B35"/>
<path d="M65.9901 13.11L50.0701 22.01L59.7901 27.67L67.33 14.44C67.82 13.58 66.8601 12.62 65.9901 13.11Z" fill="#1C2B35"/>
<path d="M30.5401 22.01L14.6201 13.11C13.7501 12.62 12.7801 13.58 13.2801 14.44L20.8201 27.67L30.5401 22.01Z" fill="#1C2B35"/>
<path d="M31.1602 23.65L32.2901 23V22.99L31.1602 23.65Z" fill="#1C2B35"/>
<path d="M67.33 65.3201L59.7801 52.0701L50.05 57.7401L65.9801 66.6501C66.8501 67.1401 67.8201 66.1801 67.3201 65.3201H67.33Z" fill="#1C2B35"/>
<path d="M21.8299 14.85C27.0999 11.02 33.4199 8.95996 40.0499 8.95996C46.6799 8.95996 53.1799 11.08 58.4899 15.01L60.3899 13.95C54.5999 9.41995 47.5099 6.95996 40.0499 6.95996C32.5899 6.95996 25.6699 9.35996 19.9199 13.79L21.8299 14.86V14.85Z" fill="#1C2B35"/>
<path d="M66.4298 20.0601L65.3499 21.9601C69.1099 27.2001 71.1498 33.4701 71.1498 40.0501C71.1498 46.6301 69.1598 52.7801 65.4598 57.9901L66.5399 59.8901C70.8299 54.2001 73.1498 47.3001 73.1498 40.0501C73.1498 32.8001 70.7898 25.7901 66.4398 20.0601H66.4298Z" fill="#1C2B35"/>
<path d="M14.93 58.3799C11.05 53.0899 8.95996 46.73 8.95996 40.05C8.95996 33.37 11.09 26.8899 15.04 21.5799L13.96 19.6899C9.41996 25.4799 6.95996 32.58 6.95996 40.05C6.95996 47.52 9.37996 54.4999 13.85 60.2699L14.93 58.3799Z" fill="#1C2B35"/>
<path d="M58.7499 64.8999C53.3899 68.9499 46.8899 71.1399 40.0599 71.1399C33.2299 71.1399 26.8999 69.0099 21.5799 65.0599L19.6799 66.1199C25.4799 70.6699 32.5799 73.1399 40.0599 73.1399C47.5399 73.1399 54.8099 70.6099 60.6499 65.9599L58.7599 64.8999H58.7499Z" fill="#1C2B35"/>
</svg>
