<svg width="67" height="67" viewBox="0 0 67 67" fill="none" xmlns="http://www.w3.org/2000/svg">
<path d="M66.4969 6.2825V29.6525C65.8369 32.7825 63.5269 35.2025 60.3069 35.6725C53.5469 34.9125 41.9569 38.8925 40.4369 29.2725C40.8169 21.9825 39.9169 14.1625 40.4369 6.9325C40.6869 3.3825 43.4669 0.4825 47.0269 0.2025C50.4569 -0.0675 56.4869 -0.0675 59.9169 0.2025C63.0469 0.4525 66.0969 3.11251 66.4969 6.27251V6.2825ZM49.4269 7.35249C46.9869 7.76249 46.9169 11.4825 49.3069 11.9825C50.4869 12.2325 56.0869 12.2125 57.3669 12.0325C59.9469 11.6825 60.0369 7.8825 57.6069 7.3725C56.4969 7.1425 50.5869 7.1425 49.4169 7.3425L49.4269 7.35249ZM49.4269 15.6425C46.9869 16.0525 46.9169 19.7725 49.3069 20.2725C50.4869 20.5225 56.0869 20.5025 57.3669 20.3225C59.9469 19.9725 60.0369 16.1725 57.6069 15.6625C56.4969 15.4325 50.5869 15.4325 49.4169 15.6325L49.4269 15.6425ZM49.4269 23.9225C46.9869 24.3325 46.9169 28.0525 49.3069 28.5525C50.4869 28.8025 56.0869 28.7825 57.3669 28.6025C59.9469 28.2525 60.0369 24.4525 57.6069 23.9425C56.4969 23.7125 50.5869 23.7125 49.4169 23.9125L49.4269 23.9225Z" fill="#172C36"/>
<path d="M66.4968 46.5226V60.4326C65.8368 63.5926 63.5868 65.8326 60.4268 66.5026H41.7768C32.5868 64.4826 36.5469 53.4826 35.7269 46.7726C36.1369 43.5126 38.8468 40.7726 42.1468 40.4726C47.8668 39.9426 54.3868 40.8426 60.1868 40.4926C63.1868 40.7926 66.1168 43.5426 66.4968 46.5426V46.5226ZM48.2468 48.7726C47.4768 48.9126 46.6068 49.7426 46.4268 50.5026C46.2168 51.3926 46.2568 55.0526 46.3668 56.0626C46.5068 57.3826 47.6268 58.3126 48.9568 58.2126C49.6268 58.1626 54.3469 55.8126 54.9469 55.3126C55.9869 54.4326 56.1869 53.0826 55.3169 52.0026C54.7969 51.3526 49.7668 48.7926 48.9568 48.7326C48.7168 48.7126 48.4869 48.7326 48.2569 48.7726H48.2468Z" fill="#172C36"/>
<path d="M2.9769 66.4925H1.9369C0.986895 66.0325 0.186896 65.3325 0.156896 64.2025C0.546896 58.6225 -0.343104 52.3925 0.156896 46.8925C0.456896 43.5925 3.20689 40.8825 6.46689 40.4725C12.2569 40.7425 18.4769 40.0425 24.2169 40.4525C27.7569 40.7025 30.6669 43.4725 30.9469 47.0325C31.1269 49.3225 31.1969 55.3425 30.4169 57.3125C29.5069 59.6325 27.1269 61.4725 24.6269 61.7325C20.1069 62.2025 14.9069 61.3925 10.3169 61.7825L2.95688 66.4825L2.9769 66.4925Z" fill="#172C36"/>
<path d="M35.697 22.5626L26.727 16.8026L25.367 16.9026L19.357 20.7626L13.697 15.1626C12.947 14.4526 11.957 14.4226 10.997 14.6826L0.146973 22.7026V6.35262C0.146973 3.22262 3.93698 0.412625 6.87698 0.202625C14.367 -0.317375 22.697 0.452622 30.227 0.402622C32.607 0.732622 35.677 3.99262 35.677 6.35262V22.5526L35.697 22.5626Z" fill="#172C36"/>
<path d="M22.817 24.4826C22.707 24.3226 25.747 22.2626 25.937 22.1926C26.097 22.1326 26.237 22.0626 26.407 22.1426L35.627 28.3326C35.957 32.2126 32.787 35.4726 28.967 35.7326C21.697 36.2426 13.807 35.3526 6.477 35.7126C3.597 35.3226 1.10697 33.2426 0.386973 30.4026C0.236973 29.8226 -0.0430064 28.9626 0.376994 28.4626L11.787 19.9226L19.847 28.1126C22.187 30.0626 25.197 27.1226 23.237 24.7226C23.127 24.5826 22.997 24.4726 22.817 24.4826Z" fill="#172C36"/>
</svg>
