<svg width="58" height="58" viewBox="0 0 58 58" fill="none" xmlns="http://www.w3.org/2000/svg">
<path d="M23.78 0C25.84 0.66 24.84 2.85 25.13 4.34C25.19 4.67 26.47 5.04001 26.85 5.17001C28.18 4.15001 29.3 1.74999 31.21 3.20999C32.25 3.99999 35.59 7.35999 36.38 8.39999C37.19 9.45999 36.87 10.4 35.85 11.13C34.21 11.31 32.28 10.86 30.72 11.4C29.16 11.94 27.78 13.53 27.48 15.2L26.25 13.57C17.59 5.49001 5.43001 17.15 13.42 26.06L15.21 27.48C13.25 27.8 11.36 29.71 11.16 31.71C11.04 32.94 11.32 34.47 11.16 35.66C11.05 36.52 9.47001 37.21 8.73001 36.61C7.13001 34.88 4.61001 33.03 3.21001 31.2C1.74001 29.29 4.15001 28.17 5.17001 26.84C5.04001 26.47 4.67001 25.18 4.34001 25.12C2.85001 24.84 0.66 25.83 0 23.77V15.77C0.1 15.4 0.810008 14.53 1.18001 14.53H4.5L5.16 12.7C3.98 11.15 1.61001 10.32 3.37001 8.17001C4.32001 7.00001 7.04001 4.26002 8.21001 3.33002C10.31 1.66002 11.19 4.05001 12.68 5.17001L14.51 4.51001V1.19C14.51 0.810002 15.38 0.11001 15.75 0.0100098H23.75L23.78 0Z" fill="#FED700"/>
<path d="M41.3601 18.9L44.4501 20.12C45.8701 18.96 46.9301 16.6601 48.9601 18.3501C49.9601 19.1801 53.3601 22.47 54.0201 23.43C54.5801 24.25 54.5401 24.9501 53.9701 25.7301C53.5601 26.2901 52.4601 27.03 52.1601 27.53C52.1001 27.63 52.0201 27.7 52.0701 27.84L53.2901 30.69C54.8401 30.92 57.4701 30.1 57.6901 32.37C57.9301 34.76 57.5201 37.5701 57.6601 40.0101C57.1501 42.1401 54.7001 40.98 53.2401 41.44L52.0701 44.5201C52.9901 45.7701 55.3601 46.85 54.0301 48.66C52.6801 50.4901 50.0501 52.2801 48.5601 54.1101C48.0001 54.4601 47.3901 54.5 46.8001 54.19C46.1001 53.82 45.3101 52.5 44.6901 52.1301C44.5901 52.07 44.5201 51.9901 44.3801 52.0401L41.4201 53.2601C41.1301 54.8801 42.1501 57.4501 39.7401 57.66C37.3201 57.87 34.5601 57.5101 32.1001 57.6301C30.0701 57.0101 31.0801 54.7 30.6701 53.21L27.7101 52.0401C26.3701 53.1001 25.3001 55.3701 23.3501 53.8901C22.4201 53.1801 18.8401 49.61 18.1901 48.69C16.8701 46.82 19.1701 45.7 20.1701 44.43L18.9501 41.34C17.4601 41.13 15.4601 41.9601 14.6201 40.3201L14.6001 31.9501C15.2401 30.0801 17.4601 30.9401 18.9501 30.7301L20.1901 27.6701C19.1901 26.3601 16.7901 25.25 18.2901 23.37C19.2001 22.23 22.3401 19.06 23.4701 18.19C25.3601 16.74 26.4501 19.31 27.7901 20.15L30.7801 18.91C30.9601 17.43 30.1301 14.74 32.3101 14.53C34.7601 14.29 37.5901 14.72 40.0901 14.53C42.0801 15.05 41.1801 17.39 41.3901 18.91L41.3601 18.9ZM35.7001 25.37C30.4201 25.54 26.2501 29.34 25.4901 34.53C24.1601 43.66 34.2501 50.0901 41.9801 45.0501C50.9201 39.2101 46.7001 25.02 35.7001 25.37Z" fill="#FED700"/>
<path d="M22.3199 14.7501C22.3799 15.0201 22.2699 14.9301 22.1699 15.0001C19.8399 16.6101 18.0699 18.8401 16.0099 20.7701L14.8899 22.2401C13.1099 18.9501 15.2199 15.0201 18.8099 14.3301C20.1399 14.0701 21.0699 14.3301 22.3199 14.7501Z" fill="#FED700"/>
<path d="M35.2501 28.7399C45.1601 27.7199 46.2901 42.5699 36.9001 43.3399C26.7901 44.1699 26.0601 29.6799 35.2501 28.7399Z" fill="#FED700"/>
</svg>
