<svg width="48" height="44" viewBox="0 0 48 44" fill="none" xmlns="http://www.w3.org/2000/svg">
<path d="M0 30.046C0 29.6017 0 28.8242 0 28.3798C0.777563 20.271 11.8856 17.716 16.1067 24.9362C20.3277 32.1565 16.551 33.7115 13.8851 37.3772C11.2191 41.0429 10.5526 41.2651 8.77535 43.0424C6.99806 41.4873 5.44293 39.821 3.99889 37.9326C2.44376 35.9331 0.444312 32.7118 0.11107 30.157L0 30.046ZM8.33104 26.4913C4.77646 26.8245 5.22078 32.2674 8.77535 32.0453C12.3299 31.8231 12.2189 26.0469 8.33104 26.4913Z" fill="#FED700"/>
<path d="M38.434 0.0541197C41.4332 -0.279122 44.3213 0.942655 46.0985 3.27535C51.4304 10.0513 44.0991 17.8268 39.4337 22.3811C37.5453 20.7149 35.768 18.8267 34.2129 16.7162C31.547 13.0505 29.3254 8.71818 31.8802 4.27496C34.4351 -0.168258 35.768 0.276281 38.434 0.0541197ZM39.1005 5.94117C35.1016 6.27441 36.3234 12.7172 40.3223 11.3843C43.4326 10.3846 42.4329 5.60793 39.1005 5.94117Z" fill="#FED700"/>
<path d="M33.7684 19.0489V21.8259H25.6596C25.3263 21.8259 24.3266 22.3813 23.9933 22.6034C21.2163 24.8251 22.7715 29.0461 26.326 29.2683C29.8806 29.4904 37.6562 27.6021 40.2111 32.934C42.766 38.2658 39.2114 42.3758 34.6571 42.3758H14.3293V39.5988H34.4349C36.3233 39.5988 38.1006 37.7106 38.1006 35.8222C38.1006 33.9338 36.6565 32.2676 34.8792 32.1565C31.5468 31.8232 26.215 32.9341 23.3269 31.379C19.1058 29.0463 18.6615 23.159 22.6604 20.2709C26.6593 17.3828 24.7709 19.0489 25.5485 19.0489H33.9906H33.7684Z" fill="#FED700"/>
</svg>
