<svg width="49" height="49" viewBox="0 0 49 49" fill="none" xmlns="http://www.w3.org/2000/svg">
<path d="M4.71547 0.00688049C7.02547 0.29688 8.42547 2.55688 8.19547 4.75688C8.15547 5.12688 7.83548 5.66688 7.95548 5.92688L14.4955 12.4769C14.5355 12.6369 14.1655 12.8069 14.0555 12.8769C13.4255 13.2869 12.6655 13.6169 12.0155 14.0169L5.93547 7.95688C5.67547 7.83688 5.13547 8.15687 4.76547 8.19687C-0.264525 8.71687 -1.78453 2.10687 2.61547 0.306868C2.91547 0.186868 3.23547 0.176875 3.49547 0.016875C3.88547 0.046875 4.33547 -0.033125 4.71547 0.016875V0.00688049Z" fill="white"/>
<path d="M44.7056 0.00683594C46.5656 0.426836 47.8156 1.70682 48.1856 3.58682C48.1556 3.94682 48.2356 4.36683 48.1856 4.71683C47.8856 7.02683 45.6556 8.42682 43.4356 8.19682C43.0656 8.15682 42.5256 7.83683 42.2656 7.95683L36.2356 13.9868L33.7456 12.6168L33.7956 12.3768L40.2456 5.92683C40.3656 5.66683 40.0456 5.12684 40.0056 4.75684C39.7756 2.55684 41.1756 0.296836 43.4856 0.00683594H44.7056Z" fill="white"/>
<path d="M48.1856 43.4769C48.2156 43.7369 48.2156 44.3469 48.1856 44.6069C47.5456 49.7069 39.4856 49.2369 39.9956 43.5169C40.0256 43.1269 40.3456 42.4869 40.2356 42.2569L33.6956 35.6269L35.9556 34.2969H36.3355L42.2656 40.2369C42.4556 40.3269 43.1256 40.0469 43.4356 39.9969C45.6256 39.7069 47.8956 41.2069 48.1856 43.4769Z" fill="white"/>
<path d="M36.0456 31.0569L25.5156 37.0769V24.8469L36.0456 18.8169V31.0569Z" fill="white"/>
<path d="M22.6855 24.8469V37.0769L12.1555 31.0569V18.8169L22.6855 24.8469Z" fill="white"/>
<path d="M34.5455 16.2869L24.1355 22.4769L13.6655 16.3269L24.0655 10.3469C27.6055 12.2069 30.9955 14.4069 34.5455 16.2769V16.2869Z" fill="white"/>
<path d="M12.0055 34.1868C12.7055 34.6368 13.6955 35.0168 14.3455 35.4868C14.4255 35.5468 14.5255 35.5768 14.4955 35.7068L7.95555 42.2568C7.83555 42.5168 8.15555 43.0568 8.19555 43.4268C8.73555 48.6068 1.82554 49.9168 0.245543 45.4468C-0.804457 42.4668 1.66555 39.5868 4.75555 39.9968C5.06555 40.0368 5.73554 40.3168 5.92554 40.2368L11.9955 34.1868H12.0055Z" fill="white"/>
</svg>
