<svg width="516" height="527" viewBox="0 0 516 527" fill="none" xmlns="http://www.w3.org/2000/svg">
<g clip-path="url(#clip0_474_12694)">
<path d="M247.81 477.57C364.419 477.57 458.95 383.039 458.95 266.43C458.95 149.821 364.419 55.29 247.81 55.29C131.201 55.29 36.6699 149.821 36.6699 266.43C36.6699 383.039 131.201 477.57 247.81 477.57Z" fill="#172C36"/>
<path d="M247.79 266.58L14.72 182.27C5.2 208.59 0 236.98 0 266.58C0 403.43 110.94 514.37 247.79 514.37C268.26 514.37 288.15 511.87 307.18 507.19L247.79 266.58Z" fill="#626B2F"/>
<path d="M515.46 267.25C515.46 119.65 395.81 0 248.21 0C247.56 0 246.92 0.02 246.28 0.02L248.21 267.24L312.26 526.74C428.92 498.04 515.45 392.75 515.45 267.24L515.46 267.25Z" fill="#FED700"/>
<path d="M353.55 246.5C353.783 246.5 353.97 246.593 354.11 246.78C354.297 246.92 354.39 247.107 354.39 247.34V253.01C354.39 253.243 354.297 253.453 354.11 253.64C353.97 253.78 353.783 253.85 353.55 253.85H351.45C351.217 253.85 351.1 253.967 351.1 254.2V265.75C351.1 265.983 351.007 266.193 350.82 266.38C350.68 266.52 350.493 266.59 350.26 266.59H343.82C343.587 266.59 343.377 266.52 343.19 266.38C343.05 266.193 342.98 265.983 342.98 265.75V254.2C342.98 253.967 342.863 253.85 342.63 253.85H325.41C325.177 253.85 324.967 253.78 324.78 253.64C324.64 253.453 324.57 253.243 324.57 253.01V248.46C324.57 248.04 324.617 247.69 324.71 247.41L334.44 218.29C334.58 217.823 334.883 217.59 335.35 217.59H342.35C342.63 217.59 342.84 217.683 342.98 217.87C343.12 218.01 343.143 218.243 343.05 218.57L334.09 246.08C334.043 246.36 334.137 246.5 334.37 246.5H342.63C342.863 246.5 342.98 246.383 342.98 246.15V237.75C342.98 237.517 343.05 237.33 343.19 237.19C343.377 237.003 343.587 236.91 343.82 236.91H350.26C350.493 236.91 350.68 237.003 350.82 237.19C351.007 237.33 351.1 237.517 351.1 237.75V246.15C351.1 246.383 351.217 246.5 351.45 246.5H353.55ZM383.089 246.29C383.369 247.737 383.509 249.463 383.509 251.47C383.509 253.383 383.415 255.017 383.229 256.37C382.995 259.823 381.782 262.483 379.589 264.35C377.395 266.217 374.479 267.15 370.839 267.15C367.385 267.15 364.585 266.263 362.439 264.49C360.292 262.717 358.985 260.057 358.519 256.51L358.309 254.55C358.309 253.99 358.589 253.71 359.149 253.71H365.589C366.149 253.71 366.452 253.99 366.499 254.55C366.499 254.83 366.545 255.25 366.639 255.81C367.199 258.703 368.599 260.15 370.839 260.15C372.005 260.15 372.939 259.777 373.639 259.03C374.385 258.283 374.875 257.233 375.109 255.88C375.295 254.713 375.389 253.22 375.389 251.4C375.389 249.673 375.249 248.18 374.969 246.92C374.735 245.707 374.245 244.773 373.499 244.12C372.799 243.42 371.912 243.07 370.839 243.07C368.599 243.07 367.152 244.143 366.499 246.29C366.359 246.803 366.055 247.06 365.589 247.06H359.079C358.845 247.06 358.635 246.99 358.449 246.85C358.309 246.663 358.239 246.453 358.239 246.22V218.43C358.239 218.197 358.309 218.01 358.449 217.87C358.635 217.683 358.845 217.59 359.079 217.59H381.899C382.132 217.59 382.319 217.683 382.459 217.87C382.645 218.01 382.739 218.197 382.739 218.43V223.75C382.739 223.983 382.645 224.193 382.459 224.38C382.319 224.52 382.132 224.59 381.899 224.59H366.709C366.475 224.59 366.359 224.707 366.359 224.94V238.59C366.359 238.73 366.405 238.823 366.499 238.87C366.592 238.87 366.685 238.823 366.779 238.73C367.572 237.89 368.529 237.237 369.649 236.77C370.815 236.257 372.029 236 373.289 236C376.089 236 378.329 236.91 380.009 238.73C381.735 240.503 382.762 243.023 383.089 246.29ZM399.73 238.31C397.817 238.31 396.044 237.843 394.41 236.91C392.824 235.93 391.564 234.623 390.63 232.99C389.697 231.357 389.23 229.56 389.23 227.6C389.23 225.687 389.697 223.913 390.63 222.28C391.564 220.647 392.824 219.363 394.41 218.43C396.044 217.45 397.817 216.96 399.73 216.96C401.597 216.96 403.324 217.45 404.91 218.43C406.544 219.363 407.827 220.647 408.76 222.28C409.694 223.913 410.16 225.687 410.16 227.6C410.16 229.56 409.694 231.357 408.76 232.99C407.827 234.623 406.567 235.93 404.98 236.91C403.394 237.843 401.644 238.31 399.73 238.31ZM397.35 266.59C397.024 266.59 396.814 266.497 396.72 266.31C396.627 266.123 396.65 265.89 396.79 265.61L422.27 218.15C422.457 217.777 422.807 217.59 423.32 217.59H427.38C427.707 217.59 427.917 217.683 428.01 217.87C428.104 218.057 428.08 218.29 427.94 218.57L402.46 266.03C402.274 266.403 401.924 266.59 401.41 266.59H397.35ZM399.73 233.97C401.41 233.97 402.81 233.363 403.93 232.15C405.097 230.89 405.68 229.373 405.68 227.6C405.68 225.873 405.097 224.403 403.93 223.19C402.764 221.93 401.364 221.3 399.73 221.3C398.05 221.3 396.627 221.907 395.46 223.12C394.294 224.333 393.71 225.827 393.71 227.6C393.71 229.373 394.294 230.89 395.46 232.15C396.627 233.363 398.05 233.97 399.73 233.97ZM425.21 267.22C423.297 267.22 421.547 266.753 419.96 265.82C418.374 264.84 417.114 263.533 416.18 261.9C415.247 260.267 414.78 258.47 414.78 256.51C414.78 254.597 415.247 252.823 416.18 251.19C417.114 249.557 418.374 248.273 419.96 247.34C421.547 246.36 423.297 245.87 425.21 245.87C427.124 245.87 428.874 246.36 430.46 247.34C432.047 248.273 433.307 249.557 434.24 251.19C435.174 252.823 435.64 254.597 435.64 256.51C435.64 258.47 435.174 260.267 434.24 261.9C433.307 263.533 432.047 264.84 430.46 265.82C428.874 266.753 427.124 267.22 425.21 267.22ZM425.21 262.88C426.89 262.88 428.314 262.273 429.48 261.06C430.647 259.8 431.23 258.283 431.23 256.51C431.23 254.737 430.647 253.243 429.48 252.03C428.314 250.817 426.89 250.21 425.21 250.21C423.53 250.21 422.107 250.817 420.94 252.03C419.774 253.243 419.19 254.737 419.19 256.51C419.19 258.283 419.774 259.8 420.94 261.06C422.107 262.273 423.53 262.88 425.21 262.88Z" fill="#172C36"/>
<path d="M333.286 280.341C333.376 280.198 333.511 280.126 333.69 280.126H336.167C336.257 280.126 336.328 280.162 336.382 280.233C336.454 280.287 336.49 280.359 336.49 280.449V298.647C336.49 298.736 336.454 298.817 336.382 298.889C336.328 298.943 336.257 298.97 336.167 298.97H333.69C333.601 298.97 333.52 298.943 333.448 298.889C333.394 298.817 333.367 298.736 333.367 298.647V285.94C333.367 285.869 333.349 285.833 333.313 285.833C333.277 285.833 333.242 285.86 333.206 285.914L330.864 290.167C330.774 290.31 330.693 290.382 330.621 290.382C330.55 290.382 330.469 290.31 330.379 290.167L328.037 285.914C328.001 285.86 327.965 285.833 327.929 285.833C327.893 285.833 327.876 285.869 327.876 285.94V298.647C327.876 298.736 327.84 298.817 327.768 298.889C327.714 298.943 327.642 298.97 327.552 298.97H325.076C324.986 298.97 324.905 298.943 324.834 298.889C324.78 298.817 324.753 298.736 324.753 298.647V280.449C324.753 280.359 324.78 280.287 324.834 280.233C324.905 280.162 324.986 280.126 325.076 280.126H327.552C327.732 280.126 327.867 280.198 327.956 280.341L330.568 284.944C330.621 285.016 330.675 285.016 330.729 284.944L333.286 280.341ZM346.964 298.97C346.749 298.97 346.632 298.871 346.614 298.674L346.103 295.847C346.103 295.757 346.049 295.712 345.941 295.712H342.011C341.903 295.712 341.849 295.757 341.849 295.847L341.338 298.674C341.32 298.871 341.203 298.97 340.988 298.97H338.538C338.287 298.97 338.188 298.853 338.242 298.62L342.226 280.422C342.262 280.224 342.379 280.126 342.576 280.126H345.43C345.627 280.126 345.744 280.224 345.78 280.422L349.764 298.62V298.727C349.764 298.889 349.665 298.97 349.468 298.97H346.964ZM342.334 293.128C342.316 293.218 342.361 293.263 342.468 293.263H345.457C345.564 293.263 345.609 293.218 345.591 293.128L344.03 284.621C344.012 284.568 343.985 284.541 343.949 284.541C343.913 284.541 343.886 284.568 343.868 284.621L342.334 293.128ZM359.053 298.97C358.873 298.97 358.757 298.88 358.703 298.701L356.415 290.974C356.379 290.903 356.334 290.867 356.28 290.867H354.853C354.763 290.867 354.719 290.912 354.719 291.001V298.647C354.719 298.736 354.683 298.817 354.611 298.889C354.557 298.943 354.485 298.97 354.396 298.97H351.919C351.829 298.97 351.748 298.943 351.677 298.889C351.623 298.817 351.596 298.736 351.596 298.647V280.449C351.596 280.359 351.623 280.287 351.677 280.233C351.748 280.162 351.829 280.126 351.919 280.126H356.98C357.931 280.126 358.766 280.359 359.483 280.826C360.219 281.274 360.785 281.92 361.179 282.764C361.592 283.589 361.799 284.541 361.799 285.617C361.799 286.73 361.583 287.69 361.152 288.498C360.722 289.305 360.12 289.916 359.349 290.328C359.277 290.346 359.25 290.4 359.268 290.49L361.906 298.593C361.924 298.629 361.933 298.674 361.933 298.727C361.933 298.889 361.834 298.97 361.637 298.97H359.053ZM354.853 282.818C354.763 282.818 354.719 282.863 354.719 282.952V288.309C354.719 288.399 354.763 288.444 354.853 288.444H356.495C357.141 288.444 357.662 288.193 358.057 287.69C358.469 287.188 358.676 286.506 358.676 285.644C358.676 284.783 358.469 284.101 358.057 283.598C357.662 283.078 357.141 282.818 356.495 282.818H354.853ZM364.327 298.97C364.238 298.97 364.157 298.943 364.085 298.889C364.031 298.817 364.004 298.736 364.004 298.647V280.449C364.004 280.359 364.031 280.287 364.085 280.233C364.157 280.162 364.238 280.126 364.327 280.126H366.804C366.894 280.126 366.965 280.162 367.019 280.233C367.091 280.287 367.127 280.359 367.127 280.449V287.879C367.127 287.95 367.145 287.995 367.181 288.013C367.217 288.013 367.253 287.986 367.289 287.933L371.327 280.368C371.416 280.206 371.551 280.126 371.73 280.126H374.395C374.521 280.126 374.602 280.162 374.638 280.233C374.674 280.305 374.665 280.395 374.611 280.503L370.573 288.067C370.555 288.139 370.546 288.193 370.546 288.229L374.907 298.593C374.925 298.629 374.934 298.683 374.934 298.754C374.934 298.898 374.844 298.97 374.665 298.97H372C371.802 298.97 371.676 298.889 371.623 298.727L368.446 290.948C368.428 290.894 368.401 290.876 368.365 290.894C368.329 290.894 368.294 290.912 368.258 290.948L367.181 292.751C367.145 292.823 367.127 292.877 367.127 292.913V298.647C367.127 298.736 367.091 298.817 367.019 298.889C366.965 298.943 366.894 298.97 366.804 298.97H364.327ZM386.228 282.495C386.228 282.584 386.193 282.665 386.121 282.737C386.067 282.791 385.995 282.818 385.905 282.818H380.091C380.001 282.818 379.956 282.863 379.956 282.952V288.04C379.956 288.13 380.001 288.175 380.091 288.175H383.536C383.626 288.175 383.698 288.211 383.752 288.282C383.824 288.336 383.859 288.408 383.859 288.498V290.571C383.859 290.66 383.824 290.741 383.752 290.813C383.698 290.867 383.626 290.894 383.536 290.894H380.091C380.001 290.894 379.956 290.939 379.956 291.028V296.143C379.956 296.233 380.001 296.278 380.091 296.278H385.905C385.995 296.278 386.067 296.314 386.121 296.385C386.193 296.439 386.228 296.511 386.228 296.601V298.647C386.228 298.736 386.193 298.817 386.121 298.889C386.067 298.943 385.995 298.97 385.905 298.97H377.156C377.067 298.97 376.986 298.943 376.914 298.889C376.86 298.817 376.833 298.736 376.833 298.647V280.449C376.833 280.359 376.86 280.287 376.914 280.233C376.986 280.162 377.067 280.126 377.156 280.126H385.905C385.995 280.126 386.067 280.162 386.121 280.233C386.193 280.287 386.228 280.359 386.228 280.449V282.495ZM398.196 280.126C398.286 280.126 398.358 280.162 398.412 280.233C398.483 280.287 398.519 280.359 398.519 280.449V282.495C398.519 282.584 398.483 282.665 398.412 282.737C398.358 282.791 398.286 282.818 398.196 282.818H394.777C394.688 282.818 394.643 282.863 394.643 282.952V298.647C394.643 298.736 394.607 298.817 394.535 298.889C394.481 298.943 394.409 298.97 394.32 298.97H391.843C391.753 298.97 391.673 298.943 391.601 298.889C391.547 298.817 391.52 298.736 391.52 298.647V282.952C391.52 282.863 391.475 282.818 391.385 282.818H388.155C388.065 282.818 387.985 282.791 387.913 282.737C387.859 282.665 387.832 282.584 387.832 282.495V280.449C387.832 280.359 387.859 280.287 387.913 280.233C387.985 280.162 388.065 280.126 388.155 280.126H398.196ZM401.027 298.97C400.937 298.97 400.856 298.943 400.785 298.889C400.731 298.817 400.704 298.736 400.704 298.647V280.449C400.704 280.359 400.731 280.287 400.785 280.233C400.856 280.162 400.937 280.126 401.027 280.126H403.503C403.593 280.126 403.665 280.162 403.719 280.233C403.791 280.287 403.827 280.359 403.827 280.449V298.647C403.827 298.736 403.791 298.817 403.719 298.889C403.665 298.943 403.593 298.97 403.503 298.97H401.027ZM414.369 280.449C414.369 280.359 414.396 280.287 414.45 280.233C414.522 280.162 414.603 280.126 414.692 280.126H417.142C417.232 280.126 417.304 280.162 417.357 280.233C417.429 280.287 417.465 280.359 417.465 280.449V298.647C417.465 298.736 417.429 298.817 417.357 298.889C417.304 298.943 417.232 298.97 417.142 298.97H414.315C414.136 298.97 414.019 298.88 413.965 298.701L409.954 287.286C409.936 287.233 409.901 287.215 409.847 287.233C409.811 287.233 409.793 287.26 409.793 287.313L409.82 298.647C409.82 298.736 409.784 298.817 409.712 298.889C409.658 298.943 409.586 298.97 409.497 298.97H407.047C406.957 298.97 406.877 298.943 406.805 298.889C406.751 298.817 406.724 298.736 406.724 298.647V280.449C406.724 280.359 406.751 280.287 406.805 280.233C406.877 280.162 406.957 280.126 407.047 280.126H409.82C409.999 280.126 410.116 280.215 410.17 280.395L414.208 291.728C414.226 291.782 414.253 291.809 414.289 291.809C414.342 291.791 414.369 291.755 414.369 291.701V280.449ZM425.106 299.185C423.58 299.185 422.351 298.745 421.418 297.866C420.503 296.969 420.045 295.784 420.045 294.313V284.783C420.045 283.311 420.503 282.136 421.418 281.256C422.351 280.359 423.58 279.91 425.106 279.91C426.631 279.91 427.861 280.359 428.794 281.256C429.745 282.136 430.221 283.32 430.221 284.81V285.86C430.221 285.949 430.185 286.03 430.113 286.102C430.059 286.156 429.987 286.183 429.898 286.183H427.421C427.331 286.183 427.251 286.156 427.179 286.102C427.125 286.03 427.098 285.949 427.098 285.86V284.756C427.098 284.11 426.91 283.589 426.533 283.195C426.174 282.8 425.698 282.602 425.106 282.602C424.514 282.602 424.038 282.8 423.679 283.195C423.32 283.589 423.141 284.11 423.141 284.756V294.339C423.141 294.986 423.32 295.506 423.679 295.901C424.038 296.296 424.514 296.493 425.106 296.493C425.698 296.493 426.174 296.296 426.533 295.901C426.91 295.506 427.098 294.986 427.098 294.339V291.755C427.098 291.665 427.053 291.621 426.963 291.621H425.321C425.232 291.621 425.151 291.594 425.079 291.54C425.025 291.468 424.998 291.387 424.998 291.298V289.332C424.998 289.243 425.025 289.171 425.079 289.117C425.151 289.045 425.232 289.009 425.321 289.009H429.898C429.987 289.009 430.059 289.045 430.113 289.117C430.185 289.171 430.221 289.243 430.221 289.332V294.313C430.221 295.784 429.745 296.969 428.794 297.866C427.861 298.745 426.631 299.185 425.106 299.185ZM451.248 298.566C451.302 298.638 451.329 298.709 451.329 298.781C451.329 298.907 451.239 298.97 451.06 298.97H448.395C448.233 298.97 448.099 298.907 447.991 298.781L447.21 297.731C447.156 297.678 447.094 297.669 447.022 297.704C445.73 298.709 444.249 299.212 442.58 299.212C441.037 299.212 439.816 298.817 438.919 298.028C438.039 297.238 437.6 296.089 437.6 294.582C437.6 293.397 437.869 292.392 438.407 291.567C438.946 290.723 439.682 289.934 440.615 289.198C440.687 289.144 440.696 289.081 440.642 289.009C439.78 287.807 439.224 286.928 438.973 286.371C438.721 285.797 438.596 285.178 438.596 284.514C438.596 283.114 439.009 282.001 439.834 281.176C440.678 280.332 441.79 279.91 443.172 279.91C444.087 279.91 444.904 280.108 445.622 280.503C446.34 280.879 446.905 281.418 447.318 282.118C447.731 282.818 447.937 283.625 447.937 284.541C447.937 285.653 447.65 286.613 447.076 287.421C446.519 288.211 445.757 288.973 444.787 289.709C444.716 289.763 444.707 289.826 444.76 289.898C444.832 290.005 445.173 290.472 445.783 291.298L447.183 293.209C447.219 293.245 447.255 293.263 447.291 293.263C447.327 293.263 447.354 293.245 447.372 293.209C447.82 292.581 448.233 291.899 448.61 291.163C448.718 290.966 448.87 290.921 449.068 291.028L450.898 292.078C451.078 292.204 451.114 292.347 451.006 292.509C450.396 293.675 449.768 294.689 449.122 295.551C449.068 295.623 449.059 295.685 449.095 295.739C449.543 296.296 450.261 297.238 451.248 298.566ZM443.253 282.737C442.786 282.737 442.409 282.916 442.122 283.275C441.853 283.616 441.719 284.065 441.719 284.621C441.719 285.016 441.781 285.375 441.907 285.698C442.051 286.021 442.383 286.56 442.903 287.313C442.957 287.403 443.02 287.421 443.091 287.367C443.648 286.919 444.07 286.47 444.357 286.021C444.662 285.573 444.814 285.088 444.814 284.568C444.814 284.029 444.662 283.589 444.357 283.248C444.07 282.907 443.702 282.737 443.253 282.737ZM442.876 296.52C443.684 296.52 444.509 296.17 445.353 295.47C445.425 295.416 445.433 295.353 445.38 295.282L444.384 293.99L442.526 291.567C442.472 291.495 442.409 291.486 442.338 291.54C441.261 292.437 440.722 293.37 440.722 294.339C440.722 294.968 440.911 295.488 441.288 295.901C441.665 296.314 442.194 296.52 442.876 296.52Z" fill="#172C36"/>
<path d="M329.571 331.495C328.046 331.495 326.817 331.055 325.883 330.176C324.968 329.279 324.511 328.094 324.511 326.623V317.093C324.511 315.621 324.968 314.446 325.883 313.566C326.817 312.669 328.046 312.22 329.571 312.22C331.097 312.22 332.326 312.669 333.26 313.566C334.211 314.446 334.686 315.63 334.686 317.12V318.17C334.686 318.259 334.65 318.34 334.579 318.412C334.525 318.466 334.453 318.493 334.363 318.493H331.887C331.797 318.493 331.716 318.466 331.644 318.412C331.59 318.34 331.564 318.259 331.564 318.17V317.066C331.564 316.42 331.375 315.899 330.998 315.505C330.639 315.11 330.164 314.912 329.571 314.912C328.979 314.912 328.504 315.11 328.145 315.505C327.786 315.899 327.606 316.42 327.606 317.066V326.65C327.606 327.296 327.786 327.816 328.145 328.211C328.504 328.606 328.979 328.803 329.571 328.803C330.164 328.803 330.639 328.606 330.998 328.211C331.375 327.816 331.564 327.296 331.564 326.65V324.065C331.564 323.975 331.519 323.931 331.429 323.931H329.787C329.697 323.931 329.616 323.904 329.545 323.85C329.491 323.778 329.464 323.697 329.464 323.608V321.642C329.464 321.553 329.491 321.481 329.545 321.427C329.616 321.355 329.697 321.319 329.787 321.319H334.363C334.453 321.319 334.525 321.355 334.579 321.427C334.65 321.481 334.686 321.553 334.686 321.642V326.623C334.686 328.094 334.211 329.279 333.26 330.176C332.326 331.055 331.097 331.495 329.571 331.495ZM344.725 331.28C344.546 331.28 344.429 331.19 344.375 331.011L342.087 323.285C342.051 323.213 342.006 323.177 341.952 323.177H340.526C340.436 323.177 340.391 323.222 340.391 323.311V330.957C340.391 331.046 340.355 331.127 340.283 331.199C340.229 331.253 340.158 331.28 340.068 331.28H337.591C337.502 331.28 337.421 331.253 337.349 331.199C337.295 331.127 337.268 331.046 337.268 330.957V312.759C337.268 312.669 337.295 312.597 337.349 312.543C337.421 312.472 337.502 312.436 337.591 312.436H342.652C343.603 312.436 344.438 312.669 345.156 313.136C345.892 313.584 346.457 314.23 346.852 315.074C347.265 315.899 347.471 316.851 347.471 317.927C347.471 319.04 347.256 320 346.825 320.808C346.394 321.616 345.793 322.226 345.021 322.638C344.949 322.656 344.923 322.71 344.94 322.8L347.579 330.903C347.597 330.939 347.606 330.984 347.606 331.038C347.606 331.199 347.507 331.28 347.309 331.28H344.725ZM340.526 315.128C340.436 315.128 340.391 315.173 340.391 315.262V320.619C340.391 320.709 340.436 320.754 340.526 320.754H342.168C342.814 320.754 343.334 320.503 343.729 320C344.142 319.498 344.348 318.816 344.348 317.954C344.348 317.093 344.142 316.411 343.729 315.908C343.334 315.388 342.814 315.128 342.168 315.128H340.526ZM354.495 331.495C352.952 331.495 351.705 331.029 350.754 330.095C349.82 329.162 349.354 327.924 349.354 326.38V317.335C349.354 315.792 349.82 314.553 350.754 313.62C351.705 312.687 352.952 312.22 354.495 312.22C356.039 312.22 357.286 312.687 358.237 313.62C359.188 314.553 359.664 315.792 359.664 317.335V326.38C359.664 327.924 359.188 329.162 358.237 330.095C357.286 331.029 356.039 331.495 354.495 331.495ZM354.495 328.803C355.106 328.803 355.599 328.597 355.976 328.184C356.353 327.753 356.541 327.197 356.541 326.515V317.201C356.541 316.519 356.353 315.971 355.976 315.559C355.599 315.128 355.106 314.912 354.495 314.912C353.885 314.912 353.392 315.128 353.015 315.559C352.656 315.971 352.476 316.519 352.476 317.201V326.515C352.476 327.197 352.656 327.753 353.015 328.184C353.392 328.597 353.885 328.803 354.495 328.803ZM365.313 331.28C365.098 331.28 364.981 331.181 364.963 330.984L361.383 312.786L361.356 312.678C361.356 312.517 361.455 312.436 361.652 312.436H364.236C364.452 312.436 364.568 312.534 364.586 312.732L366.471 323.958C366.489 324.011 366.515 324.038 366.551 324.038C366.587 324.038 366.614 324.011 366.632 323.958L368.328 312.732C368.346 312.534 368.463 312.436 368.678 312.436H370.832C371.047 312.436 371.164 312.534 371.182 312.732L373.012 323.958C373.03 324.011 373.057 324.038 373.093 324.038C373.129 324.038 373.156 324.011 373.174 323.958L374.87 312.732C374.888 312.534 375.004 312.436 375.22 312.436H377.723C377.956 312.436 378.055 312.552 378.019 312.786L374.6 330.984C374.582 331.181 374.466 331.28 374.25 331.28H371.962C371.747 331.28 371.63 331.181 371.612 330.984L369.809 319.543C369.791 319.471 369.764 319.435 369.728 319.435C369.692 319.435 369.665 319.471 369.647 319.543L367.978 330.984C367.96 331.181 367.844 331.28 367.628 331.28H365.313ZM389.757 312.436C389.847 312.436 389.919 312.472 389.973 312.543C390.045 312.597 390.08 312.669 390.08 312.759V314.805C390.08 314.894 390.045 314.975 389.973 315.047C389.919 315.101 389.847 315.128 389.757 315.128H386.339C386.249 315.128 386.204 315.173 386.204 315.262V330.957C386.204 331.046 386.168 331.127 386.096 331.199C386.042 331.253 385.971 331.28 385.881 331.28H383.404C383.315 331.28 383.234 331.253 383.162 331.199C383.108 331.127 383.081 331.046 383.081 330.957V315.262C383.081 315.173 383.036 315.128 382.947 315.128H379.716C379.627 315.128 379.546 315.101 379.474 315.047C379.42 314.975 379.393 314.894 379.393 314.805V312.759C379.393 312.669 379.42 312.597 379.474 312.543C379.546 312.472 379.627 312.436 379.716 312.436H389.757ZM399.076 312.759C399.076 312.669 399.103 312.597 399.157 312.543C399.228 312.472 399.309 312.436 399.399 312.436H401.875C401.965 312.436 402.037 312.472 402.091 312.543C402.163 312.597 402.198 312.669 402.198 312.759V330.957C402.198 331.046 402.163 331.127 402.091 331.199C402.037 331.253 401.965 331.28 401.875 331.28H399.399C399.309 331.28 399.228 331.253 399.157 331.199C399.103 331.127 399.076 331.046 399.076 330.957V323.338C399.076 323.249 399.031 323.204 398.941 323.204H395.522C395.433 323.204 395.388 323.249 395.388 323.338V330.957C395.388 331.046 395.352 331.127 395.28 331.199C395.226 331.253 395.154 331.28 395.065 331.28H392.588C392.498 331.28 392.418 331.253 392.346 331.199C392.292 331.127 392.265 331.046 392.265 330.957V312.759C392.265 312.669 392.292 312.597 392.346 312.543C392.418 312.472 392.498 312.436 392.588 312.436H395.065C395.154 312.436 395.226 312.472 395.28 312.543C395.352 312.597 395.388 312.669 395.388 312.759V320.35C395.388 320.44 395.433 320.485 395.522 320.485H398.941C399.031 320.485 399.076 320.44 399.076 320.35V312.759Z" fill="#172C36"/>
<path d="M96.93 365.64C97.35 367.507 97.56 369.583 97.56 371.87C97.56 374.157 97.3966 376.117 97.07 377.75C96.51 380.923 95.2266 383.373 93.22 385.1C91.26 386.827 88.5766 387.69 85.17 387.69C81.6233 387.69 78.73 386.757 76.49 384.89C74.25 382.977 72.99 380.387 72.71 377.12C72.6166 376.093 72.5233 374.6 72.43 372.64C72.43 372.08 72.71 371.8 73.27 371.8H79.71C80.27 371.8 80.55 372.08 80.55 372.64C80.6433 374.227 80.7366 375.417 80.83 376.21C81.0633 377.657 81.5533 378.777 82.3 379.57C83.0466 380.317 84.0033 380.69 85.17 380.69C86.29 380.69 87.2233 380.34 87.97 379.64C88.7166 378.893 89.2066 377.843 89.44 376.49C89.6733 375.09 89.79 373.27 89.79 371.03C89.79 368.65 89.6266 366.667 89.3 365.08C89.02 363.867 88.53 362.933 87.83 362.28C87.13 361.627 86.2433 361.3 85.17 361.3C84.47 361.3 83.84 361.51 83.28 361.93C83 362.117 82.79 362.21 82.65 362.21C82.5566 362.21 82.37 362.117 82.09 361.93L78.8 358.57C78.6133 358.383 78.52 358.173 78.52 357.94C78.52 357.753 78.59 357.567 78.73 357.38L87.48 345.48C87.5733 345.387 87.5733 345.293 87.48 345.2C87.4333 345.107 87.34 345.06 87.2 345.06H73.9C73.6666 345.06 73.4566 344.99 73.27 344.85C73.13 344.663 73.06 344.453 73.06 344.22V338.97C73.06 338.737 73.13 338.55 73.27 338.41C73.4566 338.223 73.6666 338.13 73.9 338.13H96.58C96.8133 338.13 97 338.223 97.14 338.41C97.3266 338.55 97.42 338.737 97.42 338.97V344.5C97.42 344.827 97.3033 345.177 97.07 345.55L89.09 356.47C88.9033 356.75 88.95 356.913 89.23 356.96C91.1433 357.193 92.7766 358.103 94.13 359.69C95.53 361.277 96.4633 363.26 96.93 365.64ZM127.855 366.83C128.135 368.277 128.275 370.003 128.275 372.01C128.275 373.923 128.181 375.557 127.995 376.91C127.761 380.363 126.548 383.023 124.355 384.89C122.161 386.757 119.245 387.69 115.605 387.69C112.151 387.69 109.351 386.803 107.205 385.03C105.058 383.257 103.751 380.597 103.285 377.05L103.075 375.09C103.075 374.53 103.355 374.25 103.915 374.25H110.355C110.915 374.25 111.218 374.53 111.265 375.09C111.265 375.37 111.311 375.79 111.405 376.35C111.965 379.243 113.365 380.69 115.605 380.69C116.771 380.69 117.705 380.317 118.405 379.57C119.151 378.823 119.641 377.773 119.875 376.42C120.061 375.253 120.155 373.76 120.155 371.94C120.155 370.213 120.015 368.72 119.735 367.46C119.501 366.247 119.011 365.313 118.265 364.66C117.565 363.96 116.678 363.61 115.605 363.61C113.365 363.61 111.918 364.683 111.265 366.83C111.125 367.343 110.821 367.6 110.355 367.6H103.845C103.611 367.6 103.401 367.53 103.215 367.39C103.075 367.203 103.005 366.993 103.005 366.76V338.97C103.005 338.737 103.075 338.55 103.215 338.41C103.401 338.223 103.611 338.13 103.845 338.13H126.665C126.898 338.13 127.085 338.223 127.225 338.41C127.411 338.55 127.505 338.737 127.505 338.97V344.29C127.505 344.523 127.411 344.733 127.225 344.92C127.085 345.06 126.898 345.13 126.665 345.13H111.475C111.241 345.13 111.125 345.247 111.125 345.48V359.13C111.125 359.27 111.171 359.363 111.265 359.41C111.358 359.41 111.451 359.363 111.545 359.27C112.338 358.43 113.295 357.777 114.415 357.31C115.581 356.797 116.795 356.54 118.055 356.54C120.855 356.54 123.095 357.45 124.775 359.27C126.501 361.043 127.528 363.563 127.855 366.83ZM144.496 358.85C142.583 358.85 140.809 358.383 139.176 357.45C137.589 356.47 136.329 355.163 135.396 353.53C134.463 351.897 133.996 350.1 133.996 348.14C133.996 346.227 134.463 344.453 135.396 342.82C136.329 341.187 137.589 339.903 139.176 338.97C140.809 337.99 142.583 337.5 144.496 337.5C146.363 337.5 148.089 337.99 149.676 338.97C151.309 339.903 152.593 341.187 153.526 342.82C154.459 344.453 154.926 346.227 154.926 348.14C154.926 350.1 154.459 351.897 153.526 353.53C152.593 355.163 151.333 356.47 149.746 357.45C148.159 358.383 146.409 358.85 144.496 358.85ZM142.116 387.13C141.789 387.13 141.579 387.037 141.486 386.85C141.393 386.663 141.416 386.43 141.556 386.15L167.036 338.69C167.223 338.317 167.573 338.13 168.086 338.13H172.146C172.473 338.13 172.683 338.223 172.776 338.41C172.869 338.597 172.846 338.83 172.706 339.11L147.226 386.57C147.039 386.943 146.689 387.13 146.176 387.13H142.116ZM144.496 354.51C146.176 354.51 147.576 353.903 148.696 352.69C149.863 351.43 150.446 349.913 150.446 348.14C150.446 346.413 149.863 344.943 148.696 343.73C147.529 342.47 146.129 341.84 144.496 341.84C142.816 341.84 141.393 342.447 140.226 343.66C139.059 344.873 138.476 346.367 138.476 348.14C138.476 349.913 139.059 351.43 140.226 352.69C141.393 353.903 142.816 354.51 144.496 354.51ZM169.976 387.76C168.063 387.76 166.313 387.293 164.726 386.36C163.139 385.38 161.879 384.073 160.946 382.44C160.013 380.807 159.546 379.01 159.546 377.05C159.546 375.137 160.013 373.363 160.946 371.73C161.879 370.097 163.139 368.813 164.726 367.88C166.313 366.9 168.063 366.41 169.976 366.41C171.889 366.41 173.639 366.9 175.226 367.88C176.813 368.813 178.073 370.097 179.006 371.73C179.939 373.363 180.406 375.137 180.406 377.05C180.406 379.01 179.939 380.807 179.006 382.44C178.073 384.073 176.813 385.38 175.226 386.36C173.639 387.293 171.889 387.76 169.976 387.76ZM169.976 383.42C171.656 383.42 173.079 382.813 174.246 381.6C175.413 380.34 175.996 378.823 175.996 377.05C175.996 375.277 175.413 373.783 174.246 372.57C173.079 371.357 171.656 370.75 169.976 370.75C168.296 370.75 166.873 371.357 165.706 372.57C164.539 373.783 163.956 375.277 163.956 377.05C163.956 378.823 164.539 380.34 165.706 381.6C166.873 382.813 168.296 383.42 169.976 383.42Z" fill="#FED700"/>
<path d="M76.7423 419.725C75.1989 419.725 73.9516 419.259 73.0005 418.325C72.0672 417.392 71.6006 416.154 71.6006 414.61V405.565C71.6006 404.022 72.0672 402.783 73.0005 401.85C73.9516 400.917 75.1989 400.45 76.7423 400.45C78.2857 400.45 79.533 400.917 80.4842 401.85C81.4354 402.783 81.911 404.022 81.911 405.565V414.61C81.911 416.154 81.4354 417.392 80.4842 418.325C79.533 419.259 78.2857 419.725 76.7423 419.725ZM76.7423 417.033C77.3525 417.033 77.8461 416.827 78.2229 416.414C78.5998 415.983 78.7883 415.427 78.7883 414.745V405.431C78.7883 404.749 78.5998 404.201 78.2229 403.788C77.8461 403.358 77.3525 403.142 76.7423 403.142C76.1321 403.142 75.6386 403.358 75.2617 403.788C74.9028 404.201 74.7233 404.749 74.7233 405.431V414.745C74.7233 415.427 74.9028 415.983 75.2617 416.414C75.6386 416.827 76.1321 417.033 76.7423 417.033ZM89.8469 400.639C90.7981 400.639 91.6326 400.872 92.3505 401.339C93.0863 401.805 93.6516 402.46 94.0464 403.304C94.4592 404.147 94.6656 405.108 94.6656 406.184C94.6656 407.8 94.2349 409.101 93.3734 410.088C92.5299 411.075 91.4083 411.568 90.0084 411.568H87.7202C87.6305 411.568 87.5856 411.613 87.5856 411.703V419.187C87.5856 419.276 87.5497 419.357 87.4779 419.429C87.4241 419.483 87.3523 419.51 87.2626 419.51H84.7859C84.6962 419.51 84.6154 419.483 84.5437 419.429C84.4898 419.357 84.4629 419.276 84.4629 419.187V400.962C84.4629 400.872 84.4898 400.8 84.5437 400.747C84.6154 400.675 84.6962 400.639 84.7859 400.639H89.8469ZM89.3354 409.119C89.9994 409.119 90.5289 408.867 90.9237 408.365C91.3365 407.844 91.5429 407.145 91.5429 406.265C91.5429 405.368 91.3365 404.659 90.9237 404.138C90.5289 403.6 89.9994 403.331 89.3354 403.331H87.7202C87.6305 403.331 87.5856 403.376 87.5856 403.465V408.984C87.5856 409.074 87.6305 409.119 87.7202 409.119H89.3354ZM106.188 403.035C106.188 403.124 106.152 403.205 106.081 403.277C106.027 403.331 105.955 403.358 105.865 403.358H100.05C99.9607 403.358 99.9158 403.403 99.9158 403.492V408.58C99.9158 408.67 99.9607 408.715 100.05 408.715H103.496C103.586 408.715 103.658 408.751 103.712 408.823C103.783 408.876 103.819 408.948 103.819 409.038V411.111C103.819 411.2 103.783 411.281 103.712 411.353C103.658 411.407 103.586 411.434 103.496 411.434H100.05C99.9607 411.434 99.9158 411.479 99.9158 411.568V416.683C99.9158 416.773 99.9607 416.818 100.05 416.818H105.865C105.955 416.818 106.027 416.854 106.081 416.925C106.152 416.979 106.188 417.051 106.188 417.141V419.187C106.188 419.276 106.152 419.357 106.081 419.429C106.027 419.483 105.955 419.51 105.865 419.51H97.1161C97.0264 419.51 96.9457 419.483 96.8739 419.429C96.82 419.357 96.7931 419.276 96.7931 419.187V400.989C96.7931 400.899 96.82 400.827 96.8739 400.773C96.9457 400.702 97.0264 400.666 97.1161 400.666H105.865C105.955 400.666 106.027 400.702 106.081 400.773C106.152 400.827 106.188 400.899 106.188 400.989V403.035ZM115.949 419.51C115.769 419.51 115.652 419.42 115.599 419.241L113.31 411.515C113.275 411.443 113.23 411.407 113.176 411.407H111.749C111.659 411.407 111.614 411.452 111.614 411.541V419.187C111.614 419.276 111.579 419.357 111.507 419.429C111.453 419.483 111.381 419.51 111.291 419.51H108.815C108.725 419.51 108.644 419.483 108.572 419.429C108.519 419.357 108.492 419.276 108.492 419.187V400.989C108.492 400.899 108.519 400.827 108.572 400.773C108.644 400.702 108.725 400.666 108.815 400.666H113.876C114.827 400.666 115.661 400.899 116.379 401.366C117.115 401.814 117.68 402.46 118.075 403.304C118.488 404.129 118.694 405.081 118.694 406.157C118.694 407.27 118.479 408.23 118.048 409.038C117.618 409.845 117.016 410.456 116.245 410.868C116.173 410.886 116.146 410.94 116.164 411.03L118.802 419.133C118.82 419.169 118.829 419.214 118.829 419.267C118.829 419.429 118.73 419.51 118.533 419.51H115.949ZM111.749 403.358C111.659 403.358 111.614 403.403 111.614 403.492V408.849C111.614 408.939 111.659 408.984 111.749 408.984H113.391C114.037 408.984 114.558 408.733 114.953 408.23C115.365 407.728 115.572 407.046 115.572 406.184C115.572 405.323 115.365 404.641 114.953 404.138C114.558 403.618 114.037 403.358 113.391 403.358H111.749ZM128.756 419.51C128.54 419.51 128.424 419.411 128.406 419.214L127.894 416.387C127.894 416.297 127.84 416.252 127.733 416.252H123.802C123.695 416.252 123.641 416.297 123.641 416.387L123.129 419.214C123.112 419.411 122.995 419.51 122.78 419.51H120.33C120.079 419.51 119.98 419.393 120.034 419.16L124.018 400.962C124.054 400.764 124.17 400.666 124.368 400.666H127.221C127.419 400.666 127.535 400.764 127.571 400.962L131.555 419.16V419.267C131.555 419.429 131.457 419.51 131.259 419.51H128.756ZM124.126 413.668C124.108 413.758 124.152 413.803 124.26 413.803H127.248C127.356 413.803 127.401 413.758 127.383 413.668L125.821 405.161C125.804 405.108 125.777 405.081 125.741 405.081C125.705 405.081 125.678 405.108 125.66 405.161L124.126 413.668ZM137.705 419.725C136.179 419.725 134.95 419.267 134.017 418.352C133.101 417.419 132.644 416.19 132.644 414.664V405.484C132.644 403.941 133.101 402.721 134.017 401.823C134.95 400.908 136.179 400.45 137.705 400.45C139.248 400.45 140.487 400.908 141.42 401.823C142.353 402.721 142.82 403.941 142.82 405.484V405.807C142.82 405.897 142.784 405.978 142.712 406.05C142.658 406.122 142.586 406.157 142.497 406.157L139.993 406.265C139.778 406.265 139.67 406.157 139.67 405.942V405.269C139.67 404.641 139.49 404.129 139.132 403.735C138.773 403.34 138.297 403.142 137.705 403.142C137.13 403.142 136.664 403.34 136.305 403.735C135.946 404.129 135.767 404.641 135.767 405.269V414.906C135.767 415.535 135.946 416.046 136.305 416.441C136.664 416.836 137.13 417.033 137.705 417.033C138.297 417.033 138.773 416.836 139.132 416.441C139.49 416.046 139.67 415.535 139.67 414.906V414.233C139.67 414.144 139.697 414.072 139.751 414.018C139.822 413.946 139.903 413.91 139.993 413.91L142.497 414.018C142.586 414.018 142.658 414.054 142.712 414.126C142.784 414.18 142.82 414.251 142.82 414.341V414.664C142.82 416.19 142.353 417.419 141.42 418.352C140.487 419.267 139.248 419.725 137.705 419.725ZM145.593 419.51C145.503 419.51 145.423 419.483 145.351 419.429C145.297 419.357 145.27 419.276 145.27 419.187V400.989C145.27 400.899 145.297 400.827 145.351 400.773C145.423 400.702 145.503 400.666 145.593 400.666H148.07C148.16 400.666 148.231 400.702 148.285 400.773C148.357 400.827 148.393 400.899 148.393 400.989V419.187C148.393 419.276 148.357 419.357 148.285 419.429C148.231 419.483 148.16 419.51 148.07 419.51H145.593ZM156.109 419.725C154.566 419.725 153.318 419.259 152.367 418.325C151.434 417.392 150.967 416.154 150.967 414.61V405.565C150.967 404.022 151.434 402.783 152.367 401.85C153.318 400.917 154.566 400.45 156.109 400.45C157.652 400.45 158.9 400.917 159.851 401.85C160.802 402.783 161.278 404.022 161.278 405.565V414.61C161.278 416.154 160.802 417.392 159.851 418.325C158.9 419.259 157.652 419.725 156.109 419.725ZM156.109 417.033C156.719 417.033 157.213 416.827 157.59 416.414C157.966 415.983 158.155 415.427 158.155 414.745V405.431C158.155 404.749 157.966 404.201 157.59 403.788C157.213 403.358 156.719 403.142 156.109 403.142C155.499 403.142 155.005 403.358 154.628 403.788C154.269 404.201 154.09 404.749 154.09 405.431V414.745C154.09 415.427 154.269 415.983 154.628 416.414C155.005 416.827 155.499 417.033 156.109 417.033ZM171.502 400.989C171.502 400.899 171.529 400.827 171.583 400.773C171.654 400.702 171.735 400.666 171.825 400.666H174.275C174.364 400.666 174.436 400.702 174.49 400.773C174.562 400.827 174.598 400.899 174.598 400.989V419.187C174.598 419.276 174.562 419.357 174.49 419.429C174.436 419.483 174.364 419.51 174.275 419.51H171.448C171.268 419.51 171.152 419.42 171.098 419.241L167.087 407.826C167.069 407.773 167.033 407.755 166.979 407.773C166.943 407.773 166.925 407.8 166.925 407.853L166.952 419.187C166.952 419.276 166.916 419.357 166.845 419.429C166.791 419.483 166.719 419.51 166.629 419.51H164.18C164.09 419.51 164.009 419.483 163.937 419.429C163.883 419.357 163.857 419.276 163.857 419.187V400.989C163.857 400.899 163.883 400.827 163.937 400.773C164.009 400.702 164.09 400.666 164.18 400.666H166.952C167.132 400.666 167.248 400.755 167.302 400.935L171.34 412.268C171.358 412.322 171.385 412.349 171.421 412.349C171.475 412.331 171.502 412.295 171.502 412.241V400.989ZM186.896 403.035C186.896 403.124 186.86 403.205 186.788 403.277C186.734 403.331 186.662 403.358 186.573 403.358H180.758C180.668 403.358 180.623 403.403 180.623 403.492V408.58C180.623 408.67 180.668 408.715 180.758 408.715H184.204C184.293 408.715 184.365 408.751 184.419 408.823C184.491 408.876 184.527 408.948 184.527 409.038V411.111C184.527 411.2 184.491 411.281 184.419 411.353C184.365 411.407 184.293 411.434 184.204 411.434H180.758C180.668 411.434 180.623 411.479 180.623 411.568V416.683C180.623 416.773 180.668 416.818 180.758 416.818H186.573C186.662 416.818 186.734 416.854 186.788 416.925C186.86 416.979 186.896 417.051 186.896 417.141V419.187C186.896 419.276 186.86 419.357 186.788 419.429C186.734 419.483 186.662 419.51 186.573 419.51H177.824C177.734 419.51 177.653 419.483 177.581 419.429C177.527 419.357 177.501 419.276 177.501 419.187V400.989C177.501 400.899 177.527 400.827 177.581 400.773C177.653 400.702 177.734 400.666 177.824 400.666H186.573C186.662 400.666 186.734 400.702 186.788 400.773C186.86 400.827 186.896 400.899 186.896 400.989V403.035ZM193.641 419.725C192.151 419.725 190.949 419.276 190.034 418.379C189.118 417.482 188.661 416.306 188.661 414.853V414.153C188.661 414.063 188.688 413.991 188.742 413.937C188.813 413.866 188.894 413.83 188.984 413.83H191.434C191.523 413.83 191.595 413.866 191.649 413.937C191.721 413.991 191.757 414.063 191.757 414.153V414.691C191.757 415.391 191.927 415.956 192.268 416.387C192.627 416.818 193.085 417.033 193.641 417.033C194.197 417.033 194.655 416.836 195.014 416.441C195.373 416.028 195.552 415.49 195.552 414.826C195.552 414.359 195.454 413.955 195.256 413.614C195.059 413.273 194.781 412.95 194.422 412.645C194.063 412.34 193.488 411.9 192.699 411.326C191.801 410.68 191.075 410.106 190.518 409.603C189.98 409.101 189.522 408.499 189.145 407.8C188.786 407.082 188.607 406.256 188.607 405.323C188.607 403.833 189.056 402.649 189.953 401.769C190.85 400.89 192.035 400.45 193.506 400.45C194.996 400.45 196.198 400.917 197.114 401.85C198.029 402.766 198.487 403.986 198.487 405.511V406.157C198.487 406.247 198.451 406.328 198.379 406.4C198.325 406.454 198.253 406.48 198.164 406.48H195.741C195.651 406.48 195.57 406.454 195.498 406.4C195.445 406.328 195.418 406.247 195.418 406.157V405.458C195.418 404.758 195.238 404.201 194.879 403.788C194.538 403.358 194.081 403.142 193.506 403.142C192.968 403.142 192.528 403.34 192.187 403.735C191.846 404.112 191.676 404.641 191.676 405.323C191.676 405.969 191.855 406.516 192.214 406.965C192.591 407.414 193.318 408.033 194.395 408.823C195.489 409.63 196.315 410.294 196.871 410.815C197.428 411.317 197.858 411.873 198.164 412.484C198.469 413.094 198.621 413.821 198.621 414.664C198.621 416.19 198.164 417.419 197.248 418.352C196.333 419.267 195.131 419.725 193.641 419.725Z" fill="#FED700"/>
<path d="M157.29 158.98C157.32 159.05 157.39 159.08 157.49 159.08H168.44C168.61 159.08 168.75 159.14 168.87 159.25C168.99 159.37 169.04 159.51 169.04 159.67V163.47C169.04 163.64 168.98 163.78 168.87 163.89C168.76 164 168.61 164.06 168.44 164.06H150.99C150.82 164.06 150.68 164 150.56 163.89C150.44 163.77 150.39 163.63 150.39 163.47V159.47C150.39 159.17 150.47 158.92 150.64 158.72L152.59 156.07C153.89 154.34 155.17 152.57 156.42 150.77C157.67 148.97 158.73 147.35 159.59 145.92C161.52 142.72 162.49 140.07 162.49 137.97C162.49 136.64 162.2 135.59 161.61 134.82C161.03 134.05 160.25 133.67 159.28 133.67C158.31 133.67 157.55 134.05 156.98 134.79C156.41 135.54 156.15 136.53 156.18 137.77V139.72C156.18 139.89 156.12 140.03 156.01 140.14C155.9 140.25 155.75 140.31 155.59 140.31H150.89C150.72 140.31 150.58 140.25 150.47 140.14C150.35 140.02 150.3 139.88 150.3 139.72V137.57C150.43 134.9 151.34 132.75 153.02 131.12C154.7 129.49 156.88 128.67 159.55 128.67C162.22 128.67 164.31 129.53 165.93 131.25C167.55 132.97 168.35 135.23 168.35 138.03C168.35 139.7 168.07 141.35 167.5 142.98C166.93 144.61 166.03 146.36 164.8 148.23C163.97 149.56 162.97 151.03 161.82 152.63C160.67 154.23 159.91 155.28 159.55 155.78C158.55 157.11 157.82 158.11 157.35 158.78C157.28 158.85 157.27 158.91 157.3 158.98H157.29Z" fill="white"/>
<path d="M174.54 161.95C172.84 160.17 171.99 157.83 171.99 154.92V138.22C171.99 135.32 172.84 132.98 174.54 131.19C176.24 129.4 178.49 128.52 181.29 128.52C184.09 128.52 186.4 129.41 188.12 131.19C189.84 132.97 190.69 135.31 190.69 138.22V154.92C190.69 157.82 189.83 160.16 188.12 161.95C186.4 163.73 184.13 164.62 181.29 164.62C178.45 164.62 176.24 163.73 174.54 161.95ZM183.92 158.4C184.57 157.62 184.89 156.57 184.89 155.28V137.88C184.89 136.58 184.56 135.54 183.92 134.76C183.27 133.98 182.39 133.59 181.3 133.59C180.21 133.59 179.38 133.98 178.75 134.76C178.12 135.54 177.8 136.59 177.8 137.88V155.28C177.8 156.58 178.12 157.62 178.75 158.4C179.38 159.18 180.23 159.57 181.3 159.57C182.37 159.57 183.27 159.18 183.92 158.4Z" fill="white"/>
<path d="M199.02 142.85C197.87 142.17 196.96 141.24 196.3 140.07C195.63 138.9 195.3 137.62 195.3 136.22C195.3 134.82 195.63 133.59 196.3 132.42C196.97 131.25 197.88 130.33 199.02 129.65C200.17 128.97 201.43 128.62 202.8 128.62C204.17 128.62 205.38 128.96 206.52 129.65C207.67 130.33 208.58 131.26 209.25 132.42C209.92 133.59 210.25 134.85 210.25 136.22C210.25 137.59 209.92 138.9 209.25 140.07C208.58 141.24 207.68 142.16 206.55 142.85C205.42 143.53 204.17 143.87 202.8 143.87C201.43 143.87 200.18 143.53 199.02 142.85ZM205.82 139.45C206.64 138.57 207.05 137.49 207.05 136.23C207.05 134.97 206.63 133.94 205.8 133.05C204.97 132.17 203.97 131.73 202.8 131.73C201.63 131.73 200.58 132.16 199.75 133.03C198.92 133.9 198.5 134.96 198.5 136.23C198.5 137.5 198.92 138.57 199.75 139.45C200.58 140.33 201.6 140.78 202.8 140.78C204 140.78 205.01 140.34 205.82 139.45ZM200.64 163.88C200.57 163.75 200.59 163.58 200.69 163.38L218.89 129.48C219.02 129.21 219.27 129.08 219.64 129.08H222.54C222.77 129.08 222.92 129.15 222.99 129.28C223.06 129.41 223.04 129.58 222.94 129.78L204.74 163.68C204.61 163.95 204.36 164.08 203.99 164.08H201.09C200.86 164.08 200.71 164.01 200.64 163.88ZM217.24 163.5C216.11 162.82 215.21 161.89 214.54 160.73C213.87 159.56 213.54 158.28 213.54 156.88C213.54 155.48 213.87 154.25 214.54 153.08C215.21 151.91 216.11 150.99 217.24 150.3C218.37 149.62 219.62 149.28 220.99 149.28C222.36 149.28 223.61 149.62 224.74 150.3C225.87 150.98 226.77 151.91 227.44 153.08C228.11 154.25 228.44 155.51 228.44 156.88C228.44 158.25 228.11 159.56 227.44 160.73C226.77 161.9 225.87 162.82 224.74 163.5C223.61 164.18 222.36 164.53 220.99 164.53C219.62 164.53 218.37 164.19 217.24 163.5ZM224.04 160.1C224.87 159.22 225.29 158.14 225.29 156.87C225.29 155.6 224.87 154.54 224.04 153.67C223.21 152.8 222.19 152.37 220.99 152.37C219.79 152.37 218.77 152.8 217.94 153.67C217.11 154.54 216.69 155.6 216.69 156.87C216.69 158.14 217.11 159.21 217.94 160.1C218.77 160.99 219.79 161.42 220.99 161.42C222.19 161.42 223.21 160.98 224.04 160.1Z" fill="white"/>
<path d="M155.59 172.14C155.59 172.14 155.65 172.22 155.65 172.28V173.5C155.65 173.55 155.63 173.6 155.59 173.64C155.55 173.68 155.51 173.7 155.45 173.7H153.42C153.37 173.7 153.34 173.73 153.34 173.78V183.11C153.34 183.16 153.32 183.21 153.28 183.25C153.24 183.29 153.2 183.31 153.14 183.31H151.67C151.62 183.31 151.57 183.29 151.53 183.25C151.49 183.21 151.47 183.17 151.47 183.11V173.78C151.47 173.73 151.44 173.7 151.39 173.7H149.47C149.42 173.7 149.37 173.68 149.33 173.64C149.29 173.6 149.27 173.56 149.27 173.5V172.28C149.27 172.23 149.29 172.18 149.33 172.14C149.37 172.1 149.41 172.08 149.47 172.08H155.44C155.49 172.08 155.54 172.1 155.58 172.14H155.59Z" fill="white"/>
<path d="M164.87 173.62C164.87 173.62 164.79 173.68 164.73 173.68H161.27C161.22 173.68 161.19 173.71 161.19 173.76V176.78C161.19 176.83 161.22 176.86 161.27 176.86H163.32C163.37 176.86 163.42 176.88 163.46 176.92C163.5 176.96 163.52 177 163.52 177.06V178.29C163.52 178.34 163.5 178.39 163.46 178.43C163.42 178.47 163.38 178.49 163.32 178.49H161.27C161.22 178.49 161.19 178.52 161.19 178.57V181.61C161.19 181.66 161.22 181.69 161.27 181.69H164.73C164.78 181.69 164.83 181.71 164.87 181.75C164.91 181.79 164.93 181.83 164.93 181.89V183.11C164.93 183.16 164.91 183.21 164.87 183.25C164.83 183.29 164.79 183.31 164.73 183.31H159.53C159.48 183.31 159.43 183.29 159.39 183.25C159.35 183.21 159.33 183.17 159.33 183.11V172.29C159.33 172.24 159.35 172.19 159.39 172.15C159.43 172.11 159.47 172.09 159.53 172.09H164.73C164.78 172.09 164.83 172.11 164.87 172.15C164.91 172.19 164.93 172.23 164.93 172.29V173.51C164.93 173.56 164.91 173.61 164.87 173.65V173.62Z" fill="white"/>
<path d="M169.33 182.58C168.78 182.03 168.51 181.3 168.51 180.4V174.94C168.51 174.02 168.78 173.29 169.33 172.76C169.88 172.22 170.61 171.95 171.51 171.95C172.41 171.95 173.16 172.22 173.72 172.76C174.27 173.3 174.55 174.03 174.55 174.94V175.13C174.55 175.18 174.53 175.23 174.49 175.27C174.45 175.31 174.41 175.33 174.35 175.33L172.86 175.39C172.73 175.39 172.67 175.33 172.67 175.2V174.8C172.67 174.43 172.56 174.12 172.35 173.89C172.14 173.66 171.85 173.54 171.5 173.54C171.15 173.54 170.88 173.66 170.67 173.89C170.46 174.12 170.35 174.43 170.35 174.8V180.53C170.35 180.9 170.46 181.21 170.67 181.44C170.88 181.68 171.16 181.79 171.5 181.79C171.84 181.79 172.13 181.67 172.35 181.44C172.56 181.21 172.67 180.9 172.67 180.53V180.13C172.67 180.08 172.69 180.03 172.73 179.99C172.77 179.95 172.81 179.93 172.87 179.93L174.36 179.99C174.41 179.99 174.46 180.01 174.5 180.05C174.54 180.09 174.56 180.13 174.56 180.19V180.38C174.56 181.29 174.28 182.01 173.73 182.56C173.18 183.11 172.44 183.38 171.52 183.38C170.6 183.38 169.89 183.11 169.34 182.56L169.33 182.58Z" fill="white"/>
<path d="M182.52 172.14C182.52 172.14 182.6 172.08 182.66 172.08H184.13C184.18 172.08 184.23 172.1 184.27 172.14C184.31 172.18 184.33 172.22 184.33 172.28V183.1C184.33 183.15 184.31 183.2 184.27 183.24C184.23 183.28 184.19 183.3 184.13 183.3H182.66C182.61 183.3 182.56 183.28 182.52 183.24C182.48 183.2 182.46 183.16 182.46 183.1V178.57C182.46 178.52 182.43 178.49 182.38 178.49H180.35C180.3 178.49 180.27 178.52 180.27 178.57V183.1C180.27 183.15 180.25 183.2 180.21 183.24C180.17 183.28 180.13 183.3 180.07 183.3H178.6C178.55 183.3 178.5 183.28 178.46 183.24C178.42 183.2 178.4 183.16 178.4 183.1V172.28C178.4 172.23 178.42 172.18 178.46 172.14C178.5 172.1 178.54 172.08 178.6 172.08H180.07C180.12 172.08 180.17 172.1 180.21 172.14C180.25 172.18 180.27 172.22 180.27 172.28V176.79C180.27 176.84 180.3 176.87 180.35 176.87H182.38C182.43 176.87 182.46 176.84 182.46 176.79V172.28C182.46 172.23 182.48 172.18 182.52 172.14Z" fill="white"/>
<path d="M201.85 183.17C201.85 183.25 201.8 183.28 201.69 183.28H200.11C200.01 183.28 199.93 183.24 199.87 183.17L199.41 182.55C199.41 182.55 199.34 182.51 199.3 182.53C198.53 183.13 197.65 183.43 196.66 183.43C195.74 183.43 195.02 183.2 194.49 182.73C193.96 182.26 193.7 181.58 193.7 180.68C193.7 179.98 193.86 179.38 194.18 178.88C194.5 178.38 194.94 177.92 195.49 177.48C195.53 177.45 195.54 177.41 195.51 177.37C195 176.66 194.67 176.13 194.52 175.79C194.37 175.45 194.3 175.09 194.3 174.69C194.3 173.86 194.55 173.19 195.04 172.7C195.53 172.21 196.2 171.96 197.02 171.96C197.56 171.96 198.05 172.08 198.48 172.3C198.91 172.53 199.24 172.85 199.49 173.27C199.74 173.69 199.86 174.17 199.86 174.71C199.86 175.37 199.69 175.94 199.36 176.41C199.03 176.88 198.57 177.34 197.99 177.78C197.95 177.81 197.94 177.85 197.97 177.89C198.01 177.95 198.22 178.23 198.58 178.72L199.41 179.86C199.41 179.86 199.45 179.89 199.47 179.89C199.49 179.89 199.51 179.88 199.52 179.86C199.79 179.49 200.03 179.08 200.26 178.64C200.32 178.52 200.42 178.5 200.53 178.56L201.62 179.18C201.73 179.25 201.75 179.34 201.68 179.44C201.32 180.13 200.94 180.74 200.56 181.25C200.53 181.29 200.52 181.33 200.54 181.36C200.81 181.69 201.23 182.25 201.82 183.04C201.85 183.08 201.87 183.13 201.87 183.17H201.85ZM198.3 181.2C198.3 181.2 198.35 181.13 198.32 181.09L197.73 180.32L196.63 178.88C196.63 178.88 196.56 178.83 196.52 178.86C195.88 179.39 195.56 179.95 195.56 180.52C195.56 180.89 195.67 181.2 195.9 181.45C196.12 181.7 196.44 181.82 196.84 181.82C197.32 181.82 197.81 181.61 198.31 181.2H198.3ZM196.39 173.94C196.22 174.15 196.14 174.42 196.14 174.75C196.14 174.99 196.18 175.2 196.26 175.39C196.34 175.58 196.53 175.9 196.84 176.35C196.87 176.4 196.91 176.41 196.95 176.38C197.28 176.11 197.53 175.85 197.71 175.58C197.89 175.31 197.97 175.03 197.97 174.72C197.97 174.41 197.88 174.14 197.71 173.94C197.53 173.74 197.31 173.64 197.05 173.64C196.79 173.64 196.55 173.74 196.39 173.95V173.94Z" fill="white"/>
<path d="M154.39 191.68C154.82 191.96 155.16 192.35 155.4 192.85C155.64 193.35 155.76 193.92 155.76 194.56C155.76 195.52 155.51 196.29 155 196.88C154.49 197.47 153.82 197.76 152.99 197.76H151.63C151.58 197.76 151.55 197.79 151.55 197.84V202.29C151.55 202.34 151.53 202.39 151.49 202.43C151.45 202.47 151.41 202.49 151.35 202.49H149.88C149.83 202.49 149.78 202.47 149.74 202.43C149.7 202.39 149.68 202.35 149.68 202.29V191.46C149.68 191.41 149.7 191.36 149.74 191.32C149.78 191.28 149.82 191.26 149.88 191.26H152.89C153.46 191.26 153.95 191.4 154.39 191.68ZM153.54 195.85C153.78 195.55 153.9 195.13 153.9 194.61C153.9 194.09 153.78 193.65 153.54 193.34C153.3 193.02 152.98 192.87 152.59 192.87H151.63C151.58 192.87 151.55 192.9 151.55 192.95V196.23C151.55 196.28 151.58 196.31 151.63 196.31H152.59C152.98 196.31 153.3 196.16 153.54 195.85Z" fill="white"/>
<path d="M163.64 202.32L162.28 197.73C162.28 197.73 162.23 197.67 162.2 197.67H161.35C161.3 197.67 161.27 197.7 161.27 197.75V202.29C161.27 202.34 161.25 202.39 161.21 202.43C161.17 202.47 161.13 202.49 161.07 202.49H159.6C159.55 202.49 159.5 202.47 159.46 202.43C159.42 202.39 159.4 202.35 159.4 202.29V191.47C159.4 191.42 159.42 191.37 159.46 191.33C159.5 191.29 159.54 191.27 159.6 191.27H162.61C163.17 191.27 163.67 191.41 164.11 191.68C164.54 191.95 164.88 192.34 165.12 192.83C165.36 193.33 165.48 193.89 165.48 194.53C165.48 195.17 165.35 195.76 165.1 196.24C164.84 196.72 164.49 197.08 164.03 197.33C163.99 197.34 163.97 197.37 163.98 197.43L165.55 202.25C165.55 202.25 165.57 202.3 165.57 202.33C165.57 202.43 165.51 202.47 165.39 202.47H163.85C163.74 202.47 163.67 202.42 163.64 202.31V202.32ZM161.27 192.96V196.14C161.27 196.19 161.3 196.22 161.35 196.22H162.33C162.71 196.22 163.03 196.07 163.27 195.77C163.51 195.47 163.63 195.07 163.63 194.55C163.63 194.03 163.51 193.63 163.27 193.33C163.03 193.03 162.72 192.87 162.33 192.87H161.35C161.3 192.87 161.27 192.9 161.27 192.95V192.96Z" fill="white"/>
<path d="M169.84 201.77C169.28 201.22 169 200.48 169 199.56V194.18C169 193.26 169.28 192.53 169.84 191.97C170.4 191.42 171.14 191.14 172.06 191.14C172.98 191.14 173.72 191.42 174.28 191.97C174.84 192.52 175.13 193.26 175.13 194.18V199.56C175.13 200.48 174.85 201.21 174.28 201.77C173.71 202.33 172.97 202.6 172.06 202.6C171.15 202.6 170.4 202.32 169.84 201.77ZM172.94 200.63C173.16 200.38 173.28 200.05 173.28 199.65V194.11C173.28 193.7 173.17 193.38 172.94 193.13C172.72 192.88 172.42 192.75 172.06 192.75C171.7 192.75 171.41 192.87 171.19 193.13C170.97 193.38 170.86 193.71 170.86 194.11V199.65C170.86 200.06 170.97 200.38 171.19 200.63C171.41 200.88 171.7 201.01 172.06 201.01C172.42 201.01 172.72 200.88 172.94 200.63Z" fill="white"/>
<path d="M179.12 202.42C179.12 202.42 179.06 202.34 179.06 202.28V191.46C179.06 191.41 179.08 191.36 179.12 191.32C179.16 191.28 179.2 191.26 179.26 191.26H182C182.92 191.26 183.65 191.54 184.2 192.09C184.75 192.64 185.02 193.39 185.02 194.31V199.4C185.02 200.33 184.74 201.07 184.2 201.62C183.65 202.17 182.92 202.45 182 202.45H179.26C179.21 202.45 179.16 202.43 179.12 202.39V202.42ZM181 200.88L181.96 200.86C182.31 200.86 182.6 200.72 182.82 200.44C183.04 200.16 183.15 199.78 183.16 199.31V194.45C183.16 193.97 183.05 193.59 182.83 193.31C182.61 193.03 182.32 192.89 181.94 192.89H181C180.95 192.89 180.92 192.92 180.92 192.97V200.81C180.92 200.86 180.95 200.89 181 200.89V200.88Z" fill="white"/>
<path d="M189.78 201.72C189.23 201.13 188.96 200.35 188.96 199.38V191.48C188.96 191.43 188.98 191.38 189.02 191.34C189.06 191.3 189.1 191.28 189.16 191.28H190.63C190.68 191.28 190.73 191.3 190.77 191.34C190.81 191.38 190.83 191.42 190.83 191.48V199.58C190.83 200.01 190.94 200.35 191.15 200.62C191.36 200.89 191.65 201.02 192 201.02C192.35 201.02 192.63 200.89 192.85 200.62C193.07 200.35 193.17 200.01 193.17 199.58V191.48C193.17 191.43 193.19 191.38 193.23 191.34C193.27 191.3 193.31 191.28 193.37 191.28H194.84C194.89 191.28 194.94 191.3 194.98 191.34C195.02 191.38 195.04 191.42 195.04 191.48V199.38C195.04 200.35 194.76 201.13 194.21 201.72C193.66 202.31 192.92 202.61 192.02 202.61C191.12 202.61 190.37 202.31 189.82 201.72H189.78Z" fill="white"/>
<path d="M199.63 201.78C199.08 201.23 198.81 200.5 198.81 199.6V194.14C198.81 193.22 199.08 192.49 199.63 191.96C200.18 191.42 200.91 191.15 201.81 191.15C202.71 191.15 203.46 191.42 204.02 191.96C204.57 192.5 204.85 193.23 204.85 194.14V194.33C204.85 194.38 204.83 194.43 204.79 194.47C204.75 194.51 204.71 194.53 204.65 194.53L203.16 194.59C203.03 194.59 202.97 194.53 202.97 194.4V194C202.97 193.63 202.86 193.32 202.65 193.09C202.44 192.86 202.15 192.74 201.8 192.74C201.45 192.74 201.18 192.86 200.97 193.09C200.76 193.32 200.65 193.63 200.65 194V199.73C200.65 200.1 200.76 200.41 200.97 200.64C201.18 200.88 201.46 200.99 201.8 200.99C202.14 200.99 202.43 200.87 202.65 200.64C202.86 200.41 202.97 200.1 202.97 199.73V199.33C202.97 199.28 202.99 199.23 203.03 199.19C203.07 199.15 203.11 199.13 203.17 199.13L204.66 199.19C204.71 199.19 204.76 199.21 204.8 199.25C204.84 199.29 204.86 199.33 204.86 199.39V199.58C204.86 200.49 204.58 201.21 204.03 201.76C203.48 202.31 202.74 202.58 201.82 202.58C200.9 202.58 200.19 202.31 199.64 201.76L199.63 201.78Z" fill="white"/>
<path d="M214.6 191.34C214.6 191.34 214.66 191.42 214.66 191.48V192.7C214.66 192.75 214.64 192.8 214.6 192.84C214.56 192.88 214.52 192.9 214.46 192.9H212.43C212.38 192.9 212.35 192.93 212.35 192.98V202.31C212.35 202.36 212.33 202.41 212.29 202.45C212.25 202.49 212.21 202.51 212.15 202.51H210.68C210.63 202.51 210.58 202.49 210.54 202.45C210.5 202.41 210.48 202.37 210.48 202.31V192.98C210.48 192.93 210.45 192.9 210.4 192.9H208.48C208.43 192.9 208.38 192.88 208.34 192.84C208.3 192.8 208.28 192.76 208.28 192.7V191.48C208.28 191.43 208.3 191.38 208.34 191.34C208.38 191.3 208.42 191.28 208.48 191.28H214.45C214.5 191.28 214.55 191.3 214.59 191.34H214.6Z" fill="white"/>
<path d="M218.61 201.77C218.05 201.22 217.77 200.48 217.77 199.56V194.18C217.77 193.26 218.05 192.53 218.61 191.97C219.17 191.42 219.91 191.14 220.83 191.14C221.75 191.14 222.49 191.42 223.05 191.97C223.61 192.52 223.9 193.26 223.9 194.18V199.56C223.9 200.48 223.62 201.21 223.05 201.77C222.48 202.33 221.74 202.6 220.83 202.6C219.92 202.6 219.17 202.32 218.61 201.77ZM221.71 200.63C221.93 200.38 222.05 200.05 222.05 199.65V194.11C222.05 193.7 221.94 193.38 221.71 193.13C221.49 192.88 221.19 192.75 220.83 192.75C220.47 192.75 220.18 192.87 219.96 193.13C219.74 193.38 219.63 193.71 219.63 194.11V199.65C219.63 200.06 219.74 200.38 219.96 200.63C220.18 200.88 220.47 201.01 220.83 201.01C221.19 201.01 221.49 200.88 221.71 200.63Z" fill="white"/>
<path d="M390.47 139.47V162.84C389.81 165.97 387.5 168.39 384.28 168.86C377.52 168.1 365.93 172.08 364.41 162.46C364.79 155.17 363.89 147.35 364.41 140.12C364.66 136.57 367.44 133.67 371 133.39C374.43 133.12 380.46 133.12 383.89 133.39C387.02 133.64 390.07 136.3 390.47 139.46V139.47ZM373.4 140.54C370.96 140.95 370.89 144.67 373.28 145.17C374.46 145.42 380.06 145.4 381.34 145.22C383.92 144.87 384.01 141.07 381.58 140.56C380.47 140.33 374.56 140.33 373.39 140.53L373.4 140.54ZM373.4 148.83C370.96 149.24 370.89 152.96 373.28 153.46C374.46 153.71 380.06 153.69 381.34 153.51C383.92 153.16 384.01 149.36 381.58 148.85C380.47 148.62 374.56 148.62 373.39 148.82L373.4 148.83ZM373.4 157.11C370.96 157.52 370.89 161.24 373.28 161.74C374.46 161.99 380.06 161.97 381.34 161.79C383.92 161.44 384.01 157.64 381.58 157.13C380.47 156.9 374.56 156.9 373.39 157.1L373.4 157.11Z" fill="#172C36"/>
<path d="M390.47 179.71V193.62C389.81 196.78 387.56 199.02 384.4 199.69H365.75C356.56 197.67 360.52 186.67 359.7 179.96C360.11 176.7 362.82 173.96 366.12 173.66C371.84 173.13 378.36 174.03 384.16 173.68C387.16 173.98 390.09 176.73 390.47 179.73V179.71ZM372.22 181.96C371.45 182.1 370.58 182.93 370.4 183.69C370.19 184.58 370.23 188.24 370.34 189.25C370.48 190.57 371.6 191.5 372.93 191.4C373.6 191.35 378.32 189 378.92 188.5C379.96 187.62 380.16 186.27 379.29 185.19C378.77 184.54 373.74 181.98 372.93 181.92C372.69 181.9 372.46 181.92 372.23 181.96H372.22Z" fill="#172C36"/>
<path d="M326.95 199.68H325.91C324.96 199.22 324.16 198.52 324.13 197.39C324.52 191.81 323.63 185.58 324.13 180.08C324.43 176.78 327.18 174.07 330.44 173.66C336.23 173.93 342.45 173.23 348.19 173.64C351.73 173.89 354.64 176.66 354.92 180.22C355.1 182.51 355.17 188.53 354.39 190.5C353.48 192.82 351.1 194.66 348.6 194.92C344.08 195.39 338.88 194.58 334.29 194.97L326.93 199.67L326.95 199.68Z" fill="#172C36"/>
<path d="M359.67 155.75L350.7 149.99L349.34 150.09L343.33 153.95L337.67 148.35C336.92 147.64 335.93 147.61 334.97 147.87L324.12 155.89V139.54C324.12 136.41 327.91 133.6 330.85 133.39C338.34 132.87 346.67 133.64 354.2 133.59C356.58 133.92 359.65 137.18 359.65 139.54V155.74L359.67 155.75Z" fill="#172C36"/>
<path d="M346.79 157.67C346.68 157.51 349.72 155.45 349.91 155.38C350.07 155.32 350.21 155.25 350.38 155.33L359.6 161.52C359.93 165.4 356.76 168.66 352.94 168.92C345.67 169.43 337.78 168.54 330.45 168.9C327.57 168.51 325.08 166.43 324.36 163.59C324.21 163.01 323.93 162.15 324.35 161.65L335.76 153.11L343.82 161.3C346.16 163.25 349.17 160.31 347.21 157.91C347.1 157.77 346.97 157.66 346.79 157.67Z" fill="#172C36"/>
<path d="M209.93 332.37C211.99 333.03 210.99 335.22 211.28 336.71C211.34 337.04 212.62 337.41 213 337.54C214.33 336.52 215.45 334.12 217.36 335.58C218.4 336.37 221.74 339.73 222.53 340.77C223.34 341.83 223.02 342.77 222 343.5C220.36 343.68 218.43 343.23 216.87 343.77C215.31 344.31 213.93 345.9 213.63 347.57L212.4 345.94C203.74 337.86 191.58 349.52 199.57 358.43L201.36 359.85C199.4 360.17 197.51 362.08 197.31 364.08C197.19 365.31 197.47 366.84 197.31 368.03C197.2 368.89 195.62 369.58 194.88 368.98C193.28 367.25 190.76 365.4 189.36 363.57C187.89 361.66 190.3 360.54 191.32 359.21C191.19 358.84 190.82 357.55 190.49 357.49C189 357.21 186.81 358.2 186.15 356.14V348.14C186.25 347.77 186.96 346.9 187.33 346.9H190.65L191.31 345.07C190.13 343.52 187.76 342.69 189.52 340.54C190.47 339.37 193.19 336.63 194.36 335.7C196.46 334.03 197.34 336.42 198.83 337.54L200.66 336.88V333.56C200.66 333.18 201.53 332.48 201.9 332.38H209.9L209.93 332.37Z" fill="#FED700"/>
<path d="M227.51 351.27L230.6 352.49C232.02 351.33 233.08 349.03 235.11 350.72C236.11 351.55 239.51 354.84 240.17 355.8C240.73 356.62 240.69 357.32 240.12 358.1C239.71 358.66 238.61 359.4 238.31 359.9C238.25 360 238.17 360.07 238.22 360.21L239.44 363.06C240.99 363.29 243.62 362.47 243.84 364.74C244.08 367.13 243.67 369.94 243.81 372.38C243.3 374.51 240.85 373.35 239.39 373.81L238.22 376.89C239.14 378.14 241.51 379.22 240.18 381.03C238.83 382.86 236.2 384.65 234.71 386.48C234.15 386.83 233.54 386.87 232.95 386.56C232.25 386.19 231.46 384.87 230.84 384.5C230.74 384.44 230.67 384.36 230.53 384.41L227.57 385.63C227.28 387.25 228.3 389.82 225.89 390.03C223.47 390.24 220.71 389.88 218.25 390C216.22 389.38 217.23 387.07 216.82 385.58L213.86 384.41C212.52 385.47 211.45 387.74 209.5 386.26C208.57 385.55 204.99 381.98 204.34 381.06C203.02 379.19 205.32 378.07 206.32 376.8L205.1 373.71C203.61 373.5 201.61 374.33 200.77 372.69L200.75 364.32C201.39 362.45 203.61 363.31 205.1 363.1L206.34 360.04C205.34 358.73 202.94 357.62 204.44 355.74C205.35 354.6 208.49 351.43 209.62 350.56C211.51 349.11 212.6 351.68 213.94 352.52L216.93 351.28C217.11 349.8 216.28 347.11 218.46 346.9C220.91 346.66 223.74 347.09 226.24 346.9C228.23 347.42 227.33 349.76 227.54 351.28L227.51 351.27ZM221.85 357.74C216.57 357.91 212.4 361.71 211.64 366.9C210.31 376.03 220.4 382.46 228.13 377.42C237.07 371.58 232.85 357.39 221.85 357.74Z" fill="#FED700"/>
<path d="M208.47 347.12C208.53 347.39 208.42 347.3 208.32 347.37C205.99 348.98 204.22 351.21 202.16 353.14L201.04 354.61C199.26 351.32 201.37 347.39 204.96 346.7C206.29 346.44 207.22 346.7 208.47 347.12Z" fill="#FED700"/>
<path d="M221.4 361.11C231.31 360.09 232.44 374.94 223.05 375.71C212.94 376.54 212.21 362.05 221.4 361.11Z" fill="#FED700"/>
<path d="M97.06 129.1C99.37 129.39 100.77 131.65 100.54 133.85C100.5 134.22 100.18 134.76 100.3 135.02L106.84 141.57C106.88 141.73 106.51 141.9 106.4 141.97C105.77 142.38 105.01 142.71 104.36 143.11L98.28 137.05C98.02 136.93 97.48 137.25 97.11 137.29C92.08 137.81 90.56 131.2 94.96 129.4C95.26 129.28 95.58 129.27 95.84 129.11C96.23 129.14 96.68 129.06 97.06 129.11V129.1Z" fill="white"/>
<path d="M137.05 129.1C138.91 129.52 140.16 130.8 140.53 132.68C140.5 133.04 140.58 133.46 140.53 133.81C140.23 136.12 138 137.52 135.78 137.29C135.41 137.25 134.87 136.93 134.61 137.05L128.58 143.08L126.09 141.71L126.14 141.47L132.59 135.02C132.71 134.76 132.39 134.22 132.35 133.85C132.12 131.65 133.52 129.39 135.83 129.1H137.05Z" fill="white"/>
<path d="M140.53 172.57C140.56 172.83 140.56 173.44 140.53 173.7C139.89 178.8 131.83 178.33 132.34 172.61C132.37 172.22 132.69 171.58 132.58 171.35L126.04 164.72L128.3 163.39H128.68L134.61 169.33C134.8 169.42 135.47 169.14 135.78 169.09C137.97 168.8 140.24 170.3 140.53 172.57Z" fill="white"/>
<path d="M128.39 160.15L117.86 166.17V153.94L128.39 147.91V160.15Z" fill="white"/>
<path d="M115.03 153.94V166.17L104.5 160.15V147.91L115.03 153.94Z" fill="white"/>
<path d="M126.89 145.38L116.48 151.57L106.01 145.42L116.41 139.44C119.95 141.3 123.34 143.5 126.89 145.37V145.38Z" fill="white"/>
<path d="M104.35 163.28C105.05 163.73 106.04 164.11 106.69 164.58C106.77 164.64 106.87 164.67 106.84 164.8L100.3 171.35C100.18 171.61 100.5 172.15 100.54 172.52C101.08 177.7 94.17 179.01 92.59 174.54C91.54 171.56 94.01 168.68 97.1 169.09C97.41 169.13 98.08 169.41 98.27 169.33L104.34 163.28H104.35Z" fill="white"/>
<path d="M248.21 307.19C270.329 307.19 288.26 289.259 288.26 267.14C288.26 245.021 270.329 227.09 248.21 227.09C226.091 227.09 208.16 245.021 208.16 267.14C208.16 289.259 226.091 307.19 248.21 307.19Z" fill="white"/>
<path d="M249.7 238.05C249.7 238.05 249.75 238.02 249.78 238.02H250.92C250.92 238.02 250.98 238.02 251 238.05C251.02 238.07 251.03 238.1 251.03 238.13V244.76C251.03 244.76 251.03 244.82 251.01 244.84C250.99 244.86 250.96 244.87 250.93 244.87H249.64C249.57 244.87 249.53 244.84 249.51 244.77L248.29 240.98C248.29 240.98 248.27 240.95 248.26 240.96C248.24 240.96 248.24 240.97 248.24 240.99L248.26 244.76C248.26 244.76 248.25 244.82 248.23 244.84C248.21 244.86 248.18 244.87 248.15 244.87H247.01C247.01 244.87 246.95 244.87 246.93 244.84C246.91 244.82 246.9 244.79 246.9 244.76V238.13C246.9 238.13 246.9 238.07 246.92 238.05C246.94 238.03 246.97 238.02 247 238.02H248.28C248.35 238.02 248.39 238.05 248.41 238.12L249.64 241.91C249.64 241.91 249.66 241.94 249.67 241.93C249.69 241.93 249.69 241.92 249.69 241.9L249.67 238.13C249.67 238.13 249.68 238.07 249.7 238.05Z" fill="#1C2B35"/>
<path d="M222.15 270.44L220.81 263.81V263.77C220.8 263.71 220.84 263.68 220.91 263.68H222.11C222.19 263.68 222.23 263.71 222.24 263.79L222.81 267.32C222.81 267.32 222.83 267.36 222.84 267.36C222.85 267.36 222.86 267.35 222.87 267.32L223.39 263.79C223.39 263.72 223.44 263.68 223.52 263.68H224.51C224.59 263.68 224.63 263.71 224.64 263.79L225.22 267.32C225.22 267.32 225.24 267.36 225.25 267.36C225.26 267.36 225.27 267.35 225.28 267.32L225.77 263.79C225.77 263.72 225.82 263.68 225.9 263.68H227.06C227.14 263.68 227.18 263.72 227.17 263.81L225.94 270.44C225.94 270.51 225.89 270.55 225.81 270.55H224.75C224.67 270.55 224.63 270.52 224.62 270.44L224.04 266.81C224.04 266.81 224.02 266.77 224.01 266.77C224 266.77 223.99 266.78 223.98 266.81L223.47 270.44C223.47 270.51 223.42 270.55 223.34 270.55H222.29C222.22 270.55 222.18 270.52 222.16 270.44H222.15Z" fill="#1C2B35"/>
<path d="M274.83 264.83C274.83 264.83 274.78 264.86 274.75 264.86H272.7C272.7 264.86 272.65 264.88 272.65 264.91V266.46C272.65 266.46 272.67 266.51 272.7 266.51H273.88C273.88 266.51 273.94 266.51 273.96 266.54C273.98 266.56 273.99 266.59 273.99 266.62V267.57C273.99 267.57 273.99 267.63 273.96 267.65C273.94 267.67 273.91 267.68 273.88 267.68H272.7C272.7 267.68 272.65 267.7 272.65 267.73V269.29C272.65 269.29 272.67 269.34 272.7 269.34H274.75C274.75 269.34 274.81 269.34 274.83 269.37C274.85 269.39 274.86 269.42 274.86 269.45V270.4C274.86 270.4 274.86 270.46 274.83 270.48C274.81 270.5 274.78 270.51 274.75 270.51H271.39C271.39 270.51 271.33 270.51 271.31 270.48C271.29 270.46 271.28 270.43 271.28 270.4V263.77C271.28 263.77 271.28 263.71 271.3 263.69C271.32 263.67 271.35 263.66 271.38 263.66H274.74C274.74 263.66 274.8 263.66 274.82 263.69C274.84 263.71 274.85 263.74 274.85 263.77V264.72C274.85 264.72 274.85 264.78 274.82 264.8L274.83 264.83Z" fill="#1C2B35"/>
<path d="M247.97 296.04C247.68 295.89 247.46 295.68 247.3 295.41C247.14 295.14 247.06 294.83 247.06 294.47V294.19C247.06 294.19 247.07 294.13 247.09 294.11C247.11 294.09 247.14 294.08 247.17 294.08H248.3C248.3 294.08 248.36 294.08 248.38 294.11C248.4 294.14 248.41 294.16 248.41 294.19V294.41C248.41 294.61 248.46 294.78 248.57 294.9C248.67 295.02 248.81 295.09 248.96 295.09C249.12 295.09 249.25 295.03 249.35 294.91C249.45 294.79 249.51 294.64 249.51 294.45C249.51 294.25 249.44 294.09 249.31 293.95C249.18 293.81 248.92 293.6 248.54 293.33C248.21 293.1 247.95 292.89 247.74 292.7C247.54 292.52 247.36 292.29 247.22 292.02C247.08 291.75 247 291.44 247 291.09C247 290.53 247.17 290.09 247.52 289.76C247.87 289.43 248.32 289.26 248.89 289.26C249.47 289.26 249.93 289.43 250.28 289.78C250.63 290.13 250.81 290.58 250.81 291.14V291.38C250.81 291.38 250.8 291.44 250.78 291.46C250.76 291.48 250.73 291.49 250.7 291.49H249.57C249.57 291.49 249.51 291.49 249.49 291.46C249.47 291.44 249.46 291.41 249.46 291.38V291.12C249.46 290.92 249.41 290.76 249.31 290.63C249.21 290.51 249.08 290.45 248.91 290.45C248.75 290.45 248.63 290.51 248.53 290.62C248.43 290.73 248.38 290.89 248.38 291.1C248.38 291.3 248.44 291.47 248.57 291.62C248.69 291.77 248.94 291.98 249.31 292.25C249.72 292.55 250.02 292.79 250.23 292.98C250.44 293.17 250.6 293.37 250.71 293.6C250.82 293.83 250.88 294.09 250.88 294.41C250.88 294.99 250.71 295.44 250.35 295.78C249.99 296.12 249.53 296.29 248.96 296.29C248.58 296.29 248.25 296.22 247.96 296.07L247.97 296.04Z" fill="#1C2B35"/>
<path d="M235.54 267.68C236.57 268.27 237.4 267.8 237.4 266.63C237.4 265.46 236.57 264.04 235.55 263.46C234.52 262.87 233.69 263.34 233.69 264.51C233.69 265.68 234.52 267.1 235.54 267.68Z" fill="#1C2B35"/>
<path d="M243.21 280.83C244.24 281.42 245.07 280.95 245.07 279.78C245.07 278.61 244.24 277.19 243.22 276.61C242.19 276.02 241.36 276.49 241.36 277.66C241.36 278.83 242.18 280.25 243.21 280.83Z" fill="#1C2B35"/>
<path d="M261.37 263.46C260.34 264.05 259.52 265.47 259.52 266.63C259.52 267.8 260.36 268.27 261.38 267.68C262.41 267.09 263.23 265.67 263.23 264.51C263.23 263.34 262.39 262.87 261.37 263.46Z" fill="#1C2B35"/>
<path d="M253.71 276.61C252.68 277.2 251.86 278.62 251.86 279.78C251.86 280.95 252.7 281.42 253.72 280.83C254.75 280.24 255.57 278.82 255.57 277.66C255.57 276.5 254.73 276.02 253.71 276.61Z" fill="#1C2B35"/>
<path d="M257.54 269.88C256.51 270.47 255.69 271.89 255.69 273.05C255.69 274.22 256.53 274.69 257.55 274.1C258.58 273.51 259.4 272.09 259.4 270.93C259.4 269.76 258.56 269.29 257.54 269.88Z" fill="#1C2B35"/>
<path d="M246.6 257.85C247.63 258.44 249.28 258.44 250.3 257.85C251.32 257.26 251.31 256.31 250.29 255.73C249.26 255.14 247.61 255.14 246.59 255.73C245.57 256.32 245.58 257.27 246.6 257.85Z" fill="#1C2B35"/>
<path d="M267.13 260.07V259.37C267.13 258.42 266.88 257.48 266.4 256.65C265.92 255.82 265.23 255.13 264.4 254.66L251.24 247.08C249.53 246.1 247.41 246.1 245.7 247.08L232.54 254.66C231.71 255.14 231.02 255.83 230.54 256.65C230.06 257.48 229.81 258.42 229.81 259.37V260.07V274.61C229.81 275.56 230.07 276.49 230.54 277.31C231.02 278.13 231.7 278.82 232.53 279.29H232.55L245.71 286.87C246.56 287.36 247.52 287.61 248.48 287.61C249.44 287.61 250.39 287.36 251.25 286.87L264.41 279.29H264.43C265.25 278.81 265.94 278.13 266.42 277.31C266.9 276.49 267.15 275.56 267.15 274.61V260.07H267.13ZM246.56 248.55C247.15 248.21 247.8 248.04 248.46 248.04C249.12 248.04 249.77 248.21 250.36 248.55L263.47 256.11C263.81 256.31 263.85 256.64 263.85 256.77C263.85 256.9 263.81 257.23 263.47 257.42L253.57 263.12L250.34 264.98C249.17 265.65 247.72 265.65 246.55 264.98L235.53 258.63L233.43 257.42C233.09 257.22 233.05 256.89 233.05 256.76C233.05 256.63 233.09 256.3 233.43 256.1L246.55 248.54L246.56 248.55ZM231.53 260.06C231.53 259.53 231.89 259.27 232.05 259.18C232.21 259.09 232.62 258.91 233.08 259.18L234.25 259.85L245.69 266.44L247.08 267.24C247.4 267.42 247.59 267.76 247.59 268.12V284.2C247.59 284.73 247.23 285 247.07 285.09C246.91 285.18 246.5 285.36 246.04 285.09L233.4 277.8C232.24 277.13 231.52 275.89 231.52 274.57V260.05L231.53 260.06ZM263.52 277.82L250.88 285.11C250.41 285.38 250 285.2 249.85 285.11C249.69 285.02 249.33 284.76 249.33 284.22V268.14C249.33 267.78 249.53 267.44 249.84 267.26L251.23 266.46L254.33 264.67L263.84 259.19C264.31 258.92 264.72 259.1 264.87 259.19C265.02 259.28 265.38 259.54 265.39 260.07V274.59C265.39 275.92 264.67 277.16 263.51 277.82H263.52Z" fill="#1C2B35"/>
<path d="M228.98 279.17L221.43 292.41C220.94 293.27 221.9 294.23 222.77 293.74L238.7 284.83L228.98 279.16V279.17Z" fill="#1C2B35"/>
<path d="M256.48 250.08L256.47 250.09L258.16 251.06L256.48 250.08Z" fill="#1C2B35"/>
<path d="M274.15 240.2L258.23 249.1L267.95 254.76L275.49 241.53C275.98 240.67 275.02 239.71 274.15 240.2Z" fill="#1C2B35"/>
<path d="M238.7 249.1L222.78 240.2C221.91 239.71 220.94 240.67 221.44 241.53L228.98 254.76L238.7 249.1Z" fill="#1C2B35"/>
<path d="M239.32 250.74L240.45 250.09V250.08L239.32 250.74Z" fill="#1C2B35"/>
<path d="M275.49 292.41L267.94 279.16L258.21 284.83L274.14 293.74C275.01 294.23 275.98 293.27 275.48 292.41H275.49Z" fill="#1C2B35"/>
<path d="M229.99 241.94C235.26 238.11 241.58 236.05 248.21 236.05C254.84 236.05 261.34 238.17 266.65 242.1L268.55 241.04C262.76 236.51 255.67 234.05 248.21 234.05C240.75 234.05 233.83 236.45 228.08 240.88L229.99 241.95V241.94Z" fill="#1C2B35"/>
<path d="M274.59 247.15L273.51 249.05C277.27 254.29 279.31 260.56 279.31 267.14C279.31 273.72 277.32 279.87 273.62 285.08L274.7 286.98C278.99 281.29 281.31 274.39 281.31 267.14C281.31 259.89 278.95 252.88 274.6 247.15H274.59Z" fill="#1C2B35"/>
<path d="M223.09 285.47C219.21 280.18 217.12 273.82 217.12 267.14C217.12 260.46 219.25 253.98 223.2 248.67L222.12 246.78C217.58 252.57 215.12 259.67 215.12 267.14C215.12 274.61 217.54 281.59 222.01 287.36L223.09 285.47Z" fill="#1C2B35"/>
<path d="M266.91 291.99C261.55 296.04 255.05 298.23 248.22 298.23C241.39 298.23 235.06 296.1 229.74 292.15L227.84 293.21C233.64 297.76 240.74 300.23 248.22 300.23C255.7 300.23 262.97 297.7 268.81 293.05L266.92 291.99H266.91Z" fill="#1C2B35"/>
</g>
<defs>
<clipPath id="clip0_474_12694">
<rect width="515.46" height="526.75" fill="white"/>
</clipPath>
</defs>
</svg>
