<svg width="143" height="54" viewBox="0 0 143 54" fill="none" xmlns="http://www.w3.org/2000/svg">
<path d="M140.641 53.0552C141.04 53.4375 141.673 53.4243 142.055 53.0257C142.437 52.6271 142.424 51.9941 142.025 51.6118L141.333 52.3335L140.641 53.0552ZM92.3333 5.3335L93.0255 4.61181C92.8393 4.43322 92.5913 4.3335 92.3333 4.3335V5.3335ZM-8.15392e-05 5.3335C-8.15392e-05 8.27901 2.38773 10.6668 5.33325 10.6668C8.27877 10.6668 10.6666 8.27901 10.6666 5.3335C10.6666 2.38798 8.27877 0.000162601 5.33325 0.000162601C2.38773 0.000162601 -8.15392e-05 2.38798 -8.15392e-05 5.3335ZM141.333 52.3335L142.025 51.6118L93.0255 4.61181L92.3333 5.3335L91.641 6.05518L140.641 53.0552L141.333 52.3335ZM92.3333 5.3335V4.3335H5.33325V5.3335V6.3335H92.3333V5.3335Z" fill="#172C36"/>
</svg>
