<svg width="197" height="50" viewBox="0 0 197 50" fill="none" xmlns="http://www.w3.org/2000/svg">
<path d="M-8.15392e-05 44C-8.15392e-05 46.9455 2.38773 49.3333 5.33325 49.3333C8.27877 49.3333 10.6666 46.9455 10.6666 44C10.6666 41.0545 8.27877 38.6667 5.33325 38.6667C2.38773 38.6667 -8.15392e-05 41.0545 -8.15392e-05 44ZM34.3333 1V0C34.0008 0 33.6901 0.165226 33.5042 0.440858L34.3333 1ZM195.333 2C195.886 2 196.333 1.55228 196.333 1C196.333 0.447715 195.886 0 195.333 0V1V2ZM5.33325 44L6.16232 44.5591L35.1623 1.55914L34.3333 1L33.5042 0.440858L4.50418 43.4409L5.33325 44ZM34.3333 1V2H195.333V1V0H34.3333V1Z" fill="#626B2F"/>
</svg>
