<svg width="94" height="94" viewBox="0 0 94 94" fill="none" xmlns="http://www.w3.org/2000/svg">
<path d="M11.7186 64.0062C12.2945 65.4589 12.4227 67.0507 12.0868 68.5769L7.91551 81.4628C7.78111 82.1162 7.81586 82.7932 8.01647 83.4295C8.21708 84.0658 8.57689 84.6403 9.06179 85.0985C9.54669 85.5567 10.1406 85.8835 10.7872 86.0478C11.4338 86.2121 12.1117 86.2085 12.7565 86.0374L26.1241 82.1286C27.5643 81.8429 29.0558 81.9678 30.4285 82.4889C38.7921 86.3947 48.2665 87.221 57.1799 84.8222C66.0934 82.4233 73.8732 76.9533 79.1468 69.3774C84.4203 61.8014 86.8486 52.6063 86.0033 43.4145C85.158 34.2226 81.0933 25.6247 74.5265 19.1376C67.9597 12.6505 59.3128 8.69124 50.1113 7.95826C40.9098 7.22529 31.745 9.76575 24.2341 15.1314C16.7231 20.4971 11.3486 28.3431 9.05876 37.2852C6.76893 46.2274 7.71094 55.6909 11.7186 64.0062Z" stroke="#FED700" stroke-width="6" stroke-linecap="round" stroke-linejoin="round"/>
<path d="M35.6025 35.25C36.5234 32.6323 38.3409 30.4251 40.7332 29.0191C43.1255 27.6131 45.9382 27.0991 48.6731 27.5683C51.4081 28.0374 53.8887 29.4593 55.6758 31.5821C57.4628 33.705 58.4408 36.3918 58.4367 39.1666C58.4367 47 46.6867 50.9166 46.6867 50.9166" stroke="#FED700" stroke-width="6" stroke-linecap="round" stroke-linejoin="round"/>
<path d="M47 66.5833H47.0392" stroke="#FED700" stroke-width="6" stroke-linecap="round" stroke-linejoin="round"/>
</svg>
