<svg width="250" height="68" viewBox="0 0 250 68" fill="none" xmlns="http://www.w3.org/2000/svg">
<path d="M1.98989 0.5C1.74989 0.19 2.2099 0.08 2.2499 0C2.4999 0.6 1.87989 0.55 1.98989 0.5Z" fill="#FED700"/>
<path d="M4.69971 6.51006L4.77971 6.31006L4.97971 7.37006L4.69971 6.51006Z" fill="#FED700"/>
<path d="M8.53004 11.3301C7.53004 11.4201 7.19004 9.53006 6.29004 8.85006L6.04004 8.82006L6.21004 8.06006C6.98004 9.14006 7.71004 10.7901 8.53004 11.3301Z" fill="#FED700"/>
<path d="M11.9401 12.6301C11.5901 12.6901 12.2201 13.3201 11.3701 12.1401C11.4401 12.1701 11.4701 12.1701 11.5201 12.1901C11.6001 12.2901 11.7301 12.4201 11.9501 12.6301H11.9401Z" fill="#FED700"/>
<path d="M11.5098 12.1801C11.0998 11.7001 11.9698 12.3201 11.5098 12.1801V12.1801Z" fill="#FED700"/>
<path d="M13.4598 14.3899L13.0498 13.6099C13.2998 13.6099 13.8598 14.0999 13.7498 13.8199C14.2598 14.5199 14.0098 14.5299 13.4598 14.3899Z" fill="#FED700"/>
<path d="M13.6397 15.35L13.4097 14.96C13.5197 14.96 13.6197 15.02 13.6397 15.35Z" fill="#FED700"/>
<path d="M12.9097 14.1499L13.4097 14.9699C13.2397 14.9699 13.0497 15.1399 13.1697 14.6099C13.0697 14.8199 13.0897 14.5399 12.9197 14.1499H12.9097Z" fill="#FED700"/>
<path d="M12.4497 13.8601C11.9997 13.6401 11.4797 13.2801 11.8997 14.0701C10.8197 12.8501 11.3797 12.6501 12.4497 13.8601Z" fill="#FED700"/>
<path d="M8.16012 12.0802L7.55012 11.7502C7.49012 11.5502 7.42012 11.3702 7.37012 11.1602C7.45012 11.4602 8.36012 11.9502 8.15012 12.0802H8.16012Z" fill="#FED700"/>
<path d="M17.5801 17.6498C17.5101 17.8098 17.0901 17.7898 16.9001 17.8998L16.5601 17.3398C16.8701 17.4698 17.3901 17.7998 17.5801 17.6398V17.6498Z" fill="#FED700"/>
<path d="M16.9001 17.8999L17.4201 18.7299C16.7701 18.1999 16.7401 17.9999 16.9001 17.8999Z" fill="#FED700"/>
<path d="M13.1597 16.0698L12.4697 14.5698L13.3697 16.2898L13.1597 16.0698Z" fill="#FED700"/>
<path d="M20.3397 19.8898L20.1597 19.2598L20.5397 20.2998L20.3397 19.8898Z" fill="#FED700"/>
<path d="M22.1699 21.3799C22.0399 20.8999 22.9199 21.2799 22.6999 20.8799C23.1799 21.2999 23.4599 21.8399 23.7199 22.3299C23.3799 21.9099 22.9099 21.6099 22.1699 21.3799Z" fill="#FED700"/>
<path d="M24.1797 23.1101C24.0097 22.8901 23.8697 22.6201 23.7197 22.3301C23.8997 22.5501 24.0597 22.8001 24.1797 23.1101Z" fill="#FED700"/>
<path d="M18.7197 19.6802C18.8397 19.6502 19.1097 19.5402 19.5897 19.7802L19.0197 19.9002C18.9297 19.8302 18.8297 19.7502 18.7297 19.6702L18.7197 19.6802Z" fill="#FED700"/>
<path d="M18.9897 19.9102H19.0097C19.3297 20.1502 19.5497 20.3202 19.6497 20.3902C19.5697 20.3302 19.3697 20.1902 18.9897 19.9102Z" fill="#FED700"/>
<path d="M18.6397 19.6299C18.6397 19.6299 18.6897 19.6699 18.7097 19.6899C18.6497 19.6999 18.6297 19.6999 18.6397 19.6299Z" fill="#FED700"/>
<path d="M15.2699 17.4502C15.5099 18.0102 16.2099 18.9902 15.0999 18.5302C15.0099 18.0302 15.6299 18.2902 15.2699 17.4502Z" fill="#FED700"/>
<path d="M17.9198 19.7799L17.0698 19.2299C17.1598 19.1499 17.4198 19.1299 17.2898 18.8599L17.9198 19.7799Z" fill="#FED700"/>
<path d="M18.2099 20.1998L17.9199 19.7798L18.2399 19.9798L18.2099 20.1998Z" fill="#FED700"/>
<path d="M22.5601 22.44C22.7901 22.86 23.1601 23.15 23.5701 23.49C23.0601 23.22 22.5501 22.91 22.1001 22.57C22.1201 22.41 22.0801 22.05 22.5601 22.43V22.44Z" fill="#FED700"/>
<path d="M20.7699 21.2798C20.7699 21.2798 20.8099 21.3298 20.8299 21.3598C20.7599 21.3598 20.7099 21.3398 20.7699 21.2798Z" fill="#FED700"/>
<path d="M27.9401 26.4501L27.8301 26.4701L27.8501 26.3901L27.9401 26.4501Z" fill="#FED700"/>
<path d="M21.9698 22.5899C21.5698 22.3999 21.4298 22.1599 21.3198 21.8999C21.5498 22.1299 21.8098 22.3499 22.0998 22.5699C22.0998 22.6399 22.0698 22.6799 21.9698 22.5799V22.5899Z" fill="#FED700"/>
<path d="M25.2698 24.1099C25.0298 24.0599 24.7698 23.9899 24.5098 23.8999C24.7698 23.8999 25.2698 23.9699 25.2698 24.1099Z" fill="#FED700"/>
<path d="M21.0297 21.34L20.9897 21.29C21.1597 21.29 21.1197 21.32 21.0297 21.34Z" fill="#FED700"/>
<path d="M21.0298 21.3398C21.1698 21.5198 21.2398 21.7198 21.3198 21.8998C21.1298 21.7198 20.9598 21.5298 20.8398 21.3498C20.8998 21.3498 20.9798 21.3498 21.0298 21.3398Z" fill="#FED700"/>
<path d="M27.7498 29.78C27.9098 29.38 27.1298 28.44 26.0398 28.29C25.3998 27.47 26.6898 26.69 27.8298 26.48C27.7598 26.65 27.6598 26.79 28.3798 27.53C27.9598 27.54 26.1998 26.8 26.7098 27.57C27.7198 28.46 27.7198 28.02 28.3898 28.18C27.6398 28.33 29.4198 29.73 28.7798 30.24L27.9198 29.38C27.8398 29.47 28.0998 29.86 27.7598 29.78H27.7498Z" fill="#FED700"/>
<path d="M26.2299 25.4599L25.9199 25.1899C26.3499 25.3899 26.7199 25.4399 27.3999 25.4999C27.8499 26.0499 27.8899 26.2499 27.8499 26.3899C27.2599 26.0599 26.7099 25.6799 26.1399 25.3299L26.2199 25.4599H26.2299Z" fill="#FED700"/>
<path d="M24.4001 24.1602C24.4001 24.7202 25.1101 25.4302 24.3301 25.5002C23.3501 24.7902 23.8401 24.7202 23.3701 24.1302C24.9001 25.3302 23.0501 23.6102 24.3601 24.1902C24.0901 23.9202 23.8201 23.7002 23.5801 23.4902C23.8901 23.6502 24.2001 23.7902 24.5201 23.8902C24.5001 23.8902 24.4801 23.8902 24.4701 23.8902C24.3701 23.8902 24.3301 23.9002 24.4201 23.9302C24.4201 23.9302 24.4401 23.9502 24.4501 23.9602C24.4201 24.0202 24.4201 24.0902 24.4201 24.1502C24.9401 24.3902 24.5601 24.1002 24.4501 23.9602C24.4501 23.9402 24.4501 23.9102 24.4701 23.8902L25.9301 25.1802C25.5501 25.0002 25.1401 24.7002 24.4101 24.1502L24.4001 24.1602Z" fill="#FED700"/>
<path d="M15.2397 19.9702C15.3097 19.9702 15.3297 19.9502 15.3597 19.9302C15.4197 20.0602 15.4297 20.1202 15.2397 19.9702Z" fill="#FED700"/>
<path d="M16.0201 20.2999C15.9501 20.1599 15.9801 19.9399 15.6101 19.6599C15.2201 19.4999 15.4701 19.8299 15.3501 19.9299C15.2201 19.6499 14.8301 19.0299 15.6401 19.4399L15.7001 19.5799C16.3801 19.9999 17.5501 20.1799 17.4801 20.0399C17.0401 20.2099 16.6901 20.3199 16.0201 20.2899V20.2999Z" fill="#FED700"/>
<path d="M20.1599 22.47L21.3399 23.62L20.4299 23.44L20.6099 23.27C19.7999 22.79 20.1399 22.68 20.1599 22.46V22.47Z" fill="#FED700"/>
<path d="M28.2197 26.3501L28.3097 25.8301L28.7297 26.9001L28.2197 26.3501Z" fill="#FED700"/>
<path d="M29.9697 27.5099L30.1297 27.1099L30.4597 27.6199L29.9697 27.5099Z" fill="#FED700"/>
<path d="M143.6 65.73L144.09 65.86C143.86 65.82 143.71 65.77 143.6 65.73Z" fill="#FED700"/>
<path d="M140.04 65.6499L139.96 65.4399C140.12 65.5599 140.18 65.6499 140.04 65.6499Z" fill="#FED700"/>
<path d="M77.49 48.4501C78.27 48.3101 79.21 47.9401 78.98 48.3701L78.63 48.7501C78.19 48.5301 77.82 48.4601 77.48 48.4501H77.49Z" fill="#FED700"/>
<path d="M111.58 59.96C111.51 59.99 111.43 60.03 111.35 60.06C111.21 59.87 111.08 59.7 110.96 59.54C111.15 59.67 111.36 59.81 111.58 59.96Z" fill="#FED700"/>
<path d="M111.73 61.9298L112.71 61.7998C112.48 61.8698 112.17 61.9098 111.73 61.9298Z" fill="#FED700"/>
<path d="M163.05 65.77L163.66 66.19C162.76 66.26 163.14 65.99 163.05 65.77Z" fill="#FED700"/>
<path d="M49.0498 37.6401C49.6698 37.7301 50.1398 37.8501 50.5398 37.9901C49.7598 37.9501 49.0698 38.0601 49.0498 37.6401Z" fill="#FED700"/>
<path d="M142.37 60.79C142.66 60.88 142.78 60.98 142.77 61.08C142.47 60.99 142.3 60.9 142.37 60.79Z" fill="#FED700"/>
<path d="M52.14 38.68C52.02 38.68 51.92 38.66 51.8 38.65C51.43 38.4 51.04 38.17 50.54 37.98C51.11 38.01 51.72 38.14 52.14 38.67V38.68Z" fill="#FED700"/>
<path d="M230.43 46.0101C230.43 46.0101 230.52 45.9301 230.54 45.8901C230.58 45.9401 230.52 45.9801 230.43 46.0101Z" fill="#FED700"/>
<path d="M244.92 31.0801C244.75 31.1801 244.5 31.3901 244.25 31.5501C244.35 31.4401 244.55 31.2901 244.92 31.0801Z" fill="#FED700"/>
<path d="M37.4101 31.5501C37.0301 31.3101 37.3701 31.4701 37.4101 31.5501V31.5501Z" fill="#FED700"/>
<path d="M34.6099 32.1099C34.6699 32.1999 34.6999 32.2899 34.6599 32.3899C34.6799 32.2699 34.6599 32.1799 34.6099 32.1099Z" fill="#FED700"/>
<path d="M55.1797 43.0801C55.1797 43.0801 55.1997 43.0801 55.2197 43.0901C55.0597 43.1201 55.0897 43.1201 55.1797 43.0801Z" fill="#FED700"/>
<path d="M36.7197 31.4102C36.8897 31.4402 37.0897 31.4902 37.2897 31.5602C37.1897 31.5502 37.0197 31.5002 36.7197 31.4102Z" fill="#FED700"/>
<path d="M36.9001 31.2598C36.7601 31.1998 36.6401 31.1598 36.5401 31.1098C36.5301 31.0198 36.5901 30.9998 36.9001 31.2598Z" fill="#FED700"/>
<path d="M37.9398 31.86C37.7198 31.73 37.4998 31.64 37.2798 31.56C37.3698 31.57 37.4198 31.56 37.3998 31.54C37.5098 31.61 37.6698 31.7 37.9298 31.86H37.9398Z" fill="#FED700"/>
<path d="M194.97 58.7599C194.97 58.7599 195.03 58.7199 195.05 58.6899C195.55 58.7499 195.34 58.7799 194.97 58.7599Z" fill="#FED700"/>
<path d="M87.4101 56.4902C87.4101 56.4902 87.3801 56.4602 87.3701 56.4502C87.3901 56.4502 87.4201 56.4502 87.4401 56.4502L87.4101 56.4802V56.4902Z" fill="#FED700"/>
<path d="M88.8997 57.2701C88.3797 56.5201 87.9797 56.4801 87.4297 56.4501L88.3097 55.3101L88.8897 57.2701H88.8997Z" fill="#FED700"/>
<path d="M150.74 65.8398C152.26 65.2098 153.7 65.9798 154.54 66.3298C155.12 66.0998 154.05 65.2598 155.72 65.4298C158.08 65.6098 155.31 66.5098 156.73 66.6098L157.72 65.8098C159.55 66.2998 160.87 65.7498 162.38 65.5098C162.73 65.5398 162.9 65.6098 162.99 65.6798C164.57 65.2198 166.44 66.1398 167.64 65.7798C167.34 65.6598 168.29 65.2298 168.41 65.0298L170.65 65.2298C169.66 65.1498 169.65 64.7098 169.43 64.3198C170.12 64.2798 170.46 64.4798 170.94 64.4798C170.64 64.3598 170.33 64.2398 170.67 64.0098L173.05 64.4498C172.92 64.5398 172.66 64.5998 172.45 64.6398C173.02 64.5798 174.3 64.7098 175.07 64.2198C174.97 64.0698 174.67 63.9598 174.58 63.7998C173.96 64.3798 173.51 64.0198 173.12 63.7398C174.71 63.6198 173.5 63.5898 174.21 63.1798C175.32 63.0198 175.85 63.5198 175.61 63.9198C176.84 63.5598 177.22 63.3898 178.57 63.6198L178.23 63.0798H179.43L178.36 62.5198C180.54 61.7598 178.94 63.4798 181.38 62.6998L181.3 62.1898C182.29 62.1898 182.78 62.9898 183.41 62.2398C184.4 62.3598 181.95 63.2598 184.16 62.9398C184.5 62.5998 185.29 62.2498 185.89 62.0298C186.64 62.1198 185.48 62.7298 185.02 62.7498C188.38 62.3398 186.7 60.6198 189.76 60.6098C188.84 61.2098 190.82 61.3798 188.44 61.9298C189.64 61.9598 190.5 60.6798 191.81 60.9498L190.89 60.4898C191.31 60.3798 191.84 60.4898 192.09 60.5198L191.87 60.0498C193.55 60.5898 194.45 58.9598 195.61 59.8498C194.78 59.1298 196.7 59.5998 197.18 59.0998C195.82 58.8098 193.78 60.0598 193.42 59.2798C193.91 58.8798 194.5 59.1498 194.97 58.7598C194.57 58.7398 193.97 58.6698 193.79 58.5498C195.47 57.5898 196.76 58.2598 197.92 58.1598L195.92 58.5098C196.3 59.2798 196.83 58.4098 197.56 58.8898C198.41 58.1798 199.36 58.6098 200.07 58.1098C199.86 58.1798 199.83 58.1098 199.61 58.1698C201.73 57.5298 201.89 56.0198 202.71 55.7398C203.49 55.3798 205.18 55.3198 204.73 55.8398C205.47 55.8398 201.87 56.4898 203.41 57.1498C204.21 55.5498 206.05 56.8498 208.33 55.0598C207.05 55.0498 208.75 54.1498 207.63 54.1998C208.88 53.8498 208.99 54.0098 209.66 54.1498L209.89 53.6398C211.8 53.8698 210.55 54.2698 213.13 53.7598C212.22 53.7998 213.88 52.8298 213.16 52.8198C213.81 52.5198 214.5 52.3698 215.07 52.3798L214.96 52.3598C217.45 51.5298 216.75 51.1198 219.1 50.5398L218.98 50.8598C220.53 50.4898 222.16 49.7998 223.79 49.0498C225.41 48.2998 226.97 47.3998 228.49 46.7898L227.57 47.4898C227.82 47.2198 229.69 46.8098 230.41 46.0198C230.22 46.0898 229.86 46.1598 229.71 46.2798C229.61 46.0198 229.78 45.5098 230.42 45.0698L230.88 45.2798L231 44.8498C232.02 44.2498 230.98 45.5398 232.01 44.9298C232.01 43.5498 236.39 42.2798 236.67 40.7898C237.8 41.0798 234.85 42.0998 235.99 42.2798C236.23 41.9798 236.28 41.7498 236.9 41.2798L236.94 41.8498C239.8 39.6398 240.76 38.6198 243.4 36.8198H243.23C244.04 35.9898 244.59 35.7098 245.26 35.7698C245.31 35.4398 244.58 35.8198 244.81 35.3898C247.24 35.2998 247.42 32.2298 248.93 32.2098C248.18 31.4998 249.59 29.1498 248.25 29.1898L248.95 28.7898C248.32 28.4298 246.97 30.3298 246.17 30.0598C245.65 30.7598 245.15 31.4798 244.61 32.1698C244.52 31.9198 243.96 31.8598 244.24 31.5498C243.73 31.8998 243.26 32.1798 243.71 31.4198C241.78 33.8398 239.31 35.6898 236.67 37.2098C234.09 38.8398 231.35 40.1298 229.01 42.0298C228.63 42.1798 228.72 41.8498 228.77 41.6398C228.14 42.7598 227.69 41.8398 227.12 42.0398L226.14 43.6098C225.43 43.6598 225.75 43.1698 225.62 43.0298C224.23 43.6298 223.02 44.5298 221.78 45.2398C220.55 45.9598 219.36 46.6098 218.14 46.8798C217.57 47.5198 218.62 47.4898 217.73 48.0298C218.17 47.2898 217.44 47.5098 216.67 47.7698C215.89 48.0098 215.06 48.3098 215.34 47.8198C214.82 49.1498 212 49.4398 212.96 50.5898C211.84 51.1498 211.79 50.4198 212.07 50.1598C210.77 50.7798 209.66 51.1398 208.41 51.1398C208.1 51.4298 206.53 51.9098 204.94 52.4998C203.32 53.0298 201.68 53.6498 201.23 54.3598C201.85 53.4298 201.06 54.0398 200.17 53.9998L200.7 53.1798L198.93 53.8198C198.55 53.8798 198.45 53.9298 198.47 53.9898C198.17 54.0998 198.64 54.3098 197.91 54.6798C196.68 55.0598 196.53 54.7498 195.76 54.6298L195.92 54.4898L195.07 54.6698C194.46 54.8598 197.42 54.6598 195.49 55.5198C195.41 55.3698 194.02 54.9098 193.59 55.4898C194.61 55.1698 194.59 55.6198 194.26 55.8998L192.83 56.3398L193.11 55.4498C191.05 56.0198 188.94 56.6198 186.81 57.2798C184.67 57.8898 182.46 58.4098 180.2 58.8398C180.39 59.5298 176.99 59.3798 177.57 60.3198L177.73 60.1998C178.87 60.1198 177.53 61.0298 176.6 61.0698C177.5 60.5998 174.74 60.3398 177.03 59.8298L175.17 59.6398C173.92 57.9398 170.43 60.4298 167.64 60.1398C167.84 60.1898 167.9 60.2898 167.93 60.3398C165.46 59.9898 162.55 61.3198 161.97 61.0698L161.79 61.6198C159.66 60.9898 159.42 60.8698 156.96 61.3298C157 61.4098 157.29 61.5498 156.9 61.6798C156.29 61.3098 155.68 60.9598 153.99 61.1298L154.06 61.2998L151.41 61.2398C151.44 62.8598 146.87 60.3098 146.06 62.0098C145.55 61.5198 143.61 61.3298 142.76 61.0798C142.76 61.1498 142.7 61.2198 142.55 61.2898C141.56 60.4098 139.6 61.4498 138.48 61.2898C137.76 61.0398 138.09 60.7798 138.42 60.5198C136.93 61.1298 134.47 59.5398 133.93 59.7598C132.87 59.7298 133.49 60.3498 133.17 60.6798C131.61 60.3898 133.55 59.2298 131.39 59.6998C131.63 59.7898 132.08 59.8898 131.89 59.9698C131.08 60.0398 129.45 61.7798 128.67 61.3298L129.23 61.0898C127.8 60.5598 125.59 62.0198 125.47 60.9098L125.67 60.4198C123.05 60.7898 124.62 60.0898 121.97 60.3798L121.99 60.4698C120.88 60.2198 120.19 60.7498 119.75 59.8598L120.15 59.8098C118.77 59.5398 118.64 59.5798 117.22 59.4098C117.07 59.3098 116.4 59.0898 116.18 59.2298C116.22 58.5798 112.96 58.3598 112.33 58.2898C113.43 58.5898 112.85 58.7798 112.48 58.9998C111.92 58.3298 111.48 58.1998 110.5 58.4298C110.53 57.5598 110.5 56.6598 108.74 56.2698C108.99 56.4498 109.41 56.6098 109.2 56.7498C108.99 56.8798 108.61 56.6098 108.48 56.5198C108.27 56.6498 108.81 56.9098 108.56 57.1598C107.51 56.1198 106.49 56.6798 104.81 56.0398C105.31 56.3998 104.81 56.4698 104.54 56.7198C104.61 55.7498 101.97 57.0498 102.9 55.9698C101.12 55.9398 98.9601 55.4498 97.0601 55.0298C95.1601 54.5898 93.5301 54.1698 92.7701 54.3898C92.3301 54.6298 91.5301 53.8398 90.9401 53.6698L90.9101 54.0998C89.4601 52.9298 89.7001 53.4698 87.9901 52.1898C88.6501 52.8998 88.2601 53.0298 87.3401 53.1798L86.2601 51.9598L85.8201 52.5098C85.3501 52.1098 84.7101 52.0298 84.0801 51.9598C84.3701 52.0498 84.2001 52.0598 84.1401 52.1698C84.1101 51.2298 81.7401 50.5798 81.5001 50.0598C80.6501 50.7198 80.0001 49.3598 79.3201 50.0098C79.1601 49.8298 78.9501 49.6598 78.7001 49.4898C79.1001 49.2098 79.3401 48.8298 78.7501 48.8498C78.7101 48.8298 78.6701 48.8198 78.6301 48.7998L78.2401 49.2198C77.7401 48.9398 77.2101 48.6898 76.8601 48.5598C77.0401 48.5698 77.2501 48.5398 77.4801 48.4998C77.2301 48.4998 76.9901 48.5098 76.7501 48.5198C76.6801 48.4898 76.6101 48.4698 76.5601 48.4598C76.5901 48.4898 76.6201 48.5098 76.6701 48.5198C76.3101 48.5198 75.9501 48.4698 75.5401 48.1398C73.4101 48.2498 71.7401 45.7298 69.3401 45.9898C69.6801 45.9898 70.1301 46.1098 70.1901 46.3198C68.5001 45.6498 66.5401 45.7198 65.5901 44.9598L65.8301 44.5398C64.6601 43.8598 63.7601 43.3398 62.7401 42.9798L62.8801 42.4498C62.1201 42.2598 61.0301 41.6598 59.9801 41.1998C58.9401 40.7098 57.9201 40.3598 57.2701 40.6998C57.0801 40.1598 55.2201 39.9998 54.4601 39.5298L54.0901 39.8298C52.9701 39.5098 52.3801 39.0798 51.7901 38.6998C49.2801 38.5798 47.6601 36.8798 45.7701 36.0898L45.7001 36.1898L43.9601 35.0298C44.2901 35.5998 43.7001 34.6198 43.1001 34.4498C42.5901 33.9898 41.6001 33.5998 40.7801 33.4898L39.6001 32.9098C40.7801 33.8198 39.2401 33.3998 38.9401 33.7798L38.3601 33.0598C37.9501 33.1098 38.6701 33.6398 38.0701 33.4498C37.6901 32.9598 36.2101 32.1698 35.9901 31.4898C36.1201 31.4198 36.3501 31.4198 36.6201 31.4598C36.6701 31.5198 36.6701 31.5098 36.6401 31.4598H36.7001C36.7001 31.4598 36.6601 31.4598 36.6301 31.4498C36.5901 31.3698 36.5301 31.2498 36.5201 31.1698C35.5501 30.7698 35.9801 30.7798 36.1201 30.5998C34.7101 30.6998 34.3901 29.9298 33.1701 30.2298C34.7301 29.9898 30.8201 28.8498 31.9601 28.4298C30.8101 28.6298 31.4101 28.1698 30.6001 28.4198C31.7701 28.8798 32.5001 30.0898 33.2101 30.8898L32.1201 30.7798C32.2601 31.8498 34.2101 31.6398 34.5901 32.1498C34.3301 31.7898 33.4501 31.5198 33.3401 31.6698L33.8901 31.2298C35.2501 31.6898 36.0001 32.6598 36.7401 33.4398C35.8001 33.1798 37.5701 34.3398 36.7401 34.4198L36.1101 33.9898C35.7001 34.0298 36.2501 34.5498 36.5301 34.9298C37.7001 35.2898 39.2301 36.0198 40.5701 36.6898C41.9301 37.3398 43.1301 37.8698 43.6201 37.8298C43.1101 37.7698 42.3601 37.2498 42.0601 36.8898L43.1901 37.1298C42.3801 36.7098 41.4701 36.9498 40.3701 36.1398C40.7501 35.8698 40.1501 34.9298 41.3001 34.8698C43.8801 35.4098 42.7101 36.7598 45.5801 37.9498C45.7901 38.1798 45.2801 37.0698 46.6801 37.9498C48.3801 39.1898 49.4001 40.6698 49.0401 41.4898C48.3301 40.9098 46.9601 39.6898 46.4501 40.1798C47.1401 40.7798 48.4501 41.5598 48.3601 41.9698C49.5001 41.6498 46.9401 41.0898 48.2801 40.9998C48.8301 41.2698 48.9801 41.5898 49.1901 41.8298C48.9401 41.3798 49.9101 41.5698 50.1501 41.4798C51.9801 42.2698 53.1601 42.4098 55.1701 43.1598C55.3201 43.0998 55.6201 42.9698 55.6401 42.7698C56.5201 43.3598 57.4801 44.9698 56.9401 45.2598C58.0601 45.7598 58.2501 45.4498 59.1501 46.0198C57.3501 46.0498 59.5001 46.0298 59.4001 46.7698C60.3701 47.2398 59.8801 46.5798 60.4001 46.5998C60.5401 46.7398 60.8501 47.1198 60.8001 47.3098C61.6101 47.0298 60.1401 45.5098 61.0901 45.1898C61.7301 45.0098 64.1201 45.1498 64.2901 45.1498C64.5401 45.9098 63.5101 48.2198 62.5101 48.7098C62.4401 49.1398 63.6201 48.6498 64.0701 48.7798C65.5901 48.5998 65.8301 49.9898 66.9901 50.1198L66.3101 49.4698C66.5501 49.3698 68.0301 50.1498 68.2001 50.4698C68.3201 50.2598 67.8101 49.0198 68.3901 48.9298C70.3301 49.5098 71.7101 51.3798 71.3601 52.0098C70.4501 51.4498 69.5601 50.8598 68.6701 50.2698C68.3701 50.7898 70.5501 51.5898 70.2001 52.2198L73.0001 52.9398C72.6601 52.8098 71.6601 52.2898 72.1801 52.1198C73.3401 52.5498 72.8201 52.2298 73.6901 52.2298C72.5901 51.0598 70.7901 48.4098 70.2501 47.2098L71.4901 48.0798L71.9501 47.8698C73.6001 48.9298 74.4901 51.6998 74.7801 52.4498C75.8801 52.6598 75.9101 51.3198 75.7401 50.9998C77.8101 51.6398 77.2201 53.3798 79.3701 53.8698L78.5001 53.8898C78.9601 54.1598 80.8401 54.4798 80.5801 54.6398C81.1001 54.4498 81.7101 53.7998 81.3101 53.4498L82.8201 55.1798C82.5801 54.9698 83.0601 54.0498 82.9901 53.8398C83.7501 54.0298 83.9301 55.3398 83.4001 55.3698C85.0801 55.0798 84.6001 55.3698 86.0301 54.8698C86.4401 55.0598 85.6901 55.8998 85.3401 55.9198C86.2501 56.4698 86.8601 56.5098 87.3601 56.5298C85.8601 55.6398 87.5501 54.1898 87.4501 53.3598C88.3201 54.6598 89.2001 55.9998 90.1101 57.2798C90.0401 57.0698 90.0201 56.0598 90.0701 55.9498C90.1201 56.8998 94.1201 58.0798 96.1201 58.4398L95.8201 58.3598C95.5001 57.9598 97.2501 58.1098 97.8801 58.5898C97.8001 58.3898 97.6301 58.3998 97.3401 58.3198C98.8201 57.9598 98.7401 60.0598 100.27 59.5898C99.0301 59.3898 98.8701 58.9798 99.0101 58.6398C99.9401 59.1898 102.33 59.3898 101.62 60.3198C102.31 60.2498 102.87 60.4898 102.93 59.9498L105.28 61.0798C105.12 60.9298 105.02 60.5898 105.76 60.6698C104.34 60.5198 103.21 59.2698 102.33 59.8098C102.44 59.1598 103.03 58.9198 102.49 58.2398C105.08 59.0898 106.32 60.4998 107.87 61.5998C108.69 61.6098 109.51 61.5798 110.33 61.5698L110.38 61.8798L110.93 61.1998C111.2 61.4198 111.36 61.6098 111.43 61.5498C111.5 61.4898 111.43 61.3798 111.34 61.2498C111.58 61.3298 111.8 61.4398 111.9 61.5398C112.06 61.1598 111.72 60.6398 111.35 60.1498C111.11 60.2498 110.87 60.3498 110.63 60.4498C110.24 59.9898 109.98 59.5498 110.66 59.4098C110.74 59.4798 110.85 59.5498 110.96 59.6298C110.72 59.2998 110.58 59.0398 110.82 58.9598L112.55 59.6398C112.33 59.7098 111.99 59.8598 111.58 60.0398C112.62 60.7298 113.81 61.5598 112.71 61.8798L114.17 61.6798C115.67 62.7098 115.41 62.4898 117.32 63.3398C117.47 63.0898 116.97 62.7898 117.36 62.6598C118.69 63.7198 121.03 62.1998 121.24 62.9898C122.39 63.3298 121.64 63.6998 122.36 63.9998C122.33 63.9098 122.29 63.7398 122.51 63.7498L123.33 64.3998C123.71 64.2498 122.56 63.9298 123.59 63.8098C125.25 64.4198 126.23 64.8098 127.69 64.7198C129.72 65.0398 126.7 65.7298 128.45 65.7698C128.75 65.3498 129.03 64.8398 130.11 64.8698C130.65 65.2298 130.54 65.5698 131.5 65.8498V65.1598C132.39 65.2698 133.1 65.4598 133.14 64.9398C133.85 65.2898 134.36 65.2998 134.75 65.1998C136.09 65.6398 133.65 66.5198 133.31 66.7398C134.69 66.3598 135.61 66.6798 136.42 65.9098L135.24 65.6598C137.82 64.9598 137.59 66.7598 138.84 65.3798C137.97 65.3798 136.95 64.9598 137.48 64.6198L138.71 65.0398C138.87 64.8698 138 64.8698 138.59 64.6998C138.94 64.8698 139.65 65.2598 139.97 65.5098V65.4698C140.71 65.5598 141.46 65.6198 142.22 65.6698C141.79 65.6898 141.69 65.4298 142.12 65.4198L143.6 65.8098C143.15 65.6298 143.62 65.4298 144.29 65.3298C146.21 65.1698 145.8 66.8998 147.3 66.2398C147.08 66.2398 147.05 66.1598 146.83 66.1698L147.6 65.8798C147.76 67.3298 152.12 65.9798 152.31 67.4298C153.4 66.8298 152.38 67.0798 150.96 66.4098L152.12 65.9798C151.65 65.9298 151.25 66.0398 150.75 65.9098L150.74 65.8398ZM136.02 65.3298C135.75 65.6198 135.11 65.2498 134.78 65.1198C135.36 64.9798 135.68 64.7198 136.02 65.3298ZM109.97 60.5698C109.51 60.6898 109.11 60.6998 108.9 60.4898C109.31 60.4298 109.67 60.4698 109.97 60.5698ZM41.5901 34.2098C41.5901 34.2098 41.5801 34.1898 41.5701 34.1698C42.0601 34.3098 42.3301 34.3598 41.5901 34.2098ZM40.8401 33.9198C40.4801 33.7798 40.1801 33.6098 40.1401 33.4498C40.0501 33.4798 40.0101 33.5398 40.1101 33.6798C40.4601 33.9898 40.6801 33.9898 40.8401 33.9198ZM198.45 54.3398L198.7 54.1298C198.92 54.2098 199.14 54.2998 198.45 54.3398Z" fill="#FED700"/>
<path d="M111.71 61.7002C111.82 61.6302 111.86 61.5402 111.9 61.4502C112.01 61.5602 112 61.6602 111.71 61.7002Z" fill="#FED700"/>
<path d="M162.94 65.6899H162.99C162.99 65.6899 163.04 65.7399 163.05 65.7699L162.94 65.6899Z" fill="#FED700"/>
<path d="M60.1299 47.26C60.4499 47.31 60.6499 47.28 60.7999 47.23C60.7699 47.35 60.5999 47.4 60.1299 47.26Z" fill="#FED700"/>
<path d="M33.4899 29.1001L34.2599 29.7001C33.8699 29.4401 33.6699 29.4601 33.4199 29.4101C33.4999 29.3201 33.7399 29.2601 33.4899 29.1001Z" fill="#FED700"/>
<path d="M24.6298 27.3499C24.5498 27.2199 24.3798 27.1699 24.2998 27.0399L24.4698 26.8599C24.9698 27.2199 25.2198 27.6199 24.6298 27.3499Z" fill="#FED700"/>
<path d="M31.8501 30.13C31.5601 30.46 31.1101 30.03 30.5601 29.62C30.5901 29.64 30.6301 29.66 30.6601 29.68C30.8001 29.06 31.3201 29.6 31.8501 30.13Z" fill="#FED700"/>
<path d="M30.4299 29.5302C30.2599 29.4102 30.0799 29.2802 29.8999 29.1902C29.9599 28.9402 30.1399 29.2902 30.4299 29.5302Z" fill="#FED700"/>
<path d="M38.53 32.5499C38.19 32.4999 38.6101 31.9699 38.3601 32.0399C38.2901 31.3999 39.97 33.6099 38.53 32.5499Z" fill="#FED700"/>
<path d="M30.6499 31.0802L31.1299 30.7402L31.2499 31.3102L30.6499 31.0802Z" fill="#FED700"/>
<path d="M35.5801 33.42L34.5401 33.03C34.6001 32.96 34.5001 32.85 34.3701 32.73C34.9701 33.04 35.6801 33.3 35.5801 33.42Z" fill="#FED700"/>
<path d="M34.3699 32.7202C34.0499 32.5602 33.7599 32.3902 33.6299 32.2202C33.7999 32.3202 34.1499 32.5302 34.3699 32.7202Z" fill="#FED700"/>
<path d="M31.8701 31.98L32.2101 32.04L32.9001 32.4L31.8701 31.98Z" fill="#FED700"/>
<path d="M46.22 38.5898L47.25 39.2298C47.29 39.4498 46.94 39.4099 46.56 39.1599C46.35 38.9199 45.97 38.6798 46.22 38.5898Z" fill="#FED700"/>
<path d="M42.2998 38.3602C42.6398 38.4002 42.7098 38.3002 42.9598 38.2202L42.7098 38.8302L42.3098 38.3502L42.2998 38.3602Z" fill="#FED700"/>
<path d="M45.4299 40.0102C45.4599 40.2302 46.8099 41.2202 45.4299 40.5402C45.3899 40.3202 44.3499 39.6802 45.4299 40.0102Z" fill="#FED700"/>
<path d="M62.53 46.2401L62.25 46.1201L62.68 45.1201L62.53 46.2401Z" fill="#FED700"/>
<path d="M76.8199 54.0602C75.3699 53.8702 76.6999 53.3202 75.3699 53.2202C75.1299 52.8702 76.4599 53.3102 76.1999 52.9902C76.9399 53.5202 77.4299 53.5002 76.8199 54.0702V54.0602Z" fill="#FED700"/>
<path d="M76.1898 52.9802C76.0698 52.8902 75.9498 52.8002 75.8198 52.6802C76.0398 52.8202 76.1298 52.9102 76.1898 52.9802Z" fill="#FED700"/>
<path d="M247.16 28.5698L247.72 27.8398L247.49 28.4798L247.16 28.5698Z" fill="#FED700"/>
<path d="M249.02 28.13L248.75 27.46L249.57 27.61C249.39 27.71 249.04 27.91 249.02 28.13Z" fill="#FED700"/>
<path d="M132.09 66.2998L132.03 66.1298C132.19 65.9598 132.41 65.9698 132.84 65.9798L132.08 66.2998H132.09Z" fill="#FED700"/>
<path d="M144.76 66.4401L144.54 66.4501L144.96 65.8301L144.76 66.4401Z" fill="#FED700"/>
<path d="M155.4 67.18C154.97 67.22 154.45 67.12 154.01 67.15C154.96 67.24 155.49 66.39 155.4 67.18Z" fill="#FED700"/>
<path d="M16.4201 8.65034C16.4801 8.65034 16.3501 8.85034 16.3401 8.88034C16.2801 8.79034 16.4501 8.60034 16.4201 8.65034Z" fill="#FED700"/>
<path d="M15.8701 7.76008L15.8301 7.84008V7.58008L15.8701 7.76008Z" fill="#FED700"/>
<path d="M15.1101 7.34006C15.3701 7.05006 15.3501 7.55007 15.5501 7.50007L15.6101 7.44006L15.5201 7.74007C15.3801 7.61007 15.2701 7.31006 15.1001 7.34006H15.1101Z" fill="#FED700"/>
<path d="M14.3101 7.83988C14.4101 7.71988 14.2901 7.67988 14.4301 7.84988C14.4101 7.85988 14.4101 7.86988 14.3901 7.86988C14.3701 7.85988 14.3501 7.84988 14.3101 7.83988Z" fill="#FED700"/>
<path d="M14.3901 7.87012C14.2801 7.95012 14.4601 7.92012 14.3901 7.87012V7.87012Z" fill="#FED700"/>
<path d="M14.0702 7.60033L14.1102 7.77033C14.0502 7.83033 13.9402 7.80033 13.9502 7.87033C13.8802 7.75033 13.9502 7.68033 14.0702 7.59033V7.60033Z" fill="#FED700"/>
<path d="M14.1102 7.30029L14.1402 7.38029C14.1402 7.38029 14.0902 7.41029 14.1102 7.30029Z" fill="#FED700"/>
<path d="M14.1899 7.55L14.1299 7.38C14.1299 7.38 14.2399 7.23 14.1599 7.45C14.2099 7.35 14.1799 7.45 14.1899 7.55Z" fill="#FED700"/>
<path d="M14.2798 7.53006C14.3798 7.49006 14.4798 7.49006 14.4398 7.31006C14.6098 7.47006 14.4498 7.68006 14.2798 7.53006Z" fill="#FED700"/>
<path d="M15.27 6.98017L15.4 6.93018V7.08017C15.4 7.01017 15.21 7.08017 15.27 6.98017Z" fill="#FED700"/>
<path d="M13.3301 7.4099C13.3601 7.3399 13.4701 7.2399 13.5301 7.1499L13.5601 7.26991C13.4901 7.29991 13.3901 7.2999 13.3301 7.3999V7.4099Z" fill="#FED700"/>
<path d="M13.53 7.14996L13.48 6.95996C13.59 6.99996 13.58 7.06996 13.53 7.14996Z" fill="#FED700"/>
<path d="M14.2998 6.91991L14.3398 7.27991L14.2598 6.8999L14.2998 6.91991Z" fill="#FED700"/>
<path d="M12.8899 7.17006L12.8599 7.37006L12.8799 7.06006L12.8899 7.17006Z" fill="#FED700"/>
<path d="M12.6101 6.97992C12.5801 7.13992 12.4201 7.16992 12.4201 7.27992C12.3501 7.20992 12.3501 7.05992 12.3501 6.91992C12.3801 7.00992 12.4601 7.03992 12.6101 6.97992Z" fill="#FED700"/>
<path d="M12.3301 6.72021C12.3401 6.77021 12.3501 6.85022 12.3501 6.93022C12.3301 6.88022 12.3201 6.82021 12.3301 6.72021Z" fill="#FED700"/>
<path d="M13.2698 6.89012C13.2698 6.89012 13.1598 7.03012 13.0698 7.04012L13.2298 6.87012L13.2798 6.89012H13.2698Z" fill="#FED700"/>
<path d="M13.2201 6.87008C13.1701 6.85008 13.1301 6.84008 13.1201 6.83008C13.1301 6.83008 13.1701 6.85008 13.2301 6.87008H13.2201Z" fill="#FED700"/>
<path d="M13.28 6.90005H13.27C13.27 6.90005 13.29 6.87005 13.28 6.90005Z" fill="#FED700"/>
<path d="M13.8899 6.93024C13.8899 6.78024 13.8099 6.58023 14.0399 6.49023C14.0099 6.65023 13.8799 6.71024 13.8899 6.93024Z" fill="#FED700"/>
<path d="M13.4702 6.68018L13.6202 6.70017C13.5902 6.75017 13.5202 6.82017 13.5302 6.89017L13.4802 6.68018H13.4702Z" fill="#FED700"/>
<path d="M13.4499 6.59033L13.4699 6.68034L13.4199 6.67033L13.4499 6.59033Z" fill="#FED700"/>
<path d="M12.6498 6.64994C12.6498 6.52994 12.5898 6.48994 12.5298 6.43994C12.6198 6.43994 12.7098 6.45995 12.7698 6.49995C12.7398 6.56995 12.7098 6.69994 12.6398 6.64994H12.6498Z" fill="#FED700"/>
<path d="M12.9399 6.74033V6.72033C12.9399 6.72033 12.9599 6.70033 12.9399 6.74033Z" fill="#FED700"/>
<path d="M11.8901 6.09006L11.9201 6.06006L11.9001 6.09006H11.8901Z" fill="#FED700"/>
<path d="M12.81 6.46996C12.88 6.46996 12.89 6.52997 12.88 6.59997C12.85 6.55997 12.82 6.51997 12.77 6.49997C12.78 6.46997 12.79 6.44996 12.8 6.46996H12.81Z" fill="#FED700"/>
<path d="M12.2099 6.51996C12.2599 6.48996 12.3099 6.47996 12.3599 6.45996C12.2999 6.50996 12.1899 6.57996 12.2099 6.51996Z" fill="#FED700"/>
<path d="M12.8799 6.76009C12.8799 6.76009 12.8799 6.6601 12.8799 6.6001C12.8999 6.6301 12.9199 6.67009 12.9299 6.72009C12.9199 6.73009 12.8999 6.7501 12.8799 6.7701V6.76009Z" fill="#FED700"/>
<path d="M12.4099 4.7002C12.3199 4.8902 12.3599 5.14019 12.5899 5.01019C12.6299 5.21019 12.2199 5.7802 11.9199 6.0602C11.9599 5.9802 11.9999 5.90019 11.9399 5.73019C12.0399 5.65019 12.3399 5.6402 12.3299 5.4202C12.2199 5.2402 12.1599 5.42019 12.0299 5.47019C12.2199 5.28019 12.0099 5.0202 12.2399 4.7002L12.3099 4.90019C12.3399 4.85019 12.3399 4.7402 12.3999 4.7102L12.4099 4.7002Z" fill="#FED700"/>
<path d="M12.1598 6.16008L12.1998 6.21008C12.1298 6.21008 12.0398 6.26008 11.8898 6.36008C11.8598 6.22008 11.8798 6.15008 11.9098 6.08008L12.1698 6.19008V6.15008L12.1598 6.16008Z" fill="#FED700"/>
<path d="M12.42 6.34004C12.49 6.12004 12.42 5.97004 12.62 5.79004C12.76 5.88004 12.62 6.01004 12.67 6.15004C12.46 5.97004 12.67 6.30005 12.44 6.32005C12.47 6.38005 12.5 6.41004 12.54 6.44004C12.48 6.44004 12.43 6.44004 12.37 6.46004H12.38C12.38 6.46004 12.42 6.42005 12.4 6.43005C12.4 6.43005 12.42 6.37004 12.43 6.34004C12.34 6.34004 12.39 6.39004 12.4 6.42004V6.45004H12.38L12.21 6.21004C12.28 6.21004 12.33 6.25004 12.43 6.34004H12.42Z" fill="#FED700"/>
<path d="M14.1599 5.98991C14.1599 5.98991 14.1399 6.01991 14.1299 6.02991C14.1299 5.99991 14.1299 5.97991 14.1599 5.98991Z" fill="#FED700"/>
<path d="M13.9999 6.06004C13.9999 6.06004 13.9699 6.19004 14.0399 6.20004C14.1199 6.17004 14.0899 6.10004 14.1299 6.04004C14.1299 6.11004 14.1699 6.25004 14.0099 6.29004V6.25005C13.8799 6.27005 13.6099 6.45004 13.6199 6.49004C13.7499 6.32004 13.8399 6.21005 14.0099 6.07005L13.9999 6.06004Z" fill="#FED700"/>
<path d="M13.2298 6.14006L13.0898 5.93006L13.2898 5.81006L13.2298 5.91006C13.3598 5.93006 13.2698 6.05006 13.2298 6.13006V6.14006Z" fill="#FED700"/>
<path d="M11.8102 6.17004L11.7202 6.40004L11.7702 6.04004L11.8102 6.17004Z" fill="#FED700"/>
<path d="M11.5702 6.01025L11.4802 6.20026L11.4702 6.05025L11.5702 6.01025Z" fill="#FED700"/>
<path d="M0.749947 7.99023L0.689941 8.06023C0.689941 8.06023 0.729947 8.01023 0.749947 7.99023Z" fill="#FED700"/>
<path d="M0.72998 7.52002H0.829979C0.769979 7.53002 0.72998 7.54002 0.72998 7.52002Z" fill="#FED700"/>
<path d="M5.52021 2.76025C5.39021 2.93025 5.25021 3.20026 5.31021 2.98026L5.39021 2.76025C5.43021 2.81025 5.4702 2.80025 5.5102 2.76025H5.52021Z" fill="#FED700"/>
<path d="M2.18988 3.61031L2.12988 3.57031C2.20988 3.57031 2.28989 3.57031 2.35989 3.57031C2.30989 3.59031 2.24988 3.60031 2.18988 3.62031V3.61031Z" fill="#FED700"/>
<path d="M1.24023 3.47021L1.36024 3.64022C1.36024 3.64022 1.28023 3.54021 1.24023 3.47021Z" fill="#FED700"/>
<path d="M0.499771 10.6003L0.259766 10.6803C0.259766 10.5603 0.379771 10.6103 0.499771 10.6003Z" fill="#FED700"/>
<path d="M9.00977 4.4799C8.88977 4.5199 8.81977 4.51991 8.75977 4.49991C8.90977 4.42991 9.07977 4.2999 9.00977 4.4799Z" fill="#FED700"/>
<path d="M3.20006 7.81006C3.20006 7.81006 3.11006 7.87006 3.06006 7.87006C3.10006 7.83006 3.14006 7.81006 3.20006 7.81006Z" fill="#FED700"/>
<path d="M8.55018 4.3801C8.55018 4.3801 8.59018 4.3601 8.61018 4.3501C8.64018 4.4101 8.68018 4.4701 8.75018 4.4901C8.64018 4.5401 8.53018 4.55009 8.54018 4.37009L8.55018 4.3801Z" fill="#FED700"/>
<path d="M0.669922 20.04C0.669922 20.04 0.689921 20.06 0.699921 20.06C0.669921 20.06 0.669922 20.06 0.669922 20.04Z" fill="#FED700"/>
<path d="M3 22.7999C3 22.7999 3.01 22.7299 3.02 22.6899C3.04 22.7099 3.03 22.7399 3 22.7999Z" fill="#FED700"/>
<path d="M11.21 4.87025C11.21 4.87025 11.21 4.81025 11.24 4.76025C11.22 4.81025 11.21 4.85025 11.21 4.87025Z" fill="#FED700"/>
<path d="M10.6298 5.47998C10.6298 5.47998 10.5598 5.49998 10.5298 5.49998C10.5498 5.49998 10.5798 5.47998 10.6298 5.47998Z" fill="#FED700"/>
<path d="M10.5698 5.57031C10.5698 5.57031 10.6098 5.57031 10.6298 5.57031C10.6198 5.61031 10.5998 5.63031 10.5698 5.57031Z" fill="#FED700"/>
<path d="M10.4302 5.47021C10.4302 5.47021 10.4902 5.50022 10.5302 5.50022C10.5102 5.50022 10.5002 5.52022 10.5002 5.53022C10.4902 5.52022 10.4602 5.50022 10.4302 5.48022V5.47021Z" fill="#FED700"/>
<path d="M1.3 14.98C1.3 14.98 1.31 14.98 1.32 14.99C1.22 15.05 1.24 15.02 1.3 14.98Z" fill="#FED700"/>
<path d="M4.14014 0.280273L4.15014 0.290268L4.14014 0.30027V0.280273Z" fill="#FED700"/>
<path d="M3.77979 0.189941C3.98979 0.429941 4.04979 0.389944 4.13979 0.309944C4.13979 0.539944 4.15978 0.759942 4.16978 0.979942C4.05978 0.709942 3.92979 0.449941 3.77979 0.189941Z" fill="#FED700"/>
<path d="M0.720001 8.95017C1.02 9.16017 0.639997 9.35018 0.449997 9.46018C0.549997 9.54018 0.989995 9.40017 0.869995 9.62017C0.729995 9.93017 0.339994 9.56018 0.259995 9.75018L0.629997 9.89018C0.339997 10.1302 0.600002 10.3102 0.650002 10.5102C0.620002 10.5602 0.580001 10.5802 0.540001 10.5902C0.700001 10.8102 0.169995 11.0402 0.299995 11.2102C0.379995 11.1702 0.539997 11.3002 0.629997 11.3202L0.400002 11.6102C0.500002 11.4802 0.709998 11.4902 0.919998 11.4602C0.899998 11.5502 0.78 11.6002 0.75 11.6602C0.83 11.6202 0.9 11.5802 1 11.6302L0.639999 11.9402C0.639999 11.9402 0.589994 11.8902 0.579994 11.8602C0.579994 11.9402 0.439995 12.1002 0.619995 12.2202C0.699995 12.2202 0.780001 12.1702 0.860001 12.1602C0.620001 12.0702 0.829998 12.0102 0.989998 11.9702C0.949998 12.1802 1.04 12.0202 1.2 12.1302C1.2 12.2802 0.910001 12.3402 0.720001 12.3002C0.800001 12.4702 0.859999 12.5202 0.639999 12.7002L0.93 12.6702L0.839996 12.8302L1.2 12.7002C1.4 13.0102 0.700001 12.7602 0.860001 13.1002H1.12C1.02 13.2302 0.590002 13.2802 0.900002 13.3802C0.740002 13.5102 0.539996 13.1602 0.479996 13.4602C0.609996 13.5102 0.709994 13.6302 0.759995 13.7102C0.639995 13.8102 0.459998 13.6402 0.489998 13.5802C0.369998 14.0302 1.37 13.8602 1.03 14.2602C0.849999 14.1202 0.530001 14.3702 0.540001 14.0502C0.390001 14.2102 0.909997 14.3602 0.629997 14.5202L0.959999 14.4202C0.959999 14.4802 0.849998 14.5402 0.809998 14.5802H1.06C0.619998 14.7702 1.26999 14.9402 0.689995 15.0602C1.14999 14.9802 0.659996 15.2102 0.839996 15.2902C1.16 15.1302 0.839995 14.8202 1.25999 14.8002C1.38999 14.8802 1.18 14.9502 1.3 15.0202C1.36 14.9702 1.47 14.8902 1.56 14.8702C1.8 15.1202 1.29999 15.2702 1.18999 15.4202L1.29 15.1502C0.870001 15.1702 1.22 15.2702 0.889999 15.3502C1.12 15.4902 0.79 15.5902 0.93 15.7002C0.93 15.6702 0.970001 15.6702 0.970001 15.6402C0.960001 15.9402 1.65 16.0202 1.66 16.1402C1.71 16.2602 1.48 16.4702 1.31 16.3902C1.19 16.4802 1.44 16.0002 0.889999 16.1702C1.52 16.3402 0.649994 16.5202 1.07999 16.8902C1.29999 16.7302 1.44 16.9902 1.61 16.8402C1.56 17.0202 1.46 17.0202 1.28 17.1002L1.48 17.1502C1.04 17.3802 1.09 17.2002 0.849998 17.5502C0.999998 17.4302 1.14 17.6902 1.28 17.6002C1.29 17.7002 1.23 17.7902 1.11 17.8602H1.14C1.04 18.2002 1.39 18.1402 1.17 18.4502L1.05 18.4202C0.729995 18.8402 0.930001 19.3702 0.790001 19.8002L0.689995 19.6502C0.749995 19.7002 0.499995 19.9402 0.689995 20.0802C0.699995 20.0502 0.749998 20.0102 0.739998 19.9802C0.869998 19.9802 1.07 20.0402 1.1 20.1402L0.900002 20.1802L1.06 20.2202C1.06 20.3802 0.769997 20.1702 0.769997 20.3302C1.35 20.4202 0.850001 21.0102 1.36 21.1502C0.940001 21.2602 1.3 20.8502 0.919998 20.9702C0.979998 21.0202 1.06 21.0402 1.1 21.1402L0.849998 21.1002C0.989998 21.5802 1.21 21.7702 1.15 22.1902L1.2 22.1702C1.3 22.3202 1.25 22.4002 1.03 22.4702C1.15 22.5002 1.21 22.3902 1.31 22.4502C0.659998 22.7202 1.77999 22.9902 1.32999 23.1502C1.83999 23.1302 2.33 23.4802 2.73 23.3402L2.67 23.4502C3.01 23.4102 2.67 23.1002 3.03 23.0402L2.68 22.6902C2.81 22.7002 3 22.6402 3.04 22.7002C3.04 22.6102 3.07 22.5402 3.25 22.6502C2.39 21.8202 3.23 20.9702 2.77 20.1502C2.8 20.1002 2.92 20.1302 3 20.1502C2.67 20.0002 3.17 20.0102 3.22 19.9202L2.75 19.7002C2.89 19.6102 3.03 19.6802 3.13 19.6702C3.22 19.2502 2.77 18.8502 3.05 18.5102C2.88 18.4002 2.67 18.5302 2.61 18.3902C3.09 18.5802 2.84 17.9802 3.18 18.1002C2.67 17.9602 3.07 17.5902 2.36 17.6502C2.32 17.4802 2.66 17.5102 2.73 17.5602C2.7 17.3602 2.7 17.2002 2.92 17.0402C2.75 16.9302 3.1 16.1402 2.56 15.9602C2.91 16.0802 2.74 15.9602 2.89 15.8402L3.2 15.9402L3.17 15.6802C3.2 15.6302 3.19 15.6102 3.16 15.6102C3.15 15.5702 2.98 15.6202 2.9 15.5102C2.88 15.3302 3.05 15.3302 3.21 15.2302L3.25999 15.2602L3.29 15.1402C3.29 15.0502 2.97999 15.4502 2.82999 15.1602C2.90999 15.1602 3.32 14.9902 3.1 14.9102C3.12 15.0602 2.9 15.0402 2.81 14.9802L2.79 14.7702L3.18 14.8402C3.16 14.2502 2.88 13.6402 2.91 13.0102C2.57 13.0102 2.89 12.5602 2.39 12.6202L2.43999 12.6402C2.38999 12.7902 2.04 12.5902 2.1 12.4702C2.26 12.6002 2.6 12.2302 2.68 12.5502L2.92 12.3002C3.88 12.1602 2.84 11.6402 3.15 11.2702C3.11 11.3002 3.06 11.3002 3.03 11.3102C3.34 10.9802 2.77 10.5602 2.93 10.4902L2.67 10.4602C3.08 10.1802 3.11 10.1402 2.95 9.80017C2.91 9.80017 2.83 9.84017 2.78 9.79017C2.98 9.71017 3.17 9.63018 3.12 9.39018H3.04L3.07999 9.04017C2.25999 9.04017 3.58 8.42017 2.7 8.31017C2.94 8.24018 3.01 7.97018 3.13 7.86018C3.1 7.86018 3.06 7.86017 3.02 7.83017C3.46 7.69017 2.88 7.43017 2.93 7.27017C3.03 7.17017 3.17 7.21017 3.31 7.26017C2.96 7.06017 3.7 6.71018 3.55 6.64018C3.52 6.49018 3.24 6.59017 3.06 6.54017C3.14 6.32017 3.8 6.58017 3.47 6.29017C3.43 6.32017 3.41 6.39018 3.36 6.36018C3.29 6.25018 2.36 6.05017 2.54 5.94017L2.68999 6.01017C2.89999 5.81017 2.02999 5.53017 2.57999 5.51017L2.84 5.53018C2.51 5.19018 2.94 5.39017 2.66 5.04017H2.62C2.68 4.90017 2.37 4.79017 2.78 4.76017L2.82999 4.81017C2.87999 4.63018 2.85 4.62017 2.85 4.44017C2.89 4.42017 2.96 4.35017 2.88 4.31017C3.21 4.35017 3.1 3.95017 3.1 3.87017C3.02 3.99017 2.89 3.90017 2.77 3.83017C3.06 3.81017 3.1 3.77018 2.93 3.61018C3.34 3.71018 3.78 3.81017 3.86 3.66017C3.79 3.66017 3.74 3.69017 3.67 3.65017C3.59 3.61017 3.7 3.60017 3.73 3.59017C3.65 3.54017 3.56999 3.58017 3.43999 3.51017C3.85999 3.54017 3.54 3.32018 3.74 3.24018C3.6 3.23018 3.55 3.15018 3.43 3.06018C3.85 3.28018 3.18999 2.64017 3.68999 3.02017C3.60999 2.78017 3.74 2.63017 3.86 2.51017C3.98 2.40017 4.1 2.32018 4.07 2.11018C4.03 1.94018 4.23 2.15017 4.28 2.15017L4.2 1.95017C4.47 2.27017 4.38 2.04018 4.61 2.39018C4.51 2.16018 4.5 2.04018 4.57 1.82018C4.64 1.96018 4.7 2.10018 4.74 2.25018V1.92018C4.81 2.05018 4.86999 2.00017 4.93999 1.95017C4.90999 1.95017 4.92999 1.92018 4.93999 1.86018C4.95999 2.31018 5.18999 2.28017 5.18999 2.51017C5.32999 2.08017 5.32 2.65017 5.46 2.26017C5.46 2.33017 5.48 2.38018 5.5 2.43018C5.42 2.61018 5.36 2.82018 5.43 2.74018H5.43999L5.53 2.51017C5.57 2.59017 5.62 2.63017 5.66 2.65017C5.64 2.67017 5.6 2.71017 5.56 2.76017C5.59 2.73017 5.63 2.69017 5.67 2.66017H5.68999V2.64018C5.74 2.60018 5.79 2.58018 5.81 2.68018C6.17 2.39018 6.06 3.36017 6.52 2.98017C6.46 3.01017 6.4 3.01018 6.43 2.92018C6.62 3.03018 6.99 2.82018 7.03 3.06018L6.91 3.27017C7.01 3.45017 7.08 3.58018 7.22 3.64018L7.1 3.88017C7.34 3.90017 7.52 4.50017 7.91 4.08017C7.85 4.29017 8.2 4.17017 8.27 4.29017L8.4 4.12017C8.57 4.14017 8.62 4.25018 8.67 4.35018C9.16 4.13018 9.21 4.65017 9.47 4.76017L9.5 4.71018L9.68 4.98017C9.71 4.78017 9.67 5.12017 9.77 5.12017C9.8 5.25017 9.96 5.28018 10.11 5.21018L10.27 5.29017C10.16 5.07017 10.43 5.04017 10.55 4.83017V5.05017C10.66 4.97017 10.58 4.85018 10.68 4.85018C10.68 5.00018 10.89 5.10018 10.83 5.36018C10.79 5.41018 10.74 5.44017 10.69 5.47017C10.69 5.45017 10.69 5.46017 10.69 5.47017C10.69 5.50017 10.69 5.54018 10.67 5.57018C10.82 5.59018 10.73 5.65018 10.67 5.75018C11 5.50018 10.95 5.77017 11.28 5.45017C10.89 5.80017 11.61 5.64018 11.28 6.00018C11.57 5.73018 11.36 6.03018 11.59 5.78018C11.39 5.78018 11.41 5.40017 11.37 5.19017L11.6 5.06017C11.73 4.64017 11.26 5.06017 11.26 4.88017C11.26 4.99017 11.41 4.97017 11.47 4.88017L11.28 5.15017C11.05 5.17017 11.04 4.87017 10.99 4.66017C11.16 4.63017 10.95 4.41017 11.14 4.26017L11.21 4.35018C11.31 4.27018 11.27 4.14017 11.26 4.02017C10.86 4.07017 10.44 3.60017 10.21 3.77017C10.31 3.73017 10.38 3.85018 10.38 3.96018L10.18 4.00018C10.28 4.07018 10.51 3.86017 10.62 4.05017C10.49 4.22017 10.47 4.53018 10.21 4.71018C9.75 4.82018 10.22 4.10018 9.81 3.96018C9.81 3.89018 9.71999 4.30017 9.57999 4.09017C9.42999 3.77017 9.48 3.26017 9.7 2.87017C9.74 3.04017 9.81999 3.39017 10.01 3.12017C9.96999 2.95017 9.83 2.78017 9.92 2.59017C9.63 2.86017 10.06 2.80018 9.77 2.99018C9.7 2.94018 9.73 2.82018 9.73 2.74018C9.7 2.90018 9.54 2.93018 9.47 3.00018C9.23 2.87018 9.02 2.94017 8.75 2.83017C8.71 2.87017 8.62 2.96017 8.59 3.05017C8.52 2.89017 8.62 2.30017 8.78 2.12017C8.64 2.03017 8.55 2.18017 8.48 2.02017C8.84 1.83017 8.41 2.05017 8.57 1.72017C8.47 1.61017 8.44 1.85018 8.34 1.89018C8.34 1.84018 8.34 1.71017 8.39 1.62017C8.18 1.82017 8.18999 2.33018 7.93999 2.56018C7.77999 2.70018 7.33 2.87017 7.3 2.88017C7.39 2.58017 8.01 1.47018 8.3 1.17018C8.39 0.980176 8.06 1.30017 8 1.29017C7.67 1.50017 7.86 0.910177 7.65 0.960177L7.68 1.19017C7.62 1.26017 7.45 1.05018 7.47 0.920176C7.41 1.03018 7.31 1.53017 7.18 1.62017C6.91 1.56017 6.91 0.840174 7.06 0.520174C7.16 0.700174 7.26 0.880173 7.34 1.05017C7.49 0.790173 7.17 0.640177 7.32 0.320177L6.85 0.240175C6.9 0.270175 7.04 0.420171 6.91 0.540171C6.73 0.450171 6.8 0.550175 6.63 0.630175C6.72 1.07017 6.65 2.10018 6.55 2.56018L6.46 2.30017L6.35 2.44017C6.24 2.13017 6.42999 0.950175 6.43999 0.630175C6.24999 0.640175 6.12 1.27017 6.11 1.40017C5.82 1.34017 6.06999 0.440174 5.68999 0.450174L5.85 0.340174C5.78 0.260174 5.43 0.340171 5.49 0.220171C5.39 0.370171 5.28 0.760175 5.34 0.880175C5.27 0.670175 5.17999 0.460178 5.07999 0.250178C5.12999 0.320178 5.05999 0.830176 5.07999 0.920176C4.96999 0.920176 4.89 0.320175 4.98 0.240175C4.71 0.610175 4.77 0.400176 4.59 0.850176C4.51 0.820176 4.55 0.310178 4.61 0.250178C4.41 0.130178 4.29 0.210176 4.21 0.280176C4.55 0.450176 4.45 1.40018 4.56 1.78018C4.36 1.30018 4.07 0.830178 3.68 0.430178C3.74 0.510178 3.94 0.960174 3.95 1.02017C3.78 0.570174 2.99999 0.840174 2.75999 1.16017L2.81 1.13017C2.96 1.21017 2.81 1.49017 2.62 1.47017C2.7 1.52017 2.7 1.48017 2.74 1.45017C2.83 1.84017 2.01 1.21018 2.15 1.68018C2.26 1.47018 2.43 1.56018 2.56 1.68018C2.31 1.71018 2.22999 2.15017 1.82999 1.79017C1.85999 1.95017 1.74 2.01018 1.98 2.14018C1.82 2.21018 1.65 2.30018 1.5 2.39018C1.56 2.39018 1.72 2.42017 1.7 2.55017C1.73 2.29017 2.28 2.33017 2.04 2.05017C2.32 2.22017 2.43 2.37017 2.72 2.44017C2.4 2.67017 1.78999 2.66018 1.32999 2.82018C1.35999 2.97018 1.39999 3.12017 1.43999 3.27017L1.29 3.25018L1.64 3.41017C1.54 3.43017 1.46 3.44018 1.5 3.46018C1.53 3.48018 1.58 3.48017 1.64 3.47017C1.61 3.50017 1.57 3.53017 1.53 3.54017C1.72 3.60017 1.96 3.59017 2.18 3.58017C2.12 3.53017 2.06 3.48017 2 3.44017C2.2 3.42017 2.4 3.44017 2.5 3.55017C2.47 3.55017 2.44 3.56018 2.41 3.57018C2.56 3.57018 2.68 3.57017 2.72 3.62017C2.64 3.68017 2.56 3.74017 2.49 3.80017C2.44 3.77017 2.35 3.70017 2.24 3.62017C1.96 3.71017 1.63 3.85017 1.41 3.65017L1.59 3.90017C1.18 4.08017 1.25999 4.05018 0.939995 4.32018C1.06999 4.35018 1.19 4.29018 1.28 4.35018C0.829999 4.53018 1.73 4.91018 1.35 4.93018C1.25 5.09018 1.02 4.98017 0.909996 5.09017C0.949996 5.09017 1.04 5.09018 1.04 5.11018L0.759995 5.23017C0.859995 5.29017 0.95 5.12017 1.07 5.27017C0.86 5.51017 0.719996 5.66017 0.839996 5.87017C0.769996 6.15017 0.299998 5.75018 0.349998 5.99018C0.569999 6.02018 0.839995 6.06017 0.869995 6.20017C0.719995 6.28017 0.539995 6.27017 0.439995 6.40017H0.779999C0.769999 6.51017 0.699999 6.61018 0.959999 6.61018C0.809999 6.71018 0.839999 6.78017 0.889999 6.83017C0.709999 7.01017 0.199998 6.69017 0.0599976 6.65017C0.319998 6.83017 0.169994 6.95017 0.579994 7.06017L0.669998 6.90017C1.09 7.24017 0.189996 7.22017 0.909996 7.38017C0.879996 7.26017 1.07 7.12017 1.25 7.19017L1.07 7.36018C1.16 7.38018 1.13 7.26017 1.24 7.34017C1.17 7.39017 0.989997 7.49018 0.879997 7.53018H0.900002L0.839996 7.83017C0.829996 7.77017 0.950001 7.76018 0.970001 7.82018L0.790001 8.02017C0.880001 7.96017 0.980001 8.02018 1.04 8.11018C1.14 8.37018 0.269995 8.31017 0.619995 8.52017C0.619995 8.49017 0.660002 8.49018 0.650002 8.46018L0.799995 8.56017C0.0799954 8.58018 0.73 9.17017 0 9.19017C0.29 9.34017 0.169997 9.20017 0.519997 9.01017L0.729996 9.17018C0.759996 9.11018 0.699997 9.05018 0.769997 8.99018L0.720001 8.95017ZM0.779999 6.97017C0.629999 6.94017 0.799998 6.85017 0.849998 6.80017C0.929998 6.88017 1.08 6.92017 0.779999 6.97017ZM1.81 3.30017C1.73 3.21017 1.71 3.14017 1.81 3.13017C1.85 3.21017 1.85 3.26017 1.81 3.30017ZM10.01 5.00018V5.01017C9.92999 5.01017 9.87999 5.04018 10.01 5.00018ZM10.13 5.01017C10.19 5.02017 10.22 5.05018 10.21 5.11018C10.24 5.08018 10.25 5.05017 10.25 5.01017C10.22 4.93017 10.18 4.96017 10.13 5.01017ZM2.96 15.6102L3.03 15.6502C2.96 15.6802 2.89 15.7002 2.96 15.6102Z" fill="#FED700"/>
<path d="M1.3501 3.47998C1.3501 3.47998 1.44009 3.51998 1.48009 3.52998C1.43009 3.52998 1.3801 3.52998 1.3501 3.47998Z" fill="#FED700"/>
<path d="M0.540001 10.5801V10.5901L0.5 10.6001L0.540001 10.5801Z" fill="#FED700"/>
<path d="M8.47984 1.53022C8.41984 1.54022 8.37984 1.57022 8.33984 1.61022C8.36984 1.55022 8.40984 1.52022 8.47984 1.53022Z" fill="#FED700"/>
<path d="M10.9999 5.94029L10.9199 5.8203C10.9699 5.8603 11.0199 5.82029 11.0699 5.80029C11.0399 5.85029 10.9699 5.91029 11.0099 5.94029H10.9999Z" fill="#FED700"/>
<path d="M12.79 5.11035C12.79 5.11035 12.82 5.13035 12.83 5.17035L12.77 5.27035C12.7 5.22035 12.7 5.11035 12.8 5.11035H12.79Z" fill="#FED700"/>
<path d="M11.5298 5.25029C11.6398 5.07029 11.6798 5.17029 11.7398 5.25029C11.7398 5.25029 11.7398 5.25029 11.7298 5.25029C11.6098 5.53029 11.5698 5.39029 11.5298 5.25029Z" fill="#FED700"/>
<path d="M11.7598 5.27002C11.7598 5.27002 11.7998 5.31002 11.8298 5.32002C11.7798 5.43002 11.7898 5.32002 11.7598 5.27002Z" fill="#FED700"/>
<path d="M10.4101 5.27023C10.4801 5.24023 10.3001 5.53023 10.3601 5.46023C10.2701 5.72023 10.2601 5.02023 10.4101 5.27023Z" fill="#FED700"/>
<path d="M11.9398 4.66016L11.7798 4.88016L11.8398 4.67016L11.9398 4.66016Z" fill="#FED700"/>
<path d="M11.2002 4.47021H11.3702C11.3702 4.47021 11.3502 4.55022 11.3702 4.58022C11.2902 4.54022 11.1702 4.54021 11.2102 4.47021H11.2002Z" fill="#FED700"/>
<path d="M11.3501 4.58008C11.3501 4.58008 11.4301 4.63008 11.4301 4.68008C11.4101 4.66008 11.3601 4.63008 11.3501 4.58008Z" fill="#FED700"/>
<path d="M11.7999 4.49023L11.7299 4.52023L11.6299 4.49023H11.7999Z" fill="#FED700"/>
<path d="M9.7599 3.74014L9.6499 3.59014C9.6799 3.50014 9.7499 3.47014 9.7799 3.54014C9.7799 3.62014 9.8199 3.68014 9.7499 3.74014H9.7599Z" fill="#FED700"/>
<path d="M10.5501 3.33994C10.4801 3.36994 10.4501 3.41994 10.3901 3.47994L10.5501 3.18994V3.33994Z" fill="#FED700"/>
<path d="M10.1699 3.03988C10.1999 2.94988 10.0899 2.68988 10.2599 2.80988C10.2299 2.89988 10.3399 3.03988 10.1699 3.03988Z" fill="#FED700"/>
<path d="M7.82008 2.2002L7.85008 2.23019L7.58008 2.7002L7.82008 2.2002Z" fill="#FED700"/>
<path d="M6.14987 0.0601136C6.41987 0.0101136 6.10987 0.400111 6.36987 0.300111C6.37987 0.440111 6.15987 0.380116 6.17987 0.500116C6.07987 0.330116 5.98987 0.380114 6.14987 0.0601136Z" fill="#FED700"/>
<path d="M6.18018 0.5C6.18018 0.5 6.21018 0.559998 6.22018 0.599998C6.19018 0.559998 6.18018 0.53 6.18018 0.5Z" fill="#FED700"/>
<path d="M3.29021 23.2603L3.41021 23.3803L3.22021 23.3003L3.29021 23.2603Z" fill="#FED700"/>
<path d="M2.89014 23.5L3.24014 23.53L2.93014 23.6C2.93014 23.6 2.98014 23.52 2.90014 23.5H2.89014Z" fill="#FED700"/>
<path d="M0.149902 6.45996H0.229897C0.319897 6.45996 0.329897 6.49996 0.339897 6.55996L0.149902 6.45996Z" fill="#FED700"/>
<path d="M0.409897 8.15012L0.399902 8.12012L0.7099 8.18012L0.409897 8.15012Z" fill="#FED700"/>
<path d="M0.00977284 9.57014C-0.000227159 9.51014 0.0697738 9.44014 0.0497738 9.39014C-0.0102262 9.52014 0.399773 9.59014 0.00977284 9.57014Z" fill="#FED700"/>
</svg>
