<svg width="178" height="108" viewBox="0 0 178 108" fill="none" xmlns="http://www.w3.org/2000/svg">
<path d="M85.6889 0.0163272C85.0089 -0.0836728 85.2189 0.306327 85.1089 0.356327C86.2589 0.386327 85.6689 -0.0836728 85.6889 0.0163272Z" fill="#FED700"/>
<path d="M97.0686 0.476543L96.8486 0.596543L98.5586 0.456543L97.0686 0.476543Z" fill="#FED700"/>
<path d="M107.568 2.12646C106.688 1.35646 103.758 1.54646 101.918 1.06646L101.628 0.876465L100.708 1.23646C102.998 1.47646 105.998 1.67646 107.558 2.11646L107.568 2.12646Z" fill="#FED700"/>
<path d="M112.849 4.52652C112.559 4.21652 114.079 4.57652 111.579 4.18652C111.699 4.23652 111.729 4.25652 111.799 4.28652C112.019 4.32652 112.329 4.39652 112.849 4.52652Z" fill="#FED700"/>
<path d="M111.799 4.28656C110.709 4.08656 112.469 4.62656 111.799 4.28656V4.28656Z" fill="#FED700"/>
<path d="M116.839 5.24623C116.349 5.19623 115.859 5.16623 115.369 5.13623C115.639 5.33623 116.899 5.65623 116.399 5.64623C117.879 5.88623 117.619 5.67623 116.839 5.24623Z" fill="#FED700"/>
<path d="M118.299 5.13639L117.539 5.04639C117.659 5.13639 117.849 5.20639 118.299 5.13639Z" fill="#FED700"/>
<path d="M115.929 4.86619C116.469 4.91619 116.999 4.98619 117.539 5.04619C117.359 4.89619 117.379 4.69619 116.809 4.93619C116.979 4.79619 116.629 4.87619 115.929 4.86619Z" fill="#FED700"/>
<path d="M115.059 4.58648C114.289 4.27648 113.259 3.97648 114.749 4.07648C111.979 3.56648 112.299 4.07648 115.059 4.58648Z" fill="#FED700"/>
<path d="M108.219 1.59656L107.159 1.22656L106.179 1.26656C106.669 1.24656 108.259 1.79656 108.219 1.59656Z" fill="#FED700"/>
<path d="M125.569 7.83637C125.689 7.73637 125.199 7.35637 125.139 7.16637L124.059 7.02637C124.569 7.24637 125.559 7.61637 125.579 7.83637H125.569Z" fill="#FED700"/>
<path d="M125.139 7.16654L126.749 7.40654C125.369 6.96654 125.089 6.99654 125.139 7.16654Z" fill="#FED700"/>
<path d="M118.709 4.53623C117.809 4.48623 116.909 4.41623 116.009 4.38623C117.079 4.45623 118.139 4.56623 119.219 4.65623L118.719 4.54623L118.709 4.53623Z" fill="#FED700"/>
<path d="M131.439 9.6665L130.479 9.6765L132.169 9.7465L131.439 9.6665Z" fill="#FED700"/>
<path d="M135.309 10.9463C134.589 10.9463 136.029 11.6563 135.309 11.5663C136.359 11.9063 137.329 11.9963 138.189 12.1363C137.319 11.8963 136.409 11.5663 135.309 10.9463Z" fill="#FED700"/>
<path d="M139.619 12.3962C139.179 12.2862 138.699 12.2162 138.189 12.1362C138.659 12.2562 139.129 12.3562 139.619 12.3962Z" fill="#FED700"/>
<path d="M129.369 8.25635C129.469 8.36635 129.629 8.64635 130.459 9.00635L129.969 8.45635C129.789 8.39635 129.579 8.32635 129.369 8.25635Z" fill="#FED700"/>
<path d="M129.958 8.44629L129.978 8.46629C130.628 8.68629 131.078 8.84629 131.278 8.91629C131.108 8.85629 130.718 8.71629 129.958 8.44629Z" fill="#FED700"/>
<path d="M129.219 8.21616C129.279 8.23616 129.319 8.24616 129.369 8.26616C129.319 8.21616 129.289 8.19616 129.219 8.21616Z" fill="#FED700"/>
<path d="M122.759 5.90654C123.729 5.95654 125.719 6.25654 123.939 5.45654C123.209 5.52654 124.229 5.98654 122.759 5.90654Z" fill="#FED700"/>
<path d="M128.599 7.54656L126.969 6.97656C126.969 7.07656 127.229 7.30656 126.749 7.26656L128.599 7.54656Z" fill="#FED700"/>
<path d="M129.439 7.67639L128.599 7.54639L129.199 7.75639L129.439 7.67639Z" fill="#FED700"/>
<path d="M137.009 11.0162C137.769 11.1062 138.519 11.3962 139.379 11.7162C138.499 11.2762 137.559 10.8762 136.649 10.5562C136.479 10.6162 136.009 10.6762 137.009 11.0162Z" fill="#FED700"/>
<path d="M133.609 9.68642C133.659 9.69642 133.719 9.70642 133.769 9.72642C133.689 9.66642 133.609 9.62642 133.609 9.68642Z" fill="#FED700"/>
<path d="M147.659 15.2665C147.659 15.2665 147.589 15.1865 147.559 15.1465C147.539 15.1565 147.519 15.1765 147.499 15.1865L147.659 15.2665Z" fill="#FED700"/>
<path d="M136.519 10.4361C135.849 10.1161 135.399 10.0561 134.969 10.0161C135.499 10.1661 136.059 10.3461 136.649 10.5561C136.729 10.5261 136.749 10.4961 136.519 10.4361Z" fill="#FED700"/>
<path d="M142.009 13.1663C141.689 12.9463 141.309 12.7263 140.899 12.5063C141.199 12.7563 141.849 13.1963 142.009 13.1663Z" fill="#FED700"/>
<path d="M133.979 9.89646C133.979 9.89646 133.909 9.88646 133.869 9.87646C134.069 10.0365 134.059 9.98646 133.979 9.89646Z" fill="#FED700"/>
<path d="M133.979 9.89631C134.349 9.97631 134.669 9.98631 134.969 10.0163C134.539 9.89631 134.129 9.78631 133.779 9.71631C133.859 9.77631 133.929 9.83631 133.979 9.89631Z" fill="#FED700"/>
<path d="M151.169 14.3066C150.899 14.5566 148.989 13.9966 147.609 12.9366C145.989 12.4566 146.519 13.9466 147.549 15.1366C147.659 15.0266 147.719 14.8966 149.339 15.4466C148.889 15.0266 146.109 13.4266 147.539 13.7666C149.659 14.5766 149.169 14.6766 150.079 15.3066C149.749 14.9166 150.479 15.0666 151.249 15.2666C152.019 15.4666 152.859 15.6666 152.779 15.2666L150.899 14.5466C150.909 14.4366 151.629 14.6266 151.169 14.2966V14.3066Z" fill="#FED700"/>
<path d="M144.629 13.7761L143.969 13.5361C144.669 13.9061 145.139 14.2561 145.989 14.9161C147.099 15.2561 147.379 15.2461 147.499 15.1761C146.479 14.6561 145.439 14.1861 144.389 13.7161L144.629 13.7661V13.7761Z" fill="#FED700"/>
<path d="M141.089 12.3264C141.739 12.1664 143.349 12.6864 142.559 11.9064C140.639 11.1664 141.099 11.6564 139.899 11.3564C143.019 12.4864 138.939 11.1964 141.079 12.2764C140.449 12.0964 139.899 11.8964 139.379 11.7064C139.919 11.9664 140.429 12.2264 140.899 12.4964C140.879 12.4764 140.859 12.4664 140.839 12.4464H140.829C140.719 12.3464 140.679 12.3064 140.829 12.3964C140.839 12.3964 140.879 12.4064 140.899 12.4164C140.939 12.3764 141.009 12.3564 141.089 12.3364C141.949 12.7564 141.189 12.4864 140.899 12.4164C140.879 12.4264 140.849 12.4364 140.839 12.4564C141.899 12.7864 142.929 13.1764 143.969 13.5464C143.339 13.2364 142.549 12.8464 141.079 12.3364L141.089 12.3264Z" fill="#FED700"/>
<path d="M125.869 5.14648C125.959 5.20648 125.949 5.23648 125.949 5.25648C126.169 5.27648 126.259 5.26648 125.869 5.14648Z" fill="#FED700"/>
<path d="M127.129 5.75645C126.879 5.73645 126.649 5.82645 125.899 5.55645C125.269 5.25645 125.949 5.38645 125.949 5.25645C125.469 5.21645 124.269 5.07645 125.659 5.63645L125.899 5.65645C127.159 6.16645 128.679 7.09645 128.439 7.08645C128.159 6.65645 127.899 6.32645 127.129 5.75645Z" fill="#FED700"/>
<path d="M134.339 8.80654L137.009 9.57654L135.789 8.79654V9.00654C134.329 8.39654 134.569 8.73654 134.339 8.81654V8.80654Z" fill="#FED700"/>
<path d="M147.859 15.5762L147.359 15.7762L149.039 15.9462L147.859 15.5762Z" fill="#FED700"/>
<path d="M151.089 17.0962L150.819 17.3362L151.749 17.5862L151.089 17.0962Z" fill="#FED700"/>
<path d="M39.4086 102.916L38.5786 102.806C38.9686 102.876 39.2286 102.906 39.4086 102.916Z" fill="#FED700"/>
<path d="M45.2687 104.336L45.4487 104.196C45.1587 104.236 45.0287 104.276 45.2687 104.336Z" fill="#FED700"/>
<path d="M150.179 82.3062C149.019 82.6562 147.659 82.9262 147.969 83.1762L148.469 83.3062C149.129 82.8162 149.679 82.5162 150.169 82.3062H150.179Z" fill="#FED700"/>
<path d="M94.1687 104.326C94.2887 104.346 94.4087 104.366 94.5287 104.396C94.7987 104.226 95.0587 104.076 95.2787 103.926C94.9387 104.046 94.5587 104.186 94.1587 104.326H94.1687Z" fill="#FED700"/>
<path d="M93.5187 105.986C92.9787 105.976 92.4487 105.986 91.9087 105.946C92.2787 106.006 92.7887 105.996 93.5187 105.986Z" fill="#FED700"/>
<path d="M9.46851 88.3364C9.12851 88.1964 8.80852 88.0164 8.47852 87.8564C9.58852 89.0364 9.24851 88.3664 9.46851 88.3364Z" fill="#FED700"/>
<path d="M173.889 41.8662C173.859 42.8462 173.869 43.6062 173.899 44.2762C174.019 43.1162 174.239 42.1262 173.889 41.8662Z" fill="#FED700"/>
<path d="M42.6489 99.6064C42.1489 99.5564 41.9289 99.5764 41.9189 99.6664C42.4289 99.7264 42.7289 99.7264 42.6489 99.6064Z" fill="#FED700"/>
<path d="M173.929 47.0461C173.969 46.8761 173.999 46.7161 174.039 46.5361C174.009 45.8261 173.899 45.1261 173.909 44.2661C173.759 45.1361 173.739 46.0861 173.929 47.0361V47.0461Z" fill="#FED700"/>
<path d="M75.9087 15.8063C75.9987 15.8063 76.0987 15.7963 76.1787 15.8063C76.1987 15.7563 76.0787 15.7763 75.9087 15.8063Z" fill="#FED700"/>
<path d="M110.429 16.2861C110.099 16.3161 109.549 16.3061 109.029 16.3261C109.279 16.3361 109.699 16.3261 110.429 16.2861Z" fill="#FED700"/>
<path d="M163.059 24.6066C162.469 24.1766 162.939 24.5666 163.059 24.6066V24.6066Z" fill="#FED700"/>
<path d="M161.009 21.2764C161.169 21.3364 161.299 21.3564 161.359 21.2964C161.259 21.3364 161.139 21.3264 161.009 21.2764Z" fill="#FED700"/>
<path d="M175.199 54.7161C175.199 54.7161 175.199 54.7561 175.179 54.7761C175.299 54.5661 175.279 54.6061 175.199 54.7161Z" fill="#FED700"/>
<path d="M162.299 23.7964C162.489 24.0064 162.719 24.2264 162.969 24.4564C162.869 24.3364 162.669 24.1364 162.299 23.7964Z" fill="#FED700"/>
<path d="M162.309 24.0262C162.119 23.8562 161.959 23.7362 161.819 23.6162C161.709 23.6162 161.749 23.6862 162.309 24.0262Z" fill="#FED700"/>
<path d="M163.859 25.2363C163.539 24.9763 163.249 24.7063 162.969 24.4663C163.069 24.5763 163.099 24.6263 163.059 24.6163C163.239 24.7363 163.469 24.9263 163.859 25.2463V25.2363Z" fill="#FED700"/>
<path d="M16.8486 38.8062C16.8486 38.8062 16.9486 38.7562 17.0086 38.7362C17.5586 38.1462 17.2886 38.3662 16.8486 38.8062Z" fill="#FED700"/>
<path d="M134.309 95.0266C134.309 95.0266 134.359 94.9966 134.379 94.9766C134.349 94.9866 134.299 94.9966 134.269 95.0066L134.309 95.0266Z" fill="#FED700"/>
<path d="M131.849 96.4062C132.779 95.5162 133.409 95.2762 134.269 95.0062L132.999 94.3862C132.619 95.0562 132.249 95.7562 131.849 96.4062Z" fill="#FED700"/>
<path d="M25.5587 98.4965C26.1287 98.8665 26.7087 99.2265 27.2887 99.5665C24.8287 99.1865 23.2687 98.2465 24.8287 99.4665C25.1987 98.9865 27.0087 99.7365 28.8587 100.377C30.6987 101.027 32.5587 101.587 32.8687 101.067L34.0487 101.687C33.6987 101.567 33.6187 101.617 33.2687 101.487C35.5487 102.767 35.3187 101.247 38.4087 102.247C39.4887 102.607 40.2087 102.957 39.4287 102.907L41.9487 103.227C42.6587 103.427 42.4387 103.577 41.7287 103.387C42.9887 103.657 44.2287 103.977 45.5087 104.167L45.4687 104.197C46.0487 104.127 47.3287 104.077 47.9387 104.077C48.8687 104.427 47.4387 104.107 47.6487 104.297L49.7887 104.427C50.5887 104.897 48.7987 104.847 47.3587 104.517C48.2187 105.287 48.6787 105.297 49.4187 105.307C49.7887 105.307 50.2387 105.307 50.8387 105.407C51.4487 105.497 52.2287 105.627 53.2687 105.957L51.2487 105.807C52.4287 106.657 54.0387 106.647 56.2487 107.387C55.7287 107.087 51.8587 105.687 54.2087 105.737C54.8387 105.917 55.6887 106.087 56.9587 106.027C56.9187 106.447 58.1387 106.527 59.6587 106.627L59.4987 107.167C61.1687 107.167 61.0587 106.877 62.0487 106.727C63.8687 106.957 64.2187 107.427 64.6287 107.827C67.5787 108.067 62.6387 107.037 66.1387 107.117C67.3587 107.287 68.3987 107.337 69.4987 107.317C70.5987 107.307 71.7687 107.237 73.2387 107.057C74.9487 107.257 72.9387 107.397 73.5487 107.557L75.0687 107.117C75.4387 107.127 75.3187 107.267 75.2587 107.337C76.5387 107.167 75.3687 106.787 77.3687 106.637C77.8887 106.087 81.5087 107.397 83.9687 106.607C84.5887 106.737 83.6887 106.957 83.8887 107.167C85.5887 106.887 86.2987 106.707 86.9487 106.547C87.5887 106.387 88.1587 106.217 89.5187 105.787L91.9287 105.937C90.1387 105.677 92.3187 105.017 94.1887 104.317C93.5487 104.197 93.0087 104.097 92.6587 104.057L95.6787 103.347C96.0587 103.387 95.7787 103.617 95.3087 103.917C95.5087 103.837 95.6987 103.767 95.8487 103.707C96.9687 103.757 96.4487 104.157 95.7087 104.567C95.3187 104.507 94.9287 104.437 94.5587 104.377C93.8487 104.817 93.1787 105.277 93.3687 105.577C93.5587 105.487 93.9387 105.377 94.3687 105.287C94.1787 105.407 94.0587 105.507 94.1587 105.547C94.2687 105.587 94.5787 105.427 95.0687 105.217L95.8587 105.737L95.9987 105.467C97.3687 105.387 98.7487 105.397 100.109 105.247C102.889 104.087 105.229 102.827 109.629 101.477C108.619 102.177 109.559 102.257 109.629 102.787C108.269 102.497 106.199 103.897 103.789 104.177C105.039 104.007 104.819 104.307 104.519 104.457C105.899 104.057 107.259 103.527 108.609 103.047C108.609 103.497 109.569 103.157 110.709 103.087C110.189 102.757 110.939 102.437 112.019 102.117C113.089 101.777 114.479 101.367 115.289 101.017C115.469 101.267 115.149 101.667 113.079 102.177C115.519 102.177 115.729 100.377 118.099 100.277C117.599 100.427 117.319 100.457 117.159 100.657C117.699 100.357 118.719 100.097 119.489 99.8765C120.269 99.6665 120.839 99.5965 120.549 99.8265L120.059 99.9965C121.709 99.4865 124.219 98.7065 126.309 97.8165C128.379 96.9065 130.069 96.0265 130.169 95.5965C130.239 95.6765 130.079 96.5865 129.939 96.7965C131.569 95.3265 133.109 93.7065 134.619 92.1365C134.379 92.9365 136.899 93.4665 134.429 94.9565C135.219 94.7065 136.199 94.3865 137.689 93.4765C137.139 93.6265 136.029 93.2165 136.699 92.8465C138.919 92.6365 138.179 92.5765 140.769 91.9665C139.959 92.2265 140.359 90.9165 141.549 90.3465C141.429 90.5765 142.089 91.1665 141.699 91.4765L144.199 89.1265C143.549 89.6565 144.459 89.9265 145.239 89.8065C144.849 89.8065 147.769 88.4365 148.479 87.8965L147.139 88.3965C150.469 86.6465 149.639 85.3765 152.739 83.4165C152.479 83.8265 152.489 85.0665 154.149 84.1165C154.599 83.1965 155.939 79.9965 158.129 77.6765L158.779 77.4965C159.339 76.8865 159.889 76.2765 160.409 75.6465C160.109 76.4465 159.389 77.8365 158.509 79.2765C157.629 80.7165 156.589 82.1765 155.779 83.1265C157.059 82.4865 156.299 83.1665 157.989 81.8865C158.759 81.6465 157.299 82.9065 156.809 83.2965C158.179 82.3665 159.539 81.3965 160.859 80.3665C160.589 80.2165 161.219 79.4865 161.859 78.7665C162.479 78.0265 163.099 77.2865 162.869 77.1765C161.689 78.5365 160.459 79.8765 159.169 81.1365C158.649 80.8065 160.589 77.9665 163.109 75.6465C163.899 75.1965 163.359 76.8565 163.539 76.9465C163.629 76.7165 164.159 76.0565 164.709 75.4565C165.249 74.8365 165.779 74.2365 165.939 74.1765L165.139 75.4765C166.659 74.1865 166.769 72.6365 168.659 71.1565C169.209 70.5565 170.739 69.6565 170.539 69.3365C169.209 70.0465 167.449 68.9765 167.529 68.0065C167.739 67.8365 170.389 65.0465 171.049 64.3665C172.159 63.4765 171.139 66.7065 172.079 65.9665C171.969 65.8365 172.169 65.0965 172.269 64.7965C172.799 64.1165 172.549 65.3665 173.359 63.6665C173.169 63.3865 173.599 62.5565 173.849 62.0765C174.079 61.5765 174.189 61.4865 173.299 62.6565C173.639 61.8165 173.839 61.3865 174.089 60.9265C174.329 60.4665 174.649 59.9865 174.979 58.9765C174.689 59.2265 174.539 58.6665 174.519 57.8365C174.519 57.0165 174.519 55.9065 174.689 55.0465C174.809 55.1865 175.099 54.8565 175.219 54.6865C175.679 52.9365 175.989 51.5765 176.229 50.2265C176.329 49.5465 176.459 48.8865 176.529 48.1665C176.569 47.4465 176.649 46.6865 176.639 45.8365C176.769 45.5265 176.899 43.8565 177.169 44.5565C177.059 44.0565 176.829 43.6165 176.699 42.5665C176.999 40.4565 177.019 44.9265 177.469 43.3065C177.289 43.2565 177.109 42.5665 176.919 41.7165C176.679 40.8765 176.429 39.8665 176.159 39.1565C175.979 39.4365 176.079 40.2965 176.319 41.2665C176.539 42.2465 176.789 43.3565 176.949 44.1065C176.209 44.1465 175.379 41.5965 174.189 38.4265C173.989 37.7865 173.859 37.3965 173.809 37.1565C173.759 36.9165 173.799 36.8265 173.859 36.7965C173.979 36.7465 174.189 36.9565 174.069 36.7465C173.719 35.5165 173.249 34.7165 172.869 34.1065C172.509 33.4865 172.079 33.1365 171.749 32.7765C171.059 32.0565 170.469 31.4665 169.439 29.6565C168.769 28.0665 170.119 29.0165 170.149 28.5265C171.689 30.2165 171.919 31.5165 172.639 32.8365C172.389 32.2665 172.199 31.6565 171.909 31.0965C172.179 31.3465 172.499 31.8165 172.799 32.2965C173.099 32.7865 173.399 33.2965 173.489 33.7065C173.379 32.9665 172.389 30.9365 170.859 28.8865C169.319 26.8365 167.279 24.7865 165.829 23.3465C165.179 22.9865 164.099 22.3565 164.439 22.8665C164.789 23.1065 165.129 23.3765 165.469 23.6265C166.129 24.6465 163.289 22.5165 164.429 23.6665C162.939 22.8065 161.199 22.0365 159.309 20.5865L159.209 19.8965C159.179 20.0465 160.359 20.9965 160.999 21.2465C160.069 20.8765 158.289 18.6465 156.969 18.7065L158.229 19.8765C156.629 19.2265 154.549 18.6765 152.739 17.5765C153.349 18.4865 153.209 17.7465 154.239 18.9865C153.849 18.3465 155.039 18.9865 156.109 19.6065C157.189 20.2265 158.159 20.8165 157.479 19.9465C158.419 21.3465 159.589 21.5765 160.849 23.1965C160.889 23.0265 160.489 22.5065 161.829 23.5965C161.919 23.5965 162.109 23.6565 162.229 23.6965C162.269 23.7365 162.279 23.7465 162.319 23.7765C162.299 23.7465 162.279 23.7265 162.259 23.7065C162.339 23.7265 162.339 23.7265 162.239 23.6765C161.949 23.3765 161.739 23.1065 161.679 22.9465C162.639 23.0965 164.799 24.8365 165.609 25.3265C166.319 26.0765 165.149 25.1865 165.449 25.7065C165.869 25.9265 166.269 26.1865 166.679 26.4265C166.539 26.7965 168.079 28.8065 166.289 27.2565C166.779 27.7665 167.269 28.2765 167.719 28.8065C168.389 29.8765 169.319 31.2565 169.989 32.0465C170.459 32.8965 171.559 33.9865 170.909 33.3765C171.529 34.2665 172.009 35.2465 172.509 36.2265L172.429 36.2865C172.939 37.8165 173.599 39.3665 173.939 41.0865C174.339 42.7865 174.439 44.6365 174.079 46.5065C174.109 47.0565 174.139 47.6265 174.139 48.2865C174.089 48.9465 174.039 49.6965 173.859 50.6165L173.469 50.9265C173.419 52.3665 172.269 55.0065 172.409 55.6765C172.089 55.9865 171.799 56.5365 171.469 57.2165C171.309 57.5565 171.159 57.9365 171.009 58.3365C170.839 58.7265 170.659 59.1465 170.499 59.5665C170.189 60.4265 169.759 61.2665 169.419 62.0665C169.029 62.8465 168.639 63.5365 168.289 64.0565L168.609 64.3665C167.649 65.8165 166.839 67.2865 165.589 69.0865L165.979 69.2265C165.039 70.9265 162.599 72.7765 160.409 74.8265C160.469 74.5865 161.049 74.0965 161.489 73.7765C159.909 74.7165 158.599 76.0665 157.279 77.3965C155.949 78.7065 154.609 79.9965 153.069 80.6665C152.479 81.2565 151.959 81.5465 151.419 81.7865C151.479 81.7465 151.539 81.6965 151.579 81.6565C151.509 81.7065 151.399 81.7665 151.299 81.8365C150.959 81.9765 150.609 82.1265 150.239 82.2865C150.579 82.1865 150.889 82.0565 151.149 81.9365C150.629 82.2965 149.839 82.8465 149.089 83.4365L148.529 83.2965C148.469 83.3365 148.419 83.3765 148.349 83.4165C147.479 83.7565 147.809 83.9665 148.399 83.9865C148.029 84.2865 147.689 84.5865 147.449 84.8465C146.469 84.6565 145.409 86.2965 144.149 86.1665C143.779 86.8165 140.029 88.5865 139.909 89.4765C139.839 89.4065 139.569 89.4865 140.019 89.2565C139.029 89.6565 138.049 90.0565 137.279 90.6765L136.639 90.3865L134.809 91.9765C133.379 92.2565 132.779 92.3165 133.889 91.3765C131.049 93.3065 131.499 92.7465 129.049 94.3465V93.9765C128.099 94.3565 126.729 95.3865 126.049 95.3465C124.879 95.5065 122.159 96.3265 119.039 97.3665C117.479 97.8765 115.759 98.2965 114.109 98.7365C113.279 98.9465 112.459 99.1565 111.659 99.3265C110.849 99.4665 110.069 99.5865 109.339 99.6865C110.679 100.407 106.569 99.8665 106.519 100.677C106.129 100.517 105.309 100.577 106.189 100.157C104.759 100.637 103.619 100.687 102.619 100.847C101.619 100.987 100.739 101.157 99.7787 101.677C99.3987 101.507 100.349 101.217 100.029 101.127C99.7987 101.217 99.1287 101.507 98.7987 101.417C98.4787 101.327 99.1987 101.137 99.6487 100.947C98.1587 101.267 97.3387 101.527 96.8987 101.877C96.4587 102.217 96.3687 102.587 96.3087 102.947C94.7187 102.837 93.9587 102.987 92.8887 103.587C92.3187 103.437 91.3987 103.327 93.2887 102.987C93.0187 103.017 92.4787 103.067 91.8087 103.127C91.1387 103.167 90.3487 103.207 89.5887 103.277C88.0687 103.407 86.6887 103.587 86.6487 103.867C86.2987 103.747 85.1487 103.977 84.8687 104.037C82.4487 104.107 82.2387 104.067 79.8687 104.217L80.5287 104.277C79.6087 104.977 78.5587 104.537 76.6387 104.587L76.6887 104.517C74.4887 104.267 74.0187 104.327 73.5487 104.367C73.3187 104.387 73.0787 104.417 72.6387 104.397C72.1987 104.387 71.5387 104.317 70.4687 104.117L70.6887 104.547C70.2487 105.407 66.8687 103.857 64.3487 104.007C64.6487 104.117 64.9387 104.237 65.2387 104.317C63.8387 104.517 61.5187 102.737 60.1787 102.507C59.8887 102.397 60.6587 102.427 61.0787 102.417C57.5787 101.537 60.5587 102.937 57.8787 102.757C57.4287 102.397 58.5987 102.107 56.8287 101.797C55.9887 101.407 51.5187 102.057 49.2087 100.947C49.6987 101.277 50.1887 101.597 48.9287 101.527C47.9787 101.387 46.7587 100.927 45.5487 100.547C44.3387 100.157 43.1587 99.7765 42.2387 99.9265C42.0187 99.8065 41.9387 99.7265 41.9487 99.6765C41.2187 99.5865 40.0487 99.3865 38.9487 99.2165C37.8487 99.0365 36.8087 98.8665 36.3387 98.9265C35.8887 98.0565 33.6887 97.5765 31.6587 97.0665C29.6287 96.5665 27.7787 96.0165 28.0387 95.4165C26.6687 94.8665 25.2987 94.3065 23.9787 93.6665L24.1387 93.5965C21.6587 92.2665 20.6787 91.9965 19.6587 91.7665C19.1487 91.3565 19.6187 91.4965 19.6987 91.4665C18.0287 90.2565 17.1487 89.5665 16.2887 88.9865C15.8487 88.7065 15.4187 88.4465 14.9187 88.1365C14.3987 87.8465 13.8187 87.4965 13.0687 87.0365L13.0987 86.4765C12.6887 86.2465 11.7187 85.1065 10.6387 83.6065C9.53872 82.1165 8.34872 80.2665 7.16872 78.6765C7.22872 78.6765 7.33872 78.7165 7.54872 78.9565C6.19872 77.1765 5.39872 74.5865 4.97871 72.3965C4.52872 70.1865 4.43871 68.3465 3.59871 67.5865L3.3687 66.1365L3.23872 64.6565C3.08872 66.5665 2.94871 66.4265 2.75871 65.9965C2.58871 65.5665 2.41871 64.8165 2.25871 65.6365C2.25871 65.2465 2.28872 64.7965 2.35872 64.3765C2.44872 63.9565 2.5487 63.5765 2.6487 63.2965C2.8487 62.7465 3.01873 62.6365 2.95873 63.5765L2.84871 63.8565C3.22871 64.2365 3.37872 63.0565 3.66872 61.8265C3.93872 60.5965 4.31872 59.3065 4.57872 59.4365C5.58872 55.8265 7.46873 52.5365 9.70873 49.6665C11.9487 46.7765 14.6287 44.3565 17.4087 42.1665L16.3787 42.1865C17.0287 41.6565 17.7087 41.1765 18.3787 40.6765C19.0087 40.4265 19.3687 40.5465 17.9387 41.5965C18.8687 41.3065 20.1687 39.6065 20.1487 39.4665C23.1987 37.7465 19.4287 40.8365 20.3287 40.2565L21.4987 39.4165L21.1887 39.5365C22.0387 38.6865 21.9687 38.3765 23.8387 37.3065C25.0887 36.7365 24.6387 37.3065 25.1187 37.0565C25.1387 37.0965 25.2987 37.0165 25.8487 36.6765C26.7787 36.1865 27.7287 35.7165 28.6787 35.2565L27.3187 35.3865C28.4587 34.5165 30.0187 34.0765 28.4387 34.2165C29.5987 34.1165 32.3187 32.9165 34.9787 31.7865C37.6387 30.6765 40.2087 29.5865 40.8687 29.4565C42.6087 28.4365 44.4487 27.7065 46.7687 26.9565C46.1587 27.0565 45.6287 26.6465 47.6487 26.0265C47.2987 27.3765 51.4587 25.2265 53.3387 25.5665C52.5287 25.5265 53.9487 25.0565 55.2487 24.5765C56.5487 24.0865 57.7687 23.6865 56.4987 23.6265C58.2187 23.2365 56.7287 24.0165 58.0787 23.9165C61.9587 22.2965 67.0287 21.8465 72.0187 20.6065C72.0687 20.4465 71.1687 20.3865 72.2087 19.9465L75.0287 20.1765C76.0087 19.9165 75.7887 19.1165 77.7087 19.3065C77.4287 19.2265 77.0087 19.0965 77.6687 18.9365C82.7087 18.4265 87.7987 17.5665 92.9487 16.9765C98.0987 16.4365 103.319 16.0865 108.449 16.7065C107.059 16.4465 107.979 16.3965 109.039 16.3565C108.349 16.3065 109.039 15.9765 108.909 15.7765C110.349 15.9365 111.779 16.1465 113.209 16.3365C113.999 15.7265 117.809 16.3765 118.269 15.8465L116.909 15.9065C118.739 15.3165 114.399 14.3965 114.669 13.5865C112.629 14.3265 109.239 12.4665 105.889 13.6565C105.139 13.5065 106.519 13.3765 106.109 13.1865C105.269 13.5765 104.239 13.6465 102.319 13.6065L102.529 13.5065C99.8487 13.6865 97.9287 13.7365 95.9287 13.8165C94.9287 13.8465 93.8987 13.8765 92.7487 13.9065C91.5987 13.9765 90.3187 14.0565 88.8087 14.1565L89.2987 14.5165C87.9987 14.6065 87.7187 14.4965 87.0987 14.4865C85.6987 15.2765 90.7287 14.0965 89.4587 14.9365C87.6387 14.2365 80.4087 16.1365 79.1087 15.4265C77.1387 15.7465 79.7687 15.7965 77.7987 16.1165L77.2287 15.9465L76.7887 16.3565C75.4987 16.5465 74.7887 16.3565 74.6987 16.1565C75.0187 16.1165 75.5787 15.9265 75.9087 15.8365C74.1787 15.8665 71.2087 16.8465 70.6287 16.8865C71.2687 16.7865 71.9087 16.7365 72.5487 16.6565C67.2487 17.9665 60.6887 19.2365 55.7787 21.2365L56.2187 21.3165C54.3387 22.0365 53.5687 22.2565 52.7287 22.4265C51.8987 22.6165 50.9887 22.7465 48.9287 23.5465L49.0687 23.4465C48.2987 23.9165 47.2087 24.3865 46.0587 24.7565C47.0387 24.1865 43.9287 25.0165 45.2287 24.3065C41.2587 26.1665 43.2987 25.3365 40.8587 27.0065L40.1187 26.9365C39.3087 27.5565 39.2987 27.7465 37.2887 28.6465C38.8587 27.7165 35.7987 28.7165 37.5387 27.6265C32.9587 28.6865 31.4887 30.9465 29.1287 30.9065C27.5687 32.6065 32.9787 29.6665 31.9787 30.3565C33.0087 30.2265 30.6487 31.6665 29.3087 32.2165C27.9787 32.8465 26.5287 32.2365 23.2287 34.0965C23.5587 33.9165 23.5487 33.8465 23.8787 33.6665C22.5287 34.1565 21.6287 35.2865 19.9687 35.9065C19.4287 36.8665 18.0687 37.1265 18.2187 37.8465C19.1387 37.1465 20.0687 36.4765 21.0187 35.8265C19.4487 37.0265 18.3687 38.6465 15.6187 40.3165C15.7187 40.0465 16.3787 39.3265 16.8387 38.8465C15.9587 39.2565 15.4687 40.0465 14.5887 40.5165C14.4787 40.1665 15.2687 39.4565 16.2987 38.6665C17.3187 37.8765 18.5687 37.0265 19.3087 36.2265C18.2787 36.5365 16.2987 38.9165 16.7387 37.6965C16.0687 39.3465 13.6287 39.8665 12.1987 42.1865L12.0387 41.7665C11.7787 42.0965 11.2887 42.8065 10.7587 43.3565C10.9487 42.9065 11.1487 42.4465 11.3687 42.0065C10.1587 43.7865 8.19872 44.6865 7.10872 46.4765C8.44872 44.7865 8.72872 44.7065 8.79872 44.8665C8.87872 45.0265 8.77872 45.4365 9.48872 44.8665C7.97872 46.9965 7.37872 47.4665 6.60872 47.9465C5.89872 48.4565 4.98872 48.9765 3.60872 51.6565C3.92872 50.8865 5.3687 49.1665 4.8687 50.3365C4.1987 51.2465 3.3587 52.4965 2.8687 53.0465C1.2887 56.7065 3.47872 52.6565 3.01872 54.3065C2.02872 55.3365 2.4387 56.1665 2.0587 57.8265L1.65871 57.7065C1.25871 58.7665 1.10871 59.3865 1.09871 59.7865C1.06871 60.1765 1.14871 60.3365 1.21871 60.4765C1.36871 60.7565 1.50871 60.9665 1.03871 62.9165C0.908713 62.3265 0.838725 61.7465 0.738725 61.1365C0.668725 61.8465 0.568702 62.5465 0.558702 63.2565L0.138719 62.7565C0.158719 63.3565 0.168708 63.8365 0.158708 64.2665C0.178708 64.7065 0.178708 65.0865 0.158708 65.4665C0.108708 66.2265 0.0987212 66.9765 0.0787212 68.1365C0.348721 67.5865 0.80872 68.3965 1.10872 70.3365C1.08872 71.0265 0.968708 70.8565 0.908708 70.8565C0.858708 70.8565 0.828727 71.0465 1.17873 72.4165C0.978727 72.1365 0.75872 71.8365 0.60872 71.4465C0.46872 71.0565 0.408704 70.5565 0.498704 69.9165C0.338704 69.8065 0.158724 69.3165 0.0187236 69.1965C-0.121276 70.7365 0.558698 72.9565 0.898698 73.9365C0.798698 73.5465 0.678716 73.0765 0.698716 72.8165C0.948716 73.4765 1.25871 74.1065 1.53871 74.7365C1.86871 75.3465 2.15872 75.9765 2.51872 76.5565C2.61872 77.2065 2.3087 76.7865 1.9987 76.3665C2.3787 77.1165 2.73871 77.5965 3.31871 78.6565C2.88871 78.5065 2.54871 78.7765 1.71871 77.1965C2.02871 77.7865 2.35873 78.3765 2.70873 78.9365C3.04873 79.5065 3.41872 80.0565 3.79872 80.5965C3.77872 80.9065 4.4987 82.5365 4.1187 82.1665C5.1387 84.1765 7.72871 86.1965 9.56871 88.3665C9.71871 88.4265 9.97872 88.5865 10.4487 88.9765C12.3287 90.8765 13.9987 92.7065 16.8987 94.0465C17.2887 94.5465 17.6887 95.0265 18.1087 95.5065C20.3087 96.6365 16.4187 93.6465 20.0687 95.4765C22.6887 96.6565 20.7687 96.4365 21.5887 97.0665C23.0287 97.4465 25.4987 97.9265 27.7587 99.3265C26.9087 99.1165 26.3087 98.7765 25.5387 98.4965H25.5587ZM54.1387 105.727C53.5587 105.727 52.3887 105.837 52.0187 105.527C52.7387 105.147 53.1987 105.447 54.1387 105.727ZM98.5387 104.547C98.1387 104.737 97.4887 104.757 96.7387 104.707C97.2587 104.597 97.8587 104.537 98.5387 104.547ZM168.919 29.9265C168.919 29.9265 168.949 29.9465 168.969 29.9565C169.539 30.9865 169.349 30.6165 168.919 29.9265ZM167.479 27.9465C167.269 27.8065 167.239 27.8565 167.269 27.9765C167.469 28.0265 167.839 28.4365 168.229 28.9265C168.199 28.7265 168.049 28.4365 167.489 27.9465H167.479ZM25.2687 36.7665L24.7787 36.9165C25.6987 36.2565 25.4787 36.5065 25.2687 36.7665Z" fill="#FED700"/>
<path d="M93.6188 105.786C93.4488 105.736 93.3988 105.666 93.3488 105.596C93.1388 105.696 93.1388 105.776 93.6188 105.786Z" fill="#FED700"/>
<path d="M9.64874 88.4162L9.58875 88.3462C9.53875 88.3262 9.49875 88.3262 9.46875 88.3362L9.64874 88.4162Z" fill="#FED700"/>
<path d="M172.779 65.1562C172.449 65.6163 172.229 65.8462 172.059 65.9862C172.129 66.0662 172.329 65.8863 172.779 65.1562Z" fill="#FED700"/>
<path d="M156.629 20.4962C157.109 20.7362 157.599 20.9762 158.069 21.2362C157.399 20.8362 157.199 20.6262 156.899 20.3662C156.879 20.4662 157.069 20.7462 156.639 20.4962H156.629Z" fill="#FED700"/>
<path d="M144.989 11.7661C144.749 11.7161 144.509 11.5661 144.269 11.5161L144.249 11.7261C145.209 12.1261 145.939 12.2761 144.979 11.7661H144.989Z" fill="#FED700"/>
<path d="M156.009 18.5364C156.069 18.1664 155.109 17.7564 154.049 17.2764C154.109 17.3064 154.169 17.3364 154.229 17.3664C153.699 17.6364 154.869 18.0664 156.009 18.5264V18.5364Z" fill="#FED700"/>
<path d="M153.809 17.1663C153.479 17.0163 153.159 16.8563 152.849 16.6763C152.639 16.7863 153.219 16.9163 153.809 17.1663Z" fill="#FED700"/>
<path d="M165.079 25.9265C164.749 25.5065 164.539 26.0465 164.409 25.7365C164.049 25.7165 164.779 26.1865 165.329 26.4565C165.849 26.7465 166.229 26.7965 165.079 25.9265Z" fill="#FED700"/>
<path d="M155.759 17.0664L155.909 17.6464L156.649 17.6664L155.759 17.0664Z" fill="#FED700"/>
<path d="M163.359 22.2565C162.879 21.8665 162.409 21.4565 161.919 21.0765C161.899 21.1565 161.679 21.0565 161.429 20.9165C162.369 21.5665 163.319 22.3965 163.359 22.2565Z" fill="#FED700"/>
<path d="M161.419 20.9165C160.939 20.5665 160.449 20.2765 160.129 20.1465C160.399 20.3265 160.999 20.6765 161.419 20.9165Z" fill="#FED700"/>
<path d="M158.039 18.2163L158.469 18.5763L159.579 19.2963C159.069 18.9263 158.559 18.5763 158.039 18.2163Z" fill="#FED700"/>
<path d="M174.769 38.0365C174.959 38.6765 175.209 39.3065 175.359 39.9665C175.539 40.1465 175.549 39.5765 175.289 38.8565C175.069 38.4065 174.829 37.6965 174.769 38.0365Z" fill="#FED700"/>
<path d="M173.519 31.8464C173.709 32.3864 173.649 32.4664 173.669 32.8064L174.179 32.6164L173.519 31.8364V31.8464Z" fill="#FED700"/>
<path d="M175.979 37.4565C176.169 37.6065 177.159 40.3365 176.459 37.7265C176.289 37.5365 175.519 35.5665 175.979 37.4565Z" fill="#FED700"/>
<path d="M169.829 67.1361L170.109 66.6861L169.329 66.2661L169.829 67.1361Z" fill="#FED700"/>
<path d="M150.999 87.0965C153.199 85.9465 151.219 86.3365 153.229 85.3465C153.599 84.8565 151.589 86.1666 151.989 85.6866C150.849 86.6666 150.119 86.9766 151.009 87.1066L150.999 87.0965Z" fill="#FED700"/>
<path d="M151.989 85.6865C152.169 85.5265 152.359 85.3665 152.549 85.1665C152.219 85.4565 152.069 85.5865 151.989 85.6865Z" fill="#FED700"/>
<path d="M116.069 16.7865L117.599 17.0165L116.609 16.6865L116.069 16.7865Z" fill="#FED700"/>
<path d="M119.039 16.2163L119.379 16.7863L120.319 16.3063C119.969 16.3263 119.289 16.3563 119.029 16.2163H119.039Z" fill="#FED700"/>
<path d="M58.3389 107.456L58.4789 107.336C58.2489 107.166 57.8789 107.136 57.1489 106.996C57.5389 107.166 57.9389 107.326 58.3389 107.456Z" fill="#FED700"/>
<path d="M37.3287 102.966L37.6887 103.066L37.1587 102.396L37.3287 102.966Z" fill="#FED700"/>
<path d="M19.9785 97.0365C20.6485 97.4065 21.4885 97.7265 22.1685 98.0765C20.6285 97.4265 20.0985 96.3765 19.9785 97.0365Z" fill="#FED700"/>
</svg>
